<svg width="150" height="150" viewBox="0 0 150 150" fill="none" xmlns="http://www.w3.org/2000/svg">
<circle cx="75" cy="75" r="70" fill="white" stroke="#C8FFFA" stroke-width="10"/>
<g clip-path="url(#clip0_274_155)">
<path d="M93.689 130H93.029C92.1417 129.523 91.7127 128.603 91.742 127.239C91.8227 123.653 91.8117 117.926 91.709 110.057C91.7017 109.588 91.4633 109.353 90.994 109.353H77.42C77.3613 109.353 77.3032 109.365 77.249 109.388C77.1949 109.41 77.1459 109.444 77.1049 109.486C77.0639 109.528 77.0317 109.578 77.0103 109.632C76.9888 109.687 76.9785 109.745 76.98 109.804C77.046 115.803 77.0423 121.71 76.969 127.525C76.9543 128.757 76.5327 129.582 75.704 130H74.934C73.922 129.516 73.416 128.416 73.416 126.7C73.394 121.009 73.3903 115.348 73.405 109.716C73.405 109.62 73.3668 109.527 73.2987 109.459C73.2306 109.391 73.1383 109.353 73.042 109.353H59.292C59.1666 109.353 59.0462 109.403 58.9575 109.492C58.8688 109.58 58.819 109.701 58.819 109.826C58.819 115.678 58.8227 121.578 58.83 127.525C58.83 128.691 58.3277 129.516 57.323 130H55.695L55.211 110.112C55.2052 109.904 55.1189 109.706 54.9706 109.562C54.8224 109.418 54.6243 109.339 54.419 109.342L42.792 109.364C42.5007 109.365 42.212 109.309 41.9425 109.198C41.673 109.087 41.428 108.924 41.2215 108.717C41.015 108.511 40.8512 108.265 40.7394 107.995C40.6276 107.725 40.57 107.435 40.57 107.142L40.592 95.042C40.592 94.9184 40.5425 94.7998 40.4541 94.7114C40.3657 94.623 40.2454 94.5719 40.119 94.569L20 94.349V91.456L39.833 90.961C40.3317 90.9537 40.581 90.697 40.581 90.191L40.592 77.189C40.592 76.7417 40.3683 76.5107 39.921 76.496L20 75.902V73.152L39.789 72.833C40.0001 72.8301 40.2015 72.7431 40.3498 72.5907C40.498 72.4384 40.5811 72.233 40.581 72.019V58.786C40.581 58.4267 40.3977 58.2397 40.031 58.225L20 57.697V54.826L40.141 54.529C40.2616 54.5261 40.3763 54.4762 40.4606 54.3899C40.5449 54.3035 40.592 54.1876 40.592 54.067L40.57 42.594C40.57 42.2319 40.6415 41.8734 40.7804 41.5391C40.9193 41.2047 41.1228 40.9011 41.3793 40.6456C41.6359 40.39 41.9403 40.1877 42.2752 40.0502C42.6102 39.9126 42.9689 39.8425 43.331 39.844L54.441 39.877C54.6219 39.877 54.7953 39.804 54.9232 39.674C55.0511 39.5441 55.123 39.3678 55.123 39.184L55.134 22.442C55.1339 22.2605 55.1713 22.0773 55.244 21.903C56.1387 19.769 57.2203 19.549 58.489 21.243C58.6964 21.5214 58.8083 21.861 58.808 22.211L58.83 39.162C58.83 39.253 58.8476 39.3431 58.8819 39.4272C58.9162 39.5113 58.9664 39.5877 59.0298 39.652C59.0931 39.7164 59.1683 39.7674 59.251 39.8022C59.3338 39.8371 59.4224 39.855 59.512 39.855L72.778 39.877C72.9385 39.877 73.0923 39.8133 73.2058 39.6998C73.3193 39.5863 73.383 39.4325 73.383 39.272L73.405 22.068C73.4048 21.7407 73.5132 21.4233 73.713 21.166C74.439 20.2567 75.132 19.956 75.792 20.264C76.6207 20.6453 77.035 21.2943 77.035 22.211L77.057 39.217C77.057 39.392 77.1265 39.5599 77.2503 39.6837C77.3741 39.8075 77.542 39.877 77.717 39.877L91.038 39.866C91.2276 39.866 91.4095 39.7918 91.5436 39.6598C91.6777 39.5278 91.753 39.3487 91.753 39.162V21.925C91.7531 21.7141 91.7983 21.5051 91.8855 21.3117C91.9726 21.1184 92.0999 20.945 92.259 20.803C93.271 19.8863 94.206 20.0037 95.064 21.155C95.2356 21.3907 95.3281 21.6719 95.328 21.958L95.35 39.305C95.35 39.3844 95.3656 39.4631 95.3961 39.5365C95.4265 39.6099 95.471 39.6766 95.5272 39.7328C95.5834 39.789 95.6501 39.8335 95.7235 39.8639C95.7969 39.8943 95.8756 39.91 95.955 39.91L106.361 39.866C106.826 39.8645 107.286 39.9548 107.716 40.1316C108.145 40.3084 108.536 40.5683 108.865 40.8963C109.194 41.2243 109.455 41.6141 109.633 42.0432C109.811 42.4723 109.903 42.9324 109.903 43.397V53.858C109.903 54.2687 110.108 54.474 110.519 54.474L127.635 54.496C128.904 54.5033 129.553 55.1413 129.582 56.41C129.589 56.5127 129.578 56.6117 129.549 56.707C129.314 57.6383 128.717 58.104 127.756 58.104L110.508 58.148C110.105 58.148 109.903 58.346 109.903 58.742V72.228C109.903 72.3739 109.961 72.5138 110.064 72.6169C110.167 72.7201 110.307 72.778 110.453 72.778H127.481C128.669 72.778 129.384 73.3647 129.626 74.538C129.751 75.11 129.241 75.671 128.097 76.221C127.851 76.3369 127.58 76.397 127.305 76.397H110.585C110.13 76.397 109.903 76.628 109.903 77.09V90.422C109.903 90.8253 110.101 91.027 110.497 91.027L127.778 91.049C127.984 91.049 128.187 91.0888 128.376 91.1662C128.565 91.2436 128.735 91.357 128.878 91.5C129.721 92.3433 129.842 93.172 129.241 93.986C129.108 94.167 128.935 94.3141 128.737 94.4154C128.538 94.5167 128.319 94.5693 128.097 94.569L110.563 94.602C110.123 94.602 109.903 94.822 109.903 95.262V106.482C109.903 107.243 109.601 107.974 109.062 108.512C108.524 109.051 107.793 109.353 107.032 109.353L95.911 109.342C95.7564 109.342 95.6081 109.403 95.4988 109.513C95.3894 109.622 95.328 109.77 95.328 109.925C95.3427 115.799 95.3427 121.666 95.328 127.525C95.328 128.816 94.7817 129.641 93.689 130ZM95.35 56.674C95.35 56.0847 95.1159 55.5195 94.6992 55.1028C94.2825 54.6861 93.7173 54.452 93.128 54.452H57.4C56.8107 54.452 56.2455 54.6861 55.8288 55.1028C55.4121 55.5195 55.178 56.0847 55.178 56.674V92.358C55.178 92.9473 55.4121 93.5125 55.8288 93.9292C56.2455 94.3459 56.8107 94.58 57.4 94.58H93.128C93.7173 94.58 94.2825 94.3459 94.6992 93.9292C95.1159 93.5125 95.35 92.9473 95.35 92.358V56.674Z" fill="#07BFC1"/>
<path d="M91.742 90.543C91.742 90.6655 91.6933 90.783 91.6067 90.8697C91.52 90.9563 91.4025 91.005 91.28 91.005H59.292C59.2313 91.005 59.1713 90.993 59.1152 90.9698C59.0592 90.9466 59.0082 90.9126 58.9653 90.8697C58.9224 90.8268 58.8884 90.7758 58.8652 90.7198C58.842 90.6637 58.83 90.6037 58.83 90.543V58.621C58.83 58.5603 58.842 58.5002 58.8652 58.4442C58.8884 58.3881 58.9224 58.3372 58.9653 58.2943C59.0082 58.2514 59.0592 58.2174 59.1152 58.1942C59.1713 58.1709 59.2313 58.159 59.292 58.159H91.28C91.4025 58.159 91.52 58.2077 91.6067 58.2943C91.6933 58.381 91.742 58.4985 91.742 58.621V90.543ZM74.23 76.166C74.7653 74.3987 75.1577 74.4317 75.407 76.265C75.7223 78.5457 75.9753 80.8373 76.166 83.14C76.19 83.4362 76.2761 83.7239 76.4189 83.9845C76.5617 84.2451 76.7578 84.4727 76.9945 84.6523C77.2312 84.8319 77.5032 84.9595 77.7926 85.0268C78.082 85.0942 78.3823 85.0997 78.674 85.043C79.9647 84.7863 80.7567 83.8843 81.05 82.337C81.7467 78.6703 82.854 75.429 84.372 72.613C87.496 66.816 82.799 61.327 76.672 62.075C75.3887 62.229 75.2933 62.6543 76.386 63.351C76.804 63.6077 77.0057 63.9853 76.991 64.484C76.9617 65.2907 76.7013 65.375 76.21 64.737C70.82 57.774 61.305 65.353 65.243 72.756C66.695 75.4767 67.729 78.509 68.345 81.853C68.587 83.1657 69.1737 84.1117 70.105 84.691C70.4475 84.9053 70.8419 85.0222 71.2458 85.029C71.6497 85.0359 72.0479 84.9326 72.3974 84.7301C72.747 84.5276 73.0347 84.2336 73.2297 83.8798C73.4247 83.526 73.5195 83.1257 73.504 82.722C73.4087 80.2433 73.6507 78.058 74.23 76.166Z" fill="#07BFC1"/>
</g>
<defs>
<clipPath id="clip0_274_155">
<rect width="110" height="110" fill="white" transform="translate(20 20)"/>
</clipPath>
</defs>
</svg>
