<svg width="241" height="69" viewBox="0 0 241 69" fill="none" xmlns="http://www.w3.org/2000/svg">
<path d="M13.6908 40.1749L12.3308 43.6049C11.9974 44.4516 11.3741 44.8749 10.4608 44.8749L4.29077 44.8649C3.3241 44.8649 3.03744 44.425 3.43077 43.545L22.1108 1.70496C22.2628 1.36816 22.5088 1.08236 22.8192 0.881897C23.1296 0.681436 23.4912 0.574829 23.8608 0.574829C24.2303 0.574829 24.5919 0.681436 24.9024 0.881897C25.2128 1.08236 25.4587 1.36816 25.6108 1.70496L44.4508 43.8649C44.5021 43.9818 44.5237 44.1095 44.5134 44.2368C44.5032 44.364 44.4615 44.4866 44.3921 44.5938C44.3227 44.7009 44.2277 44.789 44.1158 44.8503C44.0038 44.9116 43.8784 44.9441 43.7508 44.9449L36.9608 44.9249C36.7665 44.9249 36.5757 44.8684 36.411 44.7621C36.2463 44.6558 36.1143 44.5042 36.0308 44.325L34.0708 40.075C34.0081 39.9406 33.9089 39.8269 33.785 39.7472C33.661 39.6675 33.5173 39.6251 33.3708 39.6249L14.4508 39.6449C14.0774 39.6449 13.8241 39.8216 13.6908 40.1749ZM16.9208 32.2849C16.8995 32.3363 16.8912 32.392 16.8965 32.4473C16.9018 32.5026 16.9205 32.5558 16.9511 32.6022C16.9817 32.6485 17.0232 32.6867 17.0719 32.7133C17.1207 32.74 17.1752 32.7543 17.2308 32.7549L30.6308 32.7249C30.6851 32.7237 30.7383 32.7094 30.7859 32.6833C30.8336 32.6572 30.8743 32.6201 30.9046 32.575C30.935 32.53 30.9541 32.4783 30.9604 32.4244C30.9667 32.3704 30.96 32.3158 30.9408 32.265L24.2208 15.8849C24.1953 15.8223 24.1517 15.7686 24.0956 15.7309C24.0395 15.6931 23.9734 15.6729 23.9058 15.6729C23.8381 15.6729 23.772 15.6931 23.7159 15.7309C23.6598 15.7686 23.6162 15.8223 23.5908 15.8849L16.9208 32.2849Z" fill="#08177E"/>
<path d="M60.7507 10.385C54.6907 13.405 51.6607 19.7849 53.2307 26.3449C55.7307 36.7949 67.7207 40.425 76.2307 34.575C77.0707 33.995 77.7774 34.1249 78.3507 34.9649L81.2107 39.135C81.7907 39.975 81.6574 40.685 80.8107 41.265C67.0507 50.735 48.0107 43.795 44.9907 26.915C44.0774 21.8283 44.8307 16.9616 47.2507 12.3149C53.4807 0.334949 69.8407 -2.84505 81.0407 5.09495C81.7274 5.58161 81.8374 6.17495 81.3707 6.87495L78.3707 11.3749C78.169 11.6768 77.8565 11.887 77.5008 11.96C77.1452 12.033 76.7751 11.963 76.4707 11.765C71.1507 8.26496 65.9107 7.80496 60.7507 10.385Z" fill="#08177E"/>
<path d="M128.681 23.1049C128.681 26.0781 128.095 29.0221 126.957 31.7689C125.82 34.5157 124.152 37.0115 122.05 39.1138C119.947 41.2161 117.452 42.8838 114.705 44.0216C111.958 45.1593 109.014 45.7449 106.041 45.7449C100.036 45.7449 94.2777 43.3597 90.0319 39.1138C85.786 34.868 83.4008 29.1095 83.4008 23.1049C83.4008 17.1004 85.786 11.3419 90.0319 7.09604C94.2777 2.85022 100.036 0.464935 106.041 0.464935C109.014 0.464935 111.958 1.05056 114.705 2.18832C117.452 3.32609 119.947 4.99372 122.05 7.09604C124.152 9.19836 125.82 11.6942 126.957 14.441C128.095 17.1878 128.681 20.1318 128.681 23.1049ZM120.501 23.1049C120.501 21.206 120.127 19.3257 119.4 17.5714C118.673 15.817 117.608 14.2229 116.266 12.8802C114.923 11.5375 113.329 10.4723 111.574 9.74564C109.82 9.01895 107.94 8.64493 106.041 8.64493C104.142 8.64493 102.262 9.01895 100.507 9.74564C98.7528 10.4723 97.1587 11.5375 95.816 12.8802C94.4733 14.2229 93.4081 15.817 92.6815 17.5714C91.9548 19.3257 91.5807 21.206 91.5807 23.1049C91.5807 26.94 93.1042 30.6179 95.816 33.3297C98.5278 36.0415 102.206 37.5649 106.041 37.5649C109.876 37.5649 113.554 36.0415 116.266 33.3297C118.977 30.6179 120.501 26.94 120.501 23.1049Z" fill="#08177E"/>
<path d="M143.531 8.84494C140.711 9.71494 139.541 12.4949 140.931 15.0649C142.451 17.8549 149.961 19.9649 152.921 20.6149C154.614 20.9883 156.831 22.3816 159.571 24.795C162.564 27.415 163.637 30.7516 162.791 34.8049C159.851 48.8949 137.651 48.3049 130.821 38.1349C130.662 37.8974 130.591 37.6125 130.618 37.3282C130.645 37.044 130.77 36.778 130.971 36.575L134.721 32.735C134.828 32.6262 134.957 32.5401 135.098 32.4821C135.24 32.424 135.392 32.395 135.545 32.3969C135.698 32.3987 135.849 32.4314 135.989 32.4929C136.129 32.5544 136.256 32.6436 136.361 32.7549C140.361 37.0249 146.541 39.1049 151.971 36.7849C155.971 35.0749 155.281 29.685 151.541 28.235C145.591 25.945 138.521 24.1549 134.181 19.3949C131.521 16.4849 131.931 9.78494 134.001 6.53494C139.051 -1.40506 153.271 -0.865068 159.641 5.30493C159.944 5.59836 160.125 5.99644 160.145 6.41815C160.165 6.83987 160.024 7.25354 159.751 7.57495L156.651 11.235C156.421 11.5044 156.1 11.6791 155.749 11.7253C155.398 11.7715 155.042 11.6858 154.751 11.485C151.201 9.01495 147.981 7.47494 143.531 8.84494Z" fill="#08177E"/>
<path d="M225.251 39.6349L206.981 39.6949C206.673 39.6951 206.372 39.7889 206.118 39.9639C205.865 40.1389 205.67 40.3869 205.561 40.6749L204.371 43.8649C204.261 44.153 204.067 44.4009 203.813 44.5759C203.56 44.7509 203.259 44.8448 202.951 44.8449L197.441 44.8749C197.186 44.877 196.935 44.8151 196.711 44.6949C196.486 44.5747 196.296 44.4001 196.156 44.1871C196.017 43.9741 195.933 43.7295 195.913 43.4758C195.893 43.2221 195.937 42.9673 196.041 42.735L214.721 0.904938C214.84 0.635676 215.035 0.406834 215.281 0.246185C215.528 0.0855369 215.816 0 216.111 0C216.405 0 216.693 0.0855369 216.94 0.246185C217.187 0.406834 217.382 0.635676 217.501 0.904938L236.251 42.765C236.353 42.9943 236.397 43.2454 236.379 43.4959C236.361 43.7464 236.281 43.9885 236.146 44.2005C236.011 44.4125 235.826 44.5878 235.607 44.7107C235.388 44.8336 235.142 44.9004 234.891 44.9049L229.561 44.9749C229.258 44.9788 228.962 44.8923 228.709 44.7266C228.456 44.561 228.258 44.3236 228.141 44.045L226.661 40.5649C226.544 40.2879 226.348 40.0516 226.097 39.886C225.846 39.7205 225.551 39.6331 225.251 39.6349ZM209.281 32.1749C209.256 32.237 209.247 32.304 209.255 32.3703C209.262 32.4366 209.286 32.5 209.323 32.5551C209.36 32.6103 209.411 32.6555 209.47 32.6869C209.528 32.7182 209.594 32.7347 209.661 32.735H222.661C222.727 32.7347 222.793 32.7182 222.852 32.6869C222.911 32.6555 222.961 32.6103 222.998 32.5551C223.036 32.5 223.059 32.4366 223.067 32.3703C223.074 32.304 223.065 32.237 223.041 32.1749L216.541 15.8949C216.51 15.8193 216.457 15.7545 216.39 15.7089C216.322 15.6632 216.242 15.6389 216.161 15.6389C216.079 15.6389 215.999 15.6632 215.932 15.7089C215.864 15.7545 215.811 15.8193 215.781 15.8949L209.281 32.1749Z" fill="#08177E"/>
<path d="M184.021 9.18494L184.011 44.015C184.011 44.2404 183.921 44.4566 183.762 44.616C183.602 44.7754 183.386 44.8649 183.161 44.8649L176.771 44.8749C176.659 44.8749 176.549 44.853 176.445 44.8102C176.342 44.7675 176.249 44.7049 176.17 44.626C176.091 44.547 176.028 44.4533 175.985 44.3502C175.943 44.2471 175.921 44.1366 175.921 44.0249L175.911 9.19494C175.911 8.96951 175.821 8.75331 175.662 8.5939C175.502 8.4345 175.286 8.34494 175.061 8.34494L164.791 8.32495C164.569 8.32235 164.357 8.23302 164.2 8.07605C164.043 7.91908 163.953 7.70693 163.951 7.48495L163.911 2.11493C163.909 2.00162 163.931 1.88918 163.973 1.78424C164.016 1.67929 164.079 1.58397 164.16 1.50384C164.24 1.42372 164.335 1.36043 164.44 1.31769C164.545 1.27494 164.657 1.2536 164.771 1.25494L195.441 1.26495C195.666 1.26495 195.882 1.35448 196.042 1.51388C196.201 1.67329 196.291 1.88949 196.291 2.11493L196.311 7.48495C196.311 7.71039 196.221 7.92656 196.062 8.08597C195.902 8.24537 195.686 8.33493 195.461 8.33493H184.871C184.645 8.33493 184.429 8.42449 184.27 8.58389C184.11 8.7433 184.021 8.9595 184.021 9.18494Z" fill="#08177E"/>
<path d="M9.34073 58.765C-0.0292673 53.975 1.42073 69.955 8.84073 65.485C9.4874 65.0916 9.9974 65.225 10.3707 65.885L10.5107 66.135C10.5815 66.2594 10.6254 66.3973 10.6393 66.5398C10.6533 66.6823 10.6372 66.8262 10.5919 66.962C10.5466 67.0978 10.4732 67.2226 10.3766 67.3282C10.2799 67.4338 10.162 67.5179 10.0307 67.575C2.98072 70.615 -3.57927 62.7449 2.24073 57.2749C4.62739 55.0283 7.3474 54.7983 10.4007 56.5849C10.7474 56.7916 10.8374 57.0749 10.6707 57.4349L10.2007 58.4649C10.1654 58.5424 10.1148 58.6119 10.052 58.6693C9.98908 58.7267 9.91522 58.7707 9.83484 58.7988C9.75447 58.8268 9.66925 58.8383 9.58432 58.8325C9.4994 58.8267 9.41654 58.8037 9.34073 58.765Z" fill="#07BFC1"/>
<path d="M27.4007 61.9218C27.4037 62.7662 27.2346 63.6029 26.9031 64.3842C26.5717 65.1655 26.0843 65.876 25.4689 66.4753C24.8534 67.0745 24.122 67.5507 23.3163 67.8766C22.5106 68.2026 21.6464 68.3719 20.7731 68.375C19.8999 68.378 19.0345 68.2147 18.2266 67.8944C17.4187 67.5741 16.6839 67.103 16.0643 66.5081C15.4447 65.9131 14.9524 65.206 14.6155 64.427C14.2786 63.6481 14.1037 62.8125 14.1007 61.9682C14.0978 61.1237 14.2669 60.287 14.5984 59.5057C14.9298 58.7244 15.4172 58.0139 16.0326 57.4147C16.648 56.8154 17.3795 56.3392 18.1852 56.0133C18.9909 55.6873 19.855 55.518 20.7283 55.515C21.6016 55.5119 22.467 55.6752 23.2749 55.9955C24.0828 56.3158 24.8176 56.7869 25.4372 57.3818C26.0568 57.9768 26.5491 58.6839 26.886 59.4629C27.2229 60.2418 27.3978 61.0774 27.4007 61.9218ZM24.9307 61.9949C24.9307 60.8916 24.4925 59.8335 23.7123 59.0534C22.9322 58.2732 21.874 57.8349 20.7707 57.8349C19.6674 57.8349 18.6093 58.2732 17.8292 59.0534C17.049 59.8335 16.6107 60.8916 16.6107 61.9949C16.6107 63.0982 17.049 64.1564 17.8292 64.9365C18.6093 65.7167 19.6674 66.1549 20.7707 66.1549C21.874 66.1549 22.9322 65.7167 23.7123 64.9365C24.4925 64.1564 24.9307 63.0982 24.9307 61.9949Z" fill="#07BFC1"/>
<path d="M50.1308 60.0049C52.2208 60.7949 56.8708 62.1049 56.0008 65.3049C54.9808 69.0649 50.1708 68.6949 47.4608 67.3449C46.7675 66.9983 46.5608 66.4149 46.8408 65.5949C46.9095 65.3923 47.0291 65.2106 47.1882 65.0674C47.3472 64.9242 47.5403 64.8242 47.7491 64.7771C47.9578 64.7299 48.1752 64.7371 48.3803 64.798C48.5855 64.8589 48.7716 64.9715 48.9208 65.1249C50.0408 66.2849 51.3408 66.5749 52.8208 65.9949C53.0906 65.8886 53.3207 65.701 53.4794 65.4582C53.638 65.2154 53.7173 64.9293 53.7063 64.6395C53.6954 64.3497 53.5946 64.0704 53.4181 63.8403C53.2415 63.6102 52.9979 63.4406 52.7208 63.355C41.8008 60.025 49.4508 52.5349 54.8008 56.6849C54.8842 56.7495 54.9534 56.8305 55.0044 56.923C55.0553 57.0155 55.0868 57.1177 55.0971 57.2233C55.1074 57.3289 55.0962 57.4359 55.0642 57.5375C55.0321 57.6392 54.98 57.7336 54.9108 57.8149L54.7008 58.0549C54.2474 58.5816 53.7174 58.6716 53.1108 58.325C52.1908 57.7983 51.2875 57.6583 50.4008 57.9049C49.7608 58.0783 49.4808 58.5349 49.5608 59.2749C49.5785 59.4376 49.6413 59.5921 49.742 59.721C49.8427 59.85 49.9773 59.9483 50.1308 60.0049Z" fill="#07BFC1"/>
<path d="M40.1807 62.7349L40.0807 56.5549C40.074 55.9216 40.3907 55.5983 41.0307 55.5849L41.7707 55.5649C42.2774 55.5583 42.534 55.8083 42.5407 56.3149L42.6207 67.3249C42.6274 68.1583 42.284 68.3483 41.5907 67.8949C38.8607 66.1049 36.7607 63.0649 34.2607 60.8549C33.9274 60.5549 33.7574 60.6316 33.7507 61.0849L33.7107 67.3549C33.7107 67.8349 33.4674 68.0816 32.9807 68.0949L31.8007 68.1249C31.4407 68.1383 31.2574 67.9616 31.2507 67.5949L31.1707 56.0249C31.1696 55.9329 31.1955 55.8426 31.2452 55.7652C31.2949 55.6878 31.3662 55.6267 31.4503 55.5894C31.5344 55.5521 31.6276 55.5404 31.7183 55.5556C31.809 55.5708 31.8933 55.6123 31.9607 55.6749L39.7607 62.9249C40.0474 63.1849 40.1874 63.1216 40.1807 62.7349Z" fill="#07BFC1"/>
<path d="M65.0307 66.1749L66.0407 66.0849C66.6124 66.0336 67.1452 65.774 67.5379 65.3555C67.9307 64.937 68.1559 64.3887 68.1707 63.8149L68.3607 56.4149C68.3654 56.2045 68.4497 56.0031 68.5975 55.8498C68.7453 55.6965 68.946 55.6021 69.1607 55.5849L69.5607 55.5449C70.0674 55.5049 70.3307 55.7383 70.3507 56.2449C70.5007 60.4349 71.3108 66.7649 67.5908 67.9149C58.6608 70.6649 60.1207 61.6049 59.9607 56.5149C59.9474 55.9616 60.2174 55.6683 60.7707 55.6349L61.2007 55.6149C61.8141 55.5816 62.1241 55.8749 62.1307 56.4949L62.1707 63.5749C62.1841 65.4749 63.1374 66.3416 65.0307 66.1749Z" fill="#07BFC1"/>
<path d="M77.6807 66.2449L82.8707 66.1849C82.9795 66.1849 83.0838 66.2281 83.1606 66.305C83.2375 66.3819 83.2807 66.4862 83.2807 66.5949V67.6949C83.2807 67.8037 83.2375 67.908 83.1606 67.9849C83.0838 68.0618 82.9795 68.1049 82.8707 68.1049L75.2907 68.0849C75.182 68.0849 75.0777 68.0417 75.0008 67.9648C74.9239 67.888 74.8807 67.7837 74.8807 67.6749L74.9107 56.0049C74.9107 55.8979 74.9525 55.7951 75.0273 55.7185C75.102 55.6419 75.2037 55.5976 75.3107 55.5949L76.8507 55.5849C76.9054 55.5836 76.9598 55.5932 77.0107 55.6132C77.0616 55.6332 77.108 55.6632 77.1471 55.7014C77.1863 55.7397 77.2174 55.7853 77.2386 55.8357C77.2598 55.8861 77.2708 55.9402 77.2707 55.9949V65.8349C77.2707 65.8888 77.2813 65.9421 77.3019 65.9919C77.3225 66.0416 77.3528 66.0868 77.3908 66.1248C77.4289 66.1629 77.4741 66.1931 77.5238 66.2137C77.5736 66.2343 77.6269 66.2449 77.6807 66.2449Z" fill="#07BFC1"/>
<path d="M91.5908 58.2749L91.5608 67.6149C91.559 67.7244 91.5174 67.8294 91.4438 67.9104C91.3702 67.9914 91.2696 68.0428 91.1608 68.0549L89.5808 68.2249C89.5176 68.232 89.4537 68.2256 89.3932 68.2062C89.3327 68.1867 89.277 68.1547 89.2297 68.1122C89.1825 68.0697 89.1448 68.0177 89.1191 67.9595C89.0935 67.9014 89.0804 67.8385 89.0808 67.7749L89.1608 58.2549C89.1608 58.195 89.1488 58.1356 89.1256 58.0804C89.1023 58.0251 89.0683 57.9751 89.0255 57.9332C88.9826 57.8912 88.9318 57.8583 88.8761 57.8363C88.8203 57.8143 88.7607 57.8036 88.7008 57.8049L86.0108 57.825C85.95 57.8263 85.8896 57.8154 85.8331 57.7927C85.7767 57.7701 85.7254 57.7363 85.6825 57.6933C85.6395 57.6503 85.6056 57.599 85.583 57.5426C85.5604 57.4861 85.5494 57.4257 85.5508 57.3649L85.5808 56.045C85.5834 55.9273 85.6319 55.8154 85.7161 55.7332C85.8002 55.6509 85.9131 55.6049 86.0308 55.6049L94.5108 55.6649C94.6234 55.6672 94.731 55.7116 94.8125 55.7893C94.8939 55.8671 94.9433 55.9726 94.9508 56.0849L95.0208 57.3149C95.0249 57.3765 95.0163 57.4383 94.9955 57.4964C94.9748 57.5545 94.9423 57.6077 94.9001 57.6527C94.8579 57.6977 94.8069 57.7336 94.7502 57.7581C94.6936 57.7825 94.6325 57.7951 94.5708 57.795L92.0308 57.825C91.9132 57.8276 91.8013 57.8761 91.719 57.9602C91.6368 58.0443 91.5908 58.1573 91.5908 58.2749Z" fill="#07BFC1"/>
<path d="M111.101 61.9649C111.101 63.6809 110.419 65.3266 109.206 66.5399C107.992 67.7533 106.347 68.4349 104.631 68.4349C102.915 68.4349 101.269 67.7533 100.056 66.5399C98.8423 65.3266 98.1606 63.6809 98.1606 61.9649C98.1606 60.249 98.8423 58.6033 100.056 57.39C101.269 56.1766 102.915 55.4949 104.631 55.4949C106.347 55.4949 107.992 56.1766 109.206 57.39C110.419 58.6033 111.101 60.249 111.101 61.9649ZM108.921 61.9749C108.921 60.861 108.478 59.7927 107.69 59.0051C106.903 58.2174 105.835 57.7749 104.721 57.7749C103.607 57.7749 102.538 58.2174 101.751 59.0051C100.963 59.7927 100.521 60.861 100.521 61.9749C100.521 63.0889 100.963 64.1571 101.751 64.9448C102.538 65.7324 103.607 66.1749 104.721 66.1749C105.835 66.1749 106.903 65.7324 107.69 64.9448C108.478 64.1571 108.921 63.0889 108.921 61.9749Z" fill="#07BFC1"/>
<path d="M117.451 66.3649L117.391 67.2749C117.351 67.7883 117.074 68.0683 116.561 68.1149L116.071 68.1649C115.484 68.2183 115.191 67.9516 115.191 67.3649L115.261 56.0649C115.261 55.9718 115.295 55.882 115.358 55.8134C115.422 55.7448 115.508 55.7025 115.601 55.6949C117.101 55.5883 118.604 55.5983 120.111 55.7249C124.231 56.0649 126.071 58.9749 124.501 62.8249C124.301 63.3149 123.801 63.6649 123.541 64.2049C123.394 64.5249 123.394 64.8483 123.541 65.1749L124.491 67.2549C124.818 67.9616 124.594 68.2783 123.821 68.2049L123.271 68.1449C122.511 68.0716 122.011 67.6716 121.771 66.9449C121.231 65.3116 119.974 64.8716 118.001 65.6249C117.668 65.7583 117.484 66.0049 117.451 66.3649ZM117.381 58.3649L117.341 62.6849C117.341 62.8441 117.404 62.9967 117.517 63.1092C117.629 63.2217 117.782 63.2849 117.941 63.2849L119.831 63.3049C120.235 63.3081 120.635 63.2434 121.008 63.1144C121.382 62.9855 121.722 62.7948 122.009 62.5533C122.296 62.3118 122.525 62.0242 122.681 61.7071C122.837 61.3899 122.919 61.0494 122.921 60.7049V60.4249C122.925 59.7308 122.606 59.0629 122.034 58.568C121.462 58.073 120.684 57.7914 119.871 57.7849L117.981 57.7649C117.822 57.7649 117.669 57.8281 117.557 57.9407C117.444 58.0532 117.381 58.2058 117.381 58.3649Z" fill="#07BFC1"/>
<path d="M131.572 55.6263L130.052 55.6236C129.792 55.6232 129.581 55.8332 129.581 56.0928L129.561 67.6328C129.56 67.8924 129.77 68.1032 130.03 68.1036L131.55 68.1063C131.809 68.1067 132.02 67.8967 132.021 67.6371L132.041 56.0971C132.041 55.8375 131.831 55.6267 131.572 55.6263Z" fill="#07BFC1"/>
<path d="M148.861 61.955C148.861 63.6789 148.176 65.3322 146.957 66.5511C145.738 67.7701 144.085 68.455 142.361 68.455C140.637 68.455 138.984 67.7701 137.765 66.5511C136.546 65.3322 135.861 63.6789 135.861 61.955C135.861 60.231 136.546 58.5777 137.765 57.3587C138.984 56.1397 140.637 55.455 142.361 55.455C144.085 55.455 145.738 56.1397 146.957 57.3587C148.176 58.5777 148.861 60.231 148.861 61.955ZM146.621 61.985C146.621 60.8737 146.179 59.8079 145.394 59.0222C144.608 58.2364 143.542 57.795 142.431 57.795C141.32 57.795 140.254 58.2364 139.468 59.0222C138.682 59.8079 138.241 60.8737 138.241 61.985C138.241 63.0962 138.682 64.1619 139.468 64.9477C140.254 65.7335 141.32 66.1749 142.431 66.1749C143.542 66.1749 144.608 65.7335 145.394 64.9477C146.179 64.1619 146.621 63.0962 146.621 61.985Z" fill="#07BFC1"/>
<path d="M159.891 56.3049C159.891 56.1246 159.962 55.9516 160.09 55.8241C160.217 55.6966 160.39 55.6249 160.571 55.6249H165.031C166.733 55.6249 168.366 56.2655 169.57 57.4057C170.774 58.546 171.451 60.0924 171.451 61.705V62.045C171.451 63.6575 170.774 65.2039 169.57 66.3441C168.366 67.4844 166.733 68.1249 165.031 68.1249H160.571C160.39 68.1249 160.217 68.0533 160.09 67.9258C159.962 67.7983 159.891 67.6253 159.891 67.4449V56.3049ZM162.421 58.4449L162.381 65.5249C162.381 65.6797 162.441 65.8283 162.55 65.9386C162.658 66.049 162.806 66.1123 162.961 66.1149L164.541 66.1249C165.128 66.1293 165.71 66.0295 166.254 65.8313C166.798 65.6331 167.293 65.3403 167.711 64.9698C168.129 64.5992 168.462 64.1582 168.69 63.6718C168.918 63.1853 169.037 62.6631 169.041 62.1349V61.9149C169.048 60.8493 168.584 59.824 167.751 59.0646C166.919 58.3052 165.786 57.8736 164.601 57.8649L163.021 57.8549C162.942 57.8536 162.865 57.8679 162.792 57.8969C162.719 57.926 162.653 57.9693 162.597 58.0242C162.541 58.0791 162.497 58.1446 162.466 58.2168C162.436 58.2891 162.421 58.3666 162.421 58.4449Z" fill="#07BFC1"/>
<path d="M178.101 61.3049L183.021 61.2149C183.082 61.2145 183.142 61.2271 183.198 61.2517C183.253 61.2764 183.303 61.3126 183.344 61.358C183.385 61.4034 183.415 61.4569 183.433 61.515C183.452 61.5731 183.458 61.6344 183.451 61.695L183.291 63.095C183.278 63.2001 183.228 63.297 183.148 63.3672C183.069 63.4373 182.967 63.4757 182.861 63.475L178.251 63.4349C178.145 63.4342 178.042 63.4726 177.963 63.5427C177.884 63.6129 177.833 63.7098 177.821 63.815L177.611 65.5949C177.604 65.6555 177.609 65.7168 177.628 65.7749C177.646 65.833 177.677 65.8865 177.717 65.9319C177.758 65.9773 177.808 66.0135 177.864 66.0382C177.919 66.0628 177.98 66.0754 178.041 66.075L184.611 66.065C184.669 66.0649 184.726 66.0766 184.78 66.0995C184.833 66.1223 184.882 66.1558 184.922 66.1979C184.962 66.24 184.993 66.2897 185.014 66.3442C185.034 66.3987 185.043 66.4568 185.041 66.515L184.991 67.6849C184.986 67.7955 184.938 67.8998 184.858 67.9761C184.778 68.0525 184.671 68.0951 184.561 68.0949L175.671 68.0849C175.557 68.0849 175.447 68.0396 175.367 67.959C175.286 67.8784 175.241 67.769 175.241 67.6549L175.181 56.0849C175.181 55.9709 175.226 55.8615 175.307 55.7809C175.387 55.7003 175.497 55.6549 175.611 55.6549L184.541 55.605C184.602 55.6045 184.662 55.6171 184.718 55.6417C184.773 55.6664 184.823 55.7026 184.864 55.748C184.905 55.7934 184.935 55.8469 184.953 55.905C184.972 55.9631 184.978 56.0244 184.971 56.0849L184.801 57.575C184.788 57.6801 184.738 57.7771 184.658 57.8472C184.579 57.9173 184.477 57.9557 184.371 57.955L178.161 57.9349C178.048 57.9349 177.94 57.9789 177.86 58.0574C177.78 58.1358 177.733 58.2427 177.731 58.355L177.661 60.8649C177.659 60.9231 177.67 60.981 177.691 61.035C177.713 61.089 177.745 61.138 177.786 61.1791C177.828 61.2203 177.877 61.2526 177.931 61.2742C177.985 61.2959 178.042 61.3063 178.101 61.3049Z" fill="#07BFC1"/>
<path d="M191.401 60.9749L191.321 67.8049C191.321 67.8811 191.292 67.9546 191.24 68.0103C191.188 68.066 191.117 68.0999 191.041 68.1049L189.301 68.235C189.26 68.2377 189.219 68.2319 189.18 68.2181C189.141 68.2043 189.106 68.1826 189.076 68.1545C189.046 68.1263 189.022 68.0923 189.005 68.0546C188.989 68.0168 188.981 67.9761 188.981 67.9349V55.7149C188.981 55.6573 188.999 55.6012 189.03 55.5531C189.062 55.505 189.107 55.4671 189.16 55.4439C189.213 55.4207 189.271 55.4132 189.328 55.4222C189.385 55.4313 189.438 55.4565 189.481 55.4949L197.451 62.8149C197.494 62.8539 197.548 62.8794 197.606 62.8881C197.664 62.8968 197.723 62.8884 197.776 62.8639C197.829 62.8395 197.874 62.8001 197.905 62.7505C197.936 62.7009 197.952 62.6434 197.951 62.5849L197.751 55.955C197.751 55.8787 197.779 55.8053 197.831 55.7496C197.883 55.6938 197.955 55.66 198.031 55.6549L199.971 55.5549C200.012 55.5522 200.053 55.5579 200.092 55.5718C200.13 55.5856 200.166 55.6073 200.196 55.6354C200.226 55.6635 200.25 55.6976 200.266 55.7353C200.282 55.7731 200.291 55.8138 200.291 55.8549V68.4649C200.29 68.5236 200.272 68.5808 200.239 68.6294C200.206 68.678 200.159 68.7158 200.105 68.7381C200.051 68.7605 199.991 68.7664 199.933 68.7552C199.876 68.744 199.823 68.716 199.781 68.6749L191.911 60.7649C191.869 60.7238 191.816 60.6959 191.758 60.6847C191.7 60.6735 191.641 60.6794 191.586 60.7017C191.532 60.7241 191.486 60.7619 191.453 60.8105C191.42 60.859 191.402 60.9162 191.401 60.9749Z" fill="#07BFC1"/>
<path d="M209.951 58.2549L209.971 67.6449C209.971 67.7626 209.925 67.8755 209.842 67.9597C209.76 68.0438 209.648 68.0923 209.531 68.0949L207.961 68.1249C207.901 68.1263 207.841 68.1156 207.785 68.0936C207.73 68.0716 207.679 68.0387 207.636 67.9967C207.593 67.9548 207.559 67.9047 207.536 67.8495C207.513 67.7942 207.501 67.7349 207.501 67.6749L207.531 58.235C207.531 58.1156 207.483 58.0011 207.399 57.9167C207.315 57.8324 207.2 57.7849 207.081 57.7849L204.421 57.7749C204.36 57.7737 204.3 57.7602 204.244 57.7351C204.189 57.71 204.139 57.674 204.098 57.6291C204.057 57.5842 204.025 57.5315 204.005 57.4741C203.985 57.4166 203.977 57.3557 203.981 57.295L204.071 56.0249C204.078 55.9109 204.129 55.804 204.213 55.726C204.296 55.6479 204.406 55.6047 204.521 55.605L212.981 55.6749C213.045 55.6756 213.109 55.6902 213.168 55.7177C213.226 55.7451 213.278 55.7849 213.32 55.8343C213.362 55.8836 213.392 55.9413 213.41 56.0036C213.427 56.0658 213.431 56.1311 213.421 56.1949L213.201 57.485C213.184 57.5918 213.129 57.689 213.047 57.7588C212.964 57.8286 212.859 57.8662 212.751 57.8649L210.411 57.8049C210.351 57.8036 210.291 57.8143 210.235 57.8363C210.18 57.8583 210.129 57.8912 210.086 57.9332C210.043 57.9751 210.009 58.0251 209.986 58.0804C209.963 58.1356 209.951 58.195 209.951 58.2549Z" fill="#07BFC1"/>
<path d="M219.141 67.1849C218.627 68.0316 217.854 68.3249 216.821 68.0649C216.427 67.9649 216.314 67.7283 216.481 67.3549L221.461 55.9249C221.507 55.8248 221.58 55.7398 221.672 55.6798C221.765 55.6199 221.872 55.5875 221.982 55.5864C222.093 55.5854 222.201 55.6157 222.294 55.6739C222.388 55.7321 222.463 55.8157 222.511 55.9149L227.901 67.455C228.041 67.7483 227.954 67.9416 227.641 68.0349C226.574 68.3616 225.734 68.1116 225.121 67.2849C224.901 66.9783 224.604 66.8249 224.231 66.8249L219.831 66.7949C219.524 66.7949 219.294 66.9249 219.141 67.1849ZM220.311 64.1349C220.292 64.1918 220.287 64.2521 220.296 64.3113C220.304 64.3705 220.326 64.4269 220.36 64.4762C220.394 64.5255 220.439 64.5663 220.491 64.5956C220.543 64.6248 220.601 64.6417 220.661 64.6449L223.651 64.8149C223.718 64.8192 223.785 64.806 223.845 64.7766C223.906 64.7473 223.958 64.7028 223.996 64.6474C224.034 64.592 224.058 64.5277 224.064 64.4607C224.07 64.3937 224.058 64.3263 224.031 64.2649L222.271 60.3249C222.239 60.252 222.186 60.1905 222.118 60.1487C222.05 60.1069 221.971 60.0869 221.892 60.0912C221.812 60.0956 221.736 60.1241 221.673 60.1731C221.611 60.222 221.564 60.2889 221.541 60.3649L220.311 64.1349Z" fill="#07BFC1"/>
<path d="M239.971 66.575L240.021 67.6749C240.023 67.7304 240.015 67.7859 239.995 67.838C239.976 67.8901 239.946 67.9377 239.908 67.9779C239.87 68.0181 239.823 68.0501 239.772 68.0719C239.721 68.0938 239.666 68.105 239.611 68.105L231.941 68.0849C231.887 68.0849 231.834 68.0744 231.784 68.0538C231.734 68.0331 231.689 68.0029 231.651 67.9649C231.613 67.9268 231.583 67.8816 231.562 67.8319C231.541 67.7821 231.531 67.7288 231.531 67.6749L231.621 55.945C231.622 55.8884 231.635 55.8327 231.658 55.7814C231.682 55.73 231.716 55.6841 231.758 55.6466C231.801 55.609 231.85 55.5806 231.904 55.5631C231.958 55.5456 232.014 55.5394 232.071 55.545L233.611 55.705C233.712 55.7149 233.807 55.7625 233.875 55.8383C233.944 55.9141 233.981 56.0128 233.981 56.1149V65.855C233.981 65.9097 233.992 65.9638 234.013 66.0142C234.034 66.0646 234.065 66.1102 234.104 66.1484C234.143 66.1867 234.19 66.2167 234.241 66.2367C234.292 66.2567 234.346 66.2663 234.401 66.265L239.551 66.1849C239.658 66.1822 239.762 66.2215 239.84 66.2944C239.919 66.3673 239.966 66.468 239.971 66.575Z" fill="#07BFC1"/>
</svg>
