<svg width="183" height="180" viewBox="0 0 183 180" fill="none" xmlns="http://www.w3.org/2000/svg">
<path d="M94.5954 11.5019L105.645 14.2919C105.712 14.3092 105.771 14.348 105.813 14.4023C105.855 14.4566 105.877 14.5233 105.877 14.5919C105.877 14.6605 105.855 14.7272 105.813 14.7815C105.771 14.8358 105.712 14.8746 105.645 14.8919L94.5954 17.6819C94.5426 17.6959 94.4944 17.7237 94.4558 17.7623C94.4171 17.8009 94.3894 17.8491 94.3754 17.9019L91.5854 28.9519C91.5681 29.0183 91.5293 29.0771 91.475 29.1191C91.4207 29.161 91.354 29.1838 91.2854 29.1838C91.2168 29.1838 91.1501 29.161 91.0958 29.1191C91.0415 29.0771 91.0027 29.0183 90.9854 28.9519L88.1954 17.9019C88.1814 17.8491 88.1536 17.8009 88.115 17.7623C88.0763 17.7237 88.0282 17.6959 87.9754 17.6819L76.9254 14.8919C76.859 14.8746 76.8002 14.8358 76.7582 14.7815C76.7163 14.7272 76.6935 14.6605 76.6935 14.5919C76.6935 14.5233 76.7163 14.4566 76.7582 14.4023C76.8002 14.348 76.859 14.3092 76.9254 14.2919L87.9754 11.5019C88.0282 11.4879 88.0763 11.4601 88.115 11.4215C88.1536 11.3829 88.1814 11.3347 88.1954 11.2819L90.9854 0.231895C91.0027 0.16549 91.0415 0.106701 91.0958 0.0647354C91.1501 0.0227694 91.2168 0 91.2854 0C91.354 0 91.4207 0.0227694 91.475 0.0647354C91.5293 0.106701 91.5681 0.16549 91.5854 0.231895L94.3754 11.2819C94.3894 11.3347 94.4171 11.3829 94.4558 11.4215C94.4944 11.4601 94.5426 11.4879 94.5954 11.5019Z" fill="#08177E"/>
<path d="M132.315 56.8319C140.241 56.8319 146.665 50.4072 146.665 42.4819C146.665 34.5566 140.241 28.1319 132.315 28.1319C124.39 28.1319 117.965 34.5566 117.965 42.4819C117.965 50.4072 124.39 56.8319 132.315 56.8319Z" fill="#07BFC1"/>
<path d="M108.455 31.6619L110.115 32.1119C110.171 32.1308 110.22 32.1676 110.253 32.2166C110.286 32.2657 110.302 32.3242 110.299 32.3833C110.295 32.4424 110.273 32.4988 110.234 32.5437C110.196 32.5886 110.143 32.6196 110.085 32.6319C108.185 32.9385 107.092 34.0519 106.805 35.9719C106.692 36.7652 106.512 36.7819 106.265 36.0219L105.595 33.9719C105.482 33.6452 105.265 33.4086 104.945 33.2619C104.445 33.0419 103.912 32.9119 103.345 32.8719C103.265 32.8637 103.19 32.8272 103.134 32.769C103.079 32.7107 103.045 32.6345 103.04 32.5539C103.036 32.4733 103.06 32.3937 103.108 32.3292C103.157 32.2647 103.227 32.2196 103.305 32.2019C104.852 31.9086 105.795 31.0152 106.135 29.5219C106.295 28.8152 106.505 28.8019 106.765 29.4819C107.025 30.1619 107.412 30.7819 107.925 31.3419C108.069 31.4986 108.253 31.6098 108.455 31.6619Z" fill="#07BFC1"/>
<path d="M43.2153 59.8319C51.1737 59.8319 57.6253 53.3803 57.6253 45.4219C57.6253 37.4635 51.1737 31.0119 43.2153 31.0119C35.2569 31.0119 28.8053 37.4635 28.8053 45.4219C28.8053 53.3803 35.2569 59.8319 43.2153 59.8319Z" fill="#07BFC1"/>
<path d="M76.5554 38.7319L81.8054 40.0919C81.8694 40.1088 81.9259 40.1465 81.9663 40.1989C82.0067 40.2514 82.0285 40.3157 82.0285 40.3819C82.0285 40.4481 82.0067 40.5124 81.9663 40.5648C81.9259 40.6173 81.8694 40.6549 81.8054 40.6719L76.5454 42.0119C76.4939 42.0265 76.4473 42.0546 76.4104 42.0933C76.3735 42.132 76.3476 42.1798 76.3354 42.2319L74.9754 47.4819C74.9584 47.5459 74.9208 47.6024 74.8683 47.6428C74.8159 47.6832 74.7516 47.7051 74.6854 47.7051C74.6192 47.7051 74.5548 47.6832 74.5024 47.6428C74.4499 47.6024 74.4123 47.5459 74.3954 47.4819L73.0554 42.2219C73.0407 42.1704 73.0126 42.1239 72.974 42.0869C72.9353 42.05 72.8874 42.0241 72.8354 42.0119L67.5854 40.6519C67.5214 40.6349 67.4648 40.5973 67.4244 40.5448C67.3841 40.4924 67.3622 40.4281 67.3622 40.3619C67.3622 40.2957 67.3841 40.2314 67.4244 40.1789C67.4648 40.1265 67.5214 40.0888 67.5854 40.0719L72.8454 38.7319C72.8968 38.7173 72.9434 38.6891 72.9803 38.6505C73.0172 38.6118 73.0432 38.5639 73.0554 38.5119L74.4154 33.2619C74.4323 33.1979 74.4699 33.1413 74.5224 33.101C74.5749 33.0606 74.6392 33.0387 74.7054 33.0387C74.7716 33.0387 74.8359 33.0606 74.8883 33.101C74.9408 33.1413 74.9784 33.1979 74.9954 33.2619L76.3354 38.5219C76.35 38.5733 76.3781 38.6199 76.4168 38.6568C76.4555 38.6938 76.5033 38.7197 76.5554 38.7319Z" fill="#07BFC1"/>
<path d="M144.095 76.7119C145.042 76.6652 145.082 76.4452 144.215 76.0519C139.769 74.0386 135.422 71.5519 131.175 68.5919C129.529 67.4519 128.422 65.9819 127.855 64.1819C127.82 64.07 127.812 63.9512 127.833 63.8356C127.854 63.7199 127.903 63.6109 127.975 63.5176C128.048 63.4244 128.142 63.3498 128.25 63.3C128.358 63.2503 128.477 63.2269 128.595 63.2319C133.389 63.4986 138.139 63.1519 142.845 62.1919C151.185 60.4919 166.085 49.4519 174.105 59.3319C178.935 65.2819 177.375 77.9819 174.255 84.1319C172.329 87.9452 168.902 93.3219 163.975 100.262C160.705 104.862 158.695 109.342 156.665 114.342C156.65 114.376 156.628 114.405 156.599 114.429C156.571 114.452 156.537 114.469 156.502 114.477C156.467 114.484 156.43 114.484 156.396 114.474C156.362 114.464 156.331 114.447 156.305 114.422C142.705 101.032 124.175 91.2419 105.935 85.9419C104.609 85.5619 103.495 84.9086 102.595 83.9819C96.9654 78.1819 84.9754 60.3019 95.5154 52.9019C101.735 48.5419 109.155 54.3019 113.235 58.8119C117.095 63.0919 121.075 67.7919 125.695 70.7319C130.945 74.0919 137.925 77.0019 144.095 76.7119Z" fill="#07BFC1"/>
<path d="M32.4453 80.2319C36.972 80.3719 41.4153 79.7952 45.7753 78.5019C60.2553 74.2019 61.5853 56.1519 78.3453 53.5619C84.9953 52.5319 88.2153 55.6519 85.2053 62.0719C81.6586 69.6586 78.522 77.4152 75.7953 85.3419C75.6886 85.6686 75.4686 85.8786 75.1353 85.9719C67.3653 88.2319 62.1853 90.4919 54.0053 94.1719C48.6853 96.5719 43.8853 99.5119 38.9153 102.492C33.4153 105.782 27.5753 110.402 23.2353 115.132C23.1938 115.177 23.1413 115.21 23.083 115.228C23.0247 115.247 22.9627 115.249 22.903 115.236C22.8434 115.223 22.7882 115.194 22.743 115.153C22.6978 115.112 22.6641 115.06 22.6453 115.002C19.3586 104.829 15.262 94.9952 10.3553 85.5019C9.33529 83.5219 8.60529 81.4019 7.60529 79.5419C4.40529 73.5619 0.485295 66.4819 0.0052949 59.6419C-0.0163781 59.3081 0.0286261 58.9733 0.137665 58.6573C0.246704 58.3412 0.41758 58.0503 0.640244 57.8015C0.862907 57.5528 1.13286 57.3513 1.43425 57.2088C1.73564 57.0663 2.0624 56.9858 2.39529 56.9719C6.70529 56.8019 10.2753 59.0219 14.1453 60.4519C25.8853 64.7719 38.2553 65.8119 50.6853 63.9519C50.759 63.9416 50.8342 63.9501 50.9037 63.9768C50.9732 64.0034 51.0349 64.0473 51.0828 64.1042C51.1308 64.1612 51.1635 64.2294 51.1779 64.3024C51.1924 64.3755 51.188 64.451 51.1653 64.5219C48.6153 72.6019 40.0853 77.6719 32.4053 79.9219C31.7653 80.1086 31.7786 80.2119 32.4453 80.2319Z" fill="#07BFC1"/>
<path d="M107.255 94.1819C124.305 98.9019 141.475 106.942 155.205 117.942C155.472 118.162 155.575 118.442 155.515 118.782C153.865 128.162 156.795 137.172 155.445 146.372C155.372 146.879 155.115 147.34 154.724 147.669C154.332 147.997 153.835 148.169 153.325 148.152C144.925 147.892 145.055 124.942 137.625 120.582C133.535 118.182 130.145 121.062 127.835 124.622C124.322 130.029 122.045 134.375 121.005 137.662C120.065 140.642 118.592 143.329 116.585 145.722C115.005 147.602 113.045 147.242 112.245 144.912C111.779 143.545 111.555 142.405 111.575 141.492C111.975 123.822 111.495 110.312 106.775 94.6819C106.756 94.6144 106.754 94.543 106.771 94.4747C106.788 94.4065 106.822 94.3439 106.871 94.2932C106.92 94.2425 106.981 94.2056 107.048 94.186C107.116 94.1665 107.187 94.165 107.255 94.1819Z" fill="#08177E"/>
<path d="M37.2953 127.082C35.622 132.069 33.972 137.052 32.3453 142.032C31.5053 144.619 30.1086 146.745 28.1553 148.412C27.9082 148.624 27.6212 148.784 27.3111 148.884C27.0011 148.983 26.6743 149.019 26.35 148.99C26.0257 148.962 25.7104 148.868 25.4228 148.715C25.1352 148.563 24.8811 148.354 24.6753 148.102C24.002 147.275 23.6753 145.992 23.6953 144.252C23.7753 135.942 25.2653 127.722 23.9853 119.452C23.932 119.132 24.0286 118.869 24.2753 118.662C37.8953 107.292 55.3853 99.8419 72.2153 94.7519C72.2861 94.7308 72.3614 94.7292 72.433 94.7473C72.5046 94.7655 72.57 94.8026 72.6223 94.8549C72.6746 94.9072 72.7117 94.9726 72.7299 95.0442C72.748 95.1158 72.7464 95.1911 72.7253 95.2619C70.592 102.195 69.1387 109.252 68.3653 116.432C67.5853 123.572 67.8153 131.972 67.8353 139.722C67.8453 142.422 67.8853 144.702 66.3253 146.892C66.1593 147.126 65.9409 147.319 65.6875 147.455C65.4341 147.59 65.1526 147.665 64.8653 147.672C64.5781 147.68 64.293 147.621 64.0326 147.499C63.7722 147.378 63.5438 147.197 63.3653 146.972C59.0953 141.622 57.2853 135.092 54.3353 129.012C52.7853 125.812 49.6053 119.952 45.9253 119.062C41.3953 117.972 38.5953 123.212 37.2953 127.082Z" fill="#08177E"/>
<path d="M181.705 178.372C181.945 178.552 182.082 178.755 182.115 178.982C182.122 179.019 182.119 179.058 182.105 179.093C182.092 179.129 182.069 179.16 182.039 179.184C182.009 179.207 181.974 179.222 181.936 179.227C181.898 179.232 181.86 179.227 181.825 179.212C171.775 174.872 161.985 172.322 150.675 169.772C120.025 162.862 86.8453 162.512 55.7353 165.992C42.0753 167.512 30.1153 170.332 17.6153 173.792C12.382 175.239 7.60531 176.895 3.28531 178.762C1.21864 179.655 1.07864 179.419 2.86531 178.052C15.2053 168.612 30.5453 162.852 46.3253 158.892C52.6453 157.302 60.3153 156.142 67.0853 155.372C86.7853 153.132 106.389 153.555 125.895 156.642C145.505 159.742 165.685 166.302 181.705 178.372Z" fill="#07BFC1"/>
</svg>
