<svg width="241" height="255" viewBox="0 0 241 255" fill="none" xmlns="http://www.w3.org/2000/svg">
<path d="M123.75 11.51L134.8 14.3C134.866 14.3173 134.925 14.3561 134.967 14.4104C135.009 14.4647 135.032 14.5314 135.032 14.6C135.032 14.6686 135.009 14.7353 134.967 14.7896C134.925 14.8439 134.866 14.8827 134.8 14.9L123.75 17.69C123.697 17.704 123.649 17.7318 123.61 17.7704C123.572 17.809 123.544 17.8572 123.53 17.91L120.74 28.96C120.723 29.0264 120.684 29.0852 120.63 29.1272C120.575 29.1691 120.509 29.1919 120.44 29.1919C120.371 29.1919 120.305 29.1691 120.25 29.1272C120.196 29.0852 120.157 29.0264 120.14 28.96L117.35 17.91C117.336 17.8572 117.308 17.809 117.27 17.7704C117.231 17.7318 117.183 17.704 117.13 17.69L106.08 14.9C106.014 14.8827 105.955 14.8439 105.913 14.7896C105.871 14.7353 105.848 14.6686 105.848 14.6C105.848 14.5314 105.871 14.4647 105.913 14.4104C105.955 14.3561 106.014 14.3173 106.08 14.3L117.13 11.51C117.183 11.496 117.231 11.4682 117.27 11.4296C117.308 11.391 117.336 11.3428 117.35 11.29L120.14 0.239998C120.157 0.173592 120.196 0.114804 120.25 0.0728378C120.305 0.0308719 120.371 0.00810242 120.44 0.00810242C120.509 0.00810242 120.575 0.0308719 120.63 0.0728378C120.684 0.114804 120.723 0.173592 120.74 0.239998L123.53 11.29C123.544 11.3428 123.572 11.391 123.61 11.4296C123.649 11.4682 123.697 11.496 123.75 11.51Z" fill="#08177E"/>
<path d="M161.47 56.84C169.395 56.84 175.82 50.4153 175.82 42.49C175.82 34.5647 169.395 28.14 161.47 28.14C153.545 28.14 147.12 34.5647 147.12 42.49C147.12 50.4153 153.545 56.84 161.47 56.84Z" fill="#07BFC1"/>
<path d="M137.61 31.67L139.27 32.12C139.326 32.1389 139.374 32.1757 139.408 32.2247C139.441 32.2738 139.457 32.3323 139.453 32.3914C139.45 32.4505 139.427 32.5069 139.389 32.5518C139.35 32.5967 139.298 32.6277 139.24 32.64C137.34 32.9467 136.247 34.06 135.96 35.98C135.847 36.7733 135.667 36.79 135.42 36.03L134.75 33.98C134.637 33.6533 134.42 33.4167 134.1 33.27C133.6 33.05 133.067 32.92 132.5 32.88C132.42 32.8718 132.345 32.8353 132.289 32.7771C132.233 32.7188 132.2 32.6426 132.195 32.562C132.19 32.4814 132.214 32.4018 132.263 32.3373C132.311 32.2728 132.381 32.2277 132.46 32.21C134.007 31.9167 134.95 31.0233 135.29 29.53C135.45 28.8233 135.66 28.81 135.92 29.49C136.18 30.17 136.567 30.79 137.08 31.35C137.224 31.5068 137.408 31.6179 137.61 31.67Z" fill="#07BFC1"/>
<path d="M72.3699 59.84C80.3284 59.84 86.78 53.3884 86.78 45.43C86.78 37.4716 80.3284 31.02 72.3699 31.02C64.4115 31.02 57.96 37.4716 57.96 45.43C57.96 53.3884 64.4115 59.84 72.3699 59.84Z" fill="#07BFC1"/>
<path d="M105.71 38.74L110.96 40.1C111.024 40.117 111.081 40.1546 111.121 40.207C111.161 40.2595 111.183 40.3238 111.183 40.39C111.183 40.4562 111.161 40.5205 111.121 40.573C111.081 40.6254 111.024 40.663 110.96 40.68L105.7 42.02C105.649 42.0346 105.602 42.0627 105.565 42.1014C105.528 42.1401 105.502 42.1879 105.49 42.24L104.13 47.49C104.113 47.554 104.075 47.6106 104.023 47.6509C103.971 47.6913 103.906 47.7132 103.84 47.7132C103.774 47.7132 103.71 47.6913 103.657 47.6509C103.605 47.6106 103.567 47.554 103.55 47.49L102.21 42.23C102.195 42.1786 102.167 42.132 102.129 42.095C102.09 42.0581 102.042 42.0322 101.99 42.02L96.74 40.66C96.6761 40.6431 96.6195 40.6054 96.5791 40.553C96.5387 40.5005 96.5168 40.4362 96.5168 40.37C96.5168 40.3038 96.5387 40.2395 96.5791 40.187C96.6195 40.1346 96.6761 40.0969 96.74 40.08L102 38.74C102.051 38.7254 102.098 38.6973 102.135 38.6586C102.172 38.6199 102.198 38.5721 102.21 38.52L103.57 33.27C103.587 33.206 103.625 33.1494 103.677 33.1091C103.73 33.0687 103.794 33.0468 103.86 33.0468C103.926 33.0468 103.991 33.0687 104.043 33.1091C104.095 33.1494 104.133 33.206 104.15 33.27L105.49 38.53C105.505 38.5814 105.533 38.628 105.571 38.6649C105.61 38.7019 105.658 38.7278 105.71 38.74Z" fill="#07BFC1"/>
<path d="M173.25 76.72C174.197 76.6733 174.237 76.4533 173.37 76.06C168.923 74.0467 164.577 71.56 160.33 68.6C158.683 67.46 157.577 65.99 157.01 64.19C156.975 64.0781 156.967 63.9593 156.988 63.8436C157.009 63.728 157.058 63.6189 157.13 63.5257C157.203 63.4325 157.297 63.3579 157.405 63.3081C157.513 63.2584 157.631 63.235 157.75 63.24C162.543 63.5067 167.293 63.16 172 62.2C180.34 60.5 195.24 49.46 203.26 59.34C208.09 65.29 206.53 77.99 203.41 84.14C201.483 87.9533 198.057 93.33 193.13 100.27C189.86 104.87 187.85 109.35 185.82 114.35C185.805 114.384 185.782 114.414 185.754 114.437C185.725 114.46 185.692 114.477 185.657 114.485C185.621 114.492 185.585 114.492 185.551 114.482C185.517 114.473 185.485 114.455 185.46 114.43C171.86 101.04 153.33 91.25 135.09 85.95C133.763 85.57 132.65 84.9167 131.75 83.99C126.12 78.19 114.13 60.31 124.67 52.91C130.89 48.55 138.31 54.31 142.39 58.82C146.25 63.1 150.23 67.8 154.85 70.74C160.1 74.1 167.08 77.01 173.25 76.72Z" fill="#07BFC1"/>
<path d="M61.6 80.24C66.1266 80.38 70.5699 79.8033 74.9299 78.51C89.4099 74.21 90.74 56.16 107.5 53.57C114.15 52.54 117.37 55.66 114.36 62.08C110.813 69.6667 107.677 77.4233 104.95 85.35C104.843 85.6767 104.623 85.8867 104.29 85.98C96.5199 88.24 91.34 90.5 83.16 94.18C77.84 96.58 73.04 99.52 68.07 102.5C62.57 105.79 56.73 110.41 52.39 115.14C52.3485 115.185 52.296 115.218 52.2377 115.236C52.1794 115.255 52.1173 115.257 52.0577 115.244C51.998 115.231 51.9428 115.202 51.8976 115.161C51.8524 115.12 51.8187 115.068 51.8 115.01C48.5133 104.837 44.4166 95.0033 39.5099 85.51C38.4899 83.53 37.7599 81.41 36.7599 79.55C33.5599 73.57 29.64 66.49 29.16 59.65C29.1383 59.3162 29.1833 58.9814 29.2923 58.6654C29.4014 58.3493 29.5722 58.0584 29.7949 57.8096C30.0176 57.5609 30.2875 57.3593 30.5889 57.2169C30.8903 57.0744 31.2171 56.9939 31.55 56.98C35.86 56.81 39.43 59.03 43.3 60.46C55.04 64.78 67.41 65.82 79.84 63.96C79.9137 63.9497 79.9889 63.9582 80.0584 63.9849C80.1279 64.0115 80.1895 64.0554 80.2375 64.1123C80.2854 64.1693 80.3182 64.2375 80.3326 64.3105C80.347 64.3836 80.3427 64.4591 80.32 64.53C77.77 72.61 69.24 77.68 61.56 79.93C60.92 80.1167 60.9333 80.22 61.6 80.24Z" fill="#07BFC1"/>
<path d="M136.41 94.19C153.46 98.91 170.63 106.95 184.36 117.95C184.627 118.17 184.73 118.45 184.67 118.79C183.02 128.17 185.95 137.18 184.6 146.38C184.526 146.887 184.269 147.348 183.878 147.677C183.487 148.005 182.989 148.177 182.48 148.16C174.08 147.9 174.21 124.95 166.78 120.59C162.69 118.19 159.3 121.07 156.99 124.63C153.477 130.037 151.2 134.383 150.16 137.67C149.22 140.65 147.747 143.337 145.74 145.73C144.16 147.61 142.2 147.25 141.4 144.92C140.933 143.553 140.71 142.413 140.73 141.5C141.13 123.83 140.65 110.32 135.93 94.69C135.91 94.6225 135.909 94.5511 135.926 94.4829C135.942 94.4146 135.977 94.352 136.026 94.3013C136.074 94.2506 136.135 94.2137 136.203 94.1941C136.27 94.1746 136.342 94.1732 136.41 94.19Z" fill="#08177E"/>
<path d="M66.45 127.09C64.7766 132.077 63.1266 137.06 61.5 142.04C60.66 144.627 59.2633 146.753 57.31 148.42C57.0629 148.632 56.7759 148.792 56.4658 148.892C56.1557 148.991 55.8289 149.027 55.5046 148.999C55.1803 148.97 54.8651 148.876 54.5775 148.724C54.2899 148.571 54.0357 148.362 53.83 148.11C53.1566 147.283 52.83 146 52.85 144.26C52.93 135.95 54.42 127.73 53.14 119.46C53.0866 119.14 53.1833 118.877 53.43 118.67C67.05 107.3 84.54 99.85 101.37 94.76C101.441 94.7389 101.516 94.7373 101.588 94.7555C101.659 94.7736 101.725 94.8108 101.777 94.863C101.829 94.9153 101.866 94.9807 101.885 95.0523C101.903 95.124 101.901 95.1992 101.88 95.27C99.7467 102.203 98.2933 109.26 97.52 116.44C96.74 123.58 96.97 131.98 96.99 139.73C97 142.43 97.04 144.71 95.48 146.9C95.314 147.135 95.0956 147.327 94.8422 147.463C94.5887 147.598 94.3073 147.673 94.02 147.68C93.7327 147.688 93.4476 147.629 93.1873 147.507C92.9269 147.386 92.6984 147.205 92.52 146.98C88.25 141.63 86.44 135.1 83.49 129.02C81.94 125.82 78.76 119.96 75.08 119.07C70.55 117.98 67.75 123.22 66.45 127.09Z" fill="#08177E"/>
<path d="M210.86 178.38C211.1 178.56 211.237 178.763 211.27 178.99C211.277 179.027 211.273 179.066 211.26 179.101C211.246 179.137 211.224 179.168 211.194 179.192C211.164 179.215 211.128 179.23 211.091 179.235C211.053 179.24 211.015 179.235 210.98 179.22C200.93 174.88 191.14 172.33 179.83 169.78C149.18 162.87 116 162.52 84.89 166C71.23 167.52 59.27 170.34 46.77 173.8C41.5366 175.247 36.76 176.903 32.44 178.77C30.3733 179.663 30.2333 179.427 32.02 178.06C44.36 168.62 59.7 162.86 75.48 158.9C81.8 157.31 89.47 156.15 96.24 155.38C115.94 153.14 135.543 153.563 155.05 156.65C174.66 159.75 194.84 166.31 210.86 178.38Z" fill="#07BFC1"/>
<path d="M14.67 226.11L13.31 229.54C12.9767 230.387 12.3533 230.81 11.44 230.81L5.27002 230.8C4.30335 230.8 4.01668 230.36 4.41002 229.48L23.09 187.64C23.242 187.303 23.488 187.017 23.7984 186.817C24.1088 186.616 24.4705 186.51 24.84 186.51C25.2095 186.51 25.5712 186.616 25.8816 186.817C26.192 187.017 26.438 187.303 26.59 187.64L45.43 229.8C45.4814 229.917 45.5029 230.045 45.4927 230.172C45.4824 230.299 45.4407 230.422 45.3713 230.529C45.3019 230.636 45.207 230.724 45.095 230.785C44.9831 230.847 44.8576 230.879 44.73 230.88L37.94 230.86C37.7457 230.86 37.555 230.803 37.3902 230.697C37.2255 230.591 37.0936 230.439 37.01 230.26L35.05 226.01C34.9873 225.876 34.8882 225.762 34.7642 225.682C34.6402 225.603 34.4965 225.56 34.35 225.56L15.43 225.58C15.0567 225.58 14.8033 225.757 14.67 226.11ZM17.9 218.22C17.8788 218.271 17.8704 218.327 17.8757 218.382C17.881 218.438 17.8998 218.491 17.9303 218.537C17.9609 218.584 18.0024 218.622 18.0512 218.648C18.0999 218.675 18.1545 218.689 18.21 218.69L31.61 218.66C31.6643 218.659 31.7175 218.644 31.7652 218.618C31.8128 218.592 31.8535 218.555 31.8839 218.51C31.9142 218.465 31.9334 218.413 31.9396 218.359C31.9459 218.305 31.9392 218.251 31.92 218.2L25.2 201.82C25.1746 201.757 25.131 201.704 25.0749 201.666C25.0188 201.628 24.9526 201.608 24.885 201.608C24.8174 201.608 24.7513 201.628 24.6952 201.666C24.639 201.704 24.5955 201.757 24.57 201.82L17.9 218.22Z" fill="#08177E"/>
<path d="M61.73 196.32C55.67 199.34 52.64 205.72 54.21 212.28C56.71 222.73 68.7 226.36 77.21 220.51C78.05 219.93 78.7567 220.06 79.33 220.9L82.19 225.07C82.77 225.91 82.6366 226.62 81.79 227.2C68.03 236.67 48.99 229.73 45.97 212.85C45.0567 207.763 45.81 202.897 48.23 198.25C54.46 186.27 70.82 183.09 82.02 191.03C82.7067 191.517 82.8167 192.11 82.35 192.81L79.35 197.31C79.1483 197.612 78.8357 197.822 78.4801 197.895C78.1244 197.968 77.7543 197.898 77.45 197.7C72.13 194.2 66.89 193.74 61.73 196.32Z" fill="#08177E"/>
<path d="M129.66 209.04C129.66 212.013 129.074 214.957 127.937 217.704C126.799 220.451 125.131 222.947 123.029 225.049C120.927 227.151 118.431 228.819 115.684 229.957C112.937 231.094 109.993 231.68 107.02 231.68C101.016 231.68 95.2569 229.295 91.0111 225.049C86.7653 220.803 84.38 215.045 84.38 209.04C84.38 203.036 86.7653 197.277 91.0111 193.031C95.2569 188.785 101.016 186.4 107.02 186.4C109.993 186.4 112.937 186.986 115.684 188.123C118.431 189.261 120.927 190.929 123.029 193.031C125.131 195.133 126.799 197.629 127.937 200.376C129.074 203.123 129.66 206.067 129.66 209.04ZM121.48 209.04C121.48 207.141 121.106 205.261 120.379 203.506C119.653 201.752 118.588 200.158 117.245 198.815C115.902 197.473 114.308 196.407 112.554 195.681C110.799 194.954 108.919 194.58 107.02 194.58C105.121 194.58 103.241 194.954 101.486 195.681C99.732 196.407 98.138 197.473 96.7952 198.815C95.4525 200.158 94.3874 201.752 93.6607 203.506C92.934 205.261 92.56 207.141 92.56 209.04C92.56 212.875 94.0835 216.553 96.7952 219.265C99.507 221.977 103.185 223.5 107.02 223.5C110.855 223.5 114.533 221.977 117.245 219.265C119.957 216.553 121.48 212.875 121.48 209.04Z" fill="#08177E"/>
<path d="M144.51 194.78C141.69 195.65 140.52 198.43 141.91 201C143.43 203.79 150.94 205.9 153.9 206.55C155.593 206.923 157.81 208.317 160.55 210.73C163.543 213.35 164.617 216.687 163.77 220.74C160.83 234.83 138.63 234.24 131.8 224.07C131.641 223.832 131.57 223.548 131.597 223.263C131.625 222.979 131.749 222.713 131.95 222.51L135.7 218.67C135.808 218.561 135.936 218.475 136.078 218.417C136.219 218.359 136.371 218.33 136.524 218.332C136.677 218.334 136.828 218.366 136.968 218.428C137.109 218.489 137.235 218.579 137.34 218.69C141.34 222.96 147.52 225.04 152.95 222.72C156.95 221.01 156.26 215.62 152.52 214.17C146.57 211.88 139.5 210.09 135.16 205.33C132.5 202.42 132.91 195.72 134.98 192.47C140.03 184.53 154.25 185.07 160.62 191.24C160.923 191.533 161.104 191.931 161.124 192.353C161.145 192.775 161.004 193.189 160.73 193.51L157.63 197.17C157.4 197.439 157.079 197.614 156.728 197.66C156.377 197.707 156.021 197.621 155.73 197.42C152.18 194.95 148.96 193.41 144.51 194.78Z" fill="#08177E"/>
<path d="M226.23 225.57L207.96 225.63C207.652 225.63 207.351 225.724 207.097 225.899C206.844 226.074 206.649 226.322 206.54 226.61L205.35 229.8C205.24 230.088 205.046 230.336 204.792 230.511C204.539 230.686 204.238 230.78 203.93 230.78L198.42 230.81C198.165 230.812 197.914 230.75 197.69 230.63C197.466 230.51 197.275 230.335 197.136 230.122C196.996 229.909 196.913 229.665 196.893 229.411C196.872 229.157 196.916 228.902 197.02 228.67L215.7 186.84C215.819 186.571 216.014 186.342 216.261 186.181C216.507 186.021 216.795 185.935 217.09 185.935C217.384 185.935 217.672 186.021 217.919 186.181C218.166 186.342 218.361 186.571 218.48 186.84L237.23 228.7C237.332 228.929 237.376 229.18 237.358 229.431C237.34 229.681 237.26 229.924 237.125 230.136C236.99 230.348 236.805 230.523 236.586 230.646C236.367 230.769 236.121 230.835 235.87 230.84L230.54 230.91C230.238 230.914 229.941 230.827 229.688 230.662C229.435 230.496 229.237 230.259 229.12 229.98L227.64 226.5C227.523 226.223 227.327 225.987 227.076 225.821C226.825 225.656 226.531 225.568 226.23 225.57ZM210.26 218.11C210.236 218.172 210.227 218.239 210.234 218.305C210.241 218.372 210.265 218.435 210.302 218.49C210.34 218.545 210.39 218.591 210.449 218.622C210.508 218.653 210.573 218.67 210.64 218.67H223.64C223.707 218.67 223.772 218.653 223.831 218.622C223.89 218.591 223.94 218.545 223.978 218.49C224.015 218.435 224.038 218.372 224.046 218.305C224.053 218.239 224.044 218.172 224.02 218.11L217.52 201.83C217.489 201.754 217.437 201.69 217.369 201.644C217.301 201.598 217.222 201.574 217.14 201.574C217.058 201.574 216.979 201.598 216.911 201.644C216.843 201.69 216.791 201.754 216.76 201.83L210.26 218.11Z" fill="#08177E"/>
<path d="M185 195.12L184.99 229.95C184.99 230.175 184.9 230.392 184.741 230.551C184.582 230.71 184.365 230.8 184.14 230.8L177.75 230.81C177.638 230.81 177.528 230.788 177.425 230.745C177.322 230.703 177.228 230.64 177.149 230.561C177.07 230.482 177.007 230.388 176.965 230.285C176.922 230.182 176.9 230.072 176.9 229.96L176.89 195.13C176.89 194.905 176.8 194.688 176.641 194.529C176.482 194.37 176.265 194.28 176.04 194.28L165.77 194.26C165.548 194.257 165.336 194.168 165.179 194.011C165.022 193.854 164.933 193.642 164.93 193.42L164.89 188.05C164.889 187.937 164.91 187.824 164.953 187.719C164.995 187.614 165.059 187.519 165.139 187.439C165.219 187.359 165.314 187.295 165.419 187.253C165.524 187.21 165.637 187.189 165.75 187.19L196.42 187.2C196.645 187.2 196.862 187.29 197.021 187.449C197.18 187.608 197.27 187.825 197.27 188.05L197.29 193.42C197.29 193.645 197.2 193.862 197.041 194.021C196.882 194.18 196.665 194.27 196.44 194.27H185.85C185.625 194.27 185.408 194.36 185.249 194.519C185.089 194.678 185 194.895 185 195.12Z" fill="#08177E"/>
<path d="M10.32 244.7C0.949981 239.91 2.39998 255.89 9.81998 251.42C10.4666 251.027 10.9766 251.16 11.35 251.82L11.49 252.07C11.5608 252.194 11.6046 252.332 11.6186 252.475C11.6326 252.617 11.6164 252.761 11.5711 252.897C11.5258 253.033 11.4525 253.158 11.3558 253.263C11.2591 253.369 11.1413 253.453 11.01 253.51C3.95997 256.55 -2.60003 248.68 3.21997 243.21C5.60664 240.963 8.32664 240.733 11.38 242.52C11.7266 242.727 11.8166 243.01 11.65 243.37L11.18 244.4C11.1447 244.477 11.0941 244.547 11.0312 244.604C10.9683 244.662 10.8945 244.706 10.8141 244.734C10.7337 244.762 10.6485 244.773 10.5636 244.768C10.4786 244.762 10.3958 244.739 10.32 244.7Z" fill="#07BFC1"/>
<path d="M28.38 247.857C28.3829 248.701 28.2138 249.538 27.8824 250.319C27.5509 251.101 27.0635 251.811 26.4481 252.41C25.8327 253.01 25.1012 253.486 24.2955 253.812C23.4898 254.138 22.6257 254.307 21.7524 254.31C20.8791 254.313 20.0138 254.15 19.2058 253.829C18.3979 253.509 17.6632 253.038 17.0436 252.443C16.424 251.848 15.9317 251.141 15.5948 250.362C15.2579 249.583 15.0829 248.748 15.08 247.903C15.077 247.059 15.2461 246.222 15.5776 245.441C15.9091 244.659 16.3964 243.949 17.0119 243.35C17.6273 242.75 18.3587 242.274 19.1644 241.948C19.9701 241.622 20.8343 241.453 21.7076 241.45C22.5809 241.447 23.4462 241.61 24.2541 241.931C25.0621 242.251 25.7968 242.722 26.4164 243.317C27.036 243.912 27.5283 244.619 27.8652 245.398C28.2021 246.177 28.3771 247.012 28.38 247.857ZM25.91 247.93C25.91 246.827 25.4717 245.769 24.6916 244.988C23.9114 244.208 22.8533 243.77 21.75 243.77C20.6467 243.77 19.5886 244.208 18.8084 244.988C18.0283 245.769 17.59 246.827 17.59 247.93C17.59 249.033 18.0283 250.091 18.8084 250.872C19.5886 251.652 20.6467 252.09 21.75 252.09C22.8533 252.09 23.9114 251.652 24.6916 250.872C25.4717 250.091 25.91 249.033 25.91 247.93Z" fill="#07BFC1"/>
<path d="M51.11 245.94C53.2 246.73 57.85 248.04 56.98 251.24C55.96 255 51.15 254.63 48.44 253.28C47.7467 252.933 47.54 252.35 47.82 251.53C47.8888 251.327 48.0084 251.146 48.1674 251.002C48.3264 250.859 48.5196 250.759 48.7283 250.712C48.9371 250.665 49.1544 250.672 49.3596 250.733C49.5648 250.794 49.7508 250.907 49.9 251.06C51.02 252.22 52.32 252.51 53.8 251.93C54.0699 251.824 54.3 251.636 54.4586 251.393C54.6173 251.15 54.6966 250.864 54.6856 250.575C54.6746 250.285 54.5739 250.005 54.3973 249.775C54.2208 249.545 53.9771 249.376 53.7 249.29C42.78 245.96 50.43 238.47 55.78 242.62C55.8634 242.685 55.9327 242.766 55.9836 242.858C56.0345 242.951 56.0661 243.053 56.0764 243.158C56.0867 243.264 56.0754 243.371 56.0434 243.473C56.0114 243.574 55.9592 243.669 55.89 243.75L55.68 243.99C55.2267 244.517 54.6967 244.607 54.09 244.26C53.17 243.733 52.2667 243.593 51.38 243.84C50.74 244.013 50.46 244.47 50.54 245.21C50.5578 245.373 50.6205 245.527 50.7212 245.656C50.8219 245.785 50.9566 245.883 51.11 245.94Z" fill="#07BFC1"/>
<path d="M41.1599 248.67L41.0599 242.49C41.0533 241.857 41.3699 241.533 42.0099 241.52L42.7499 241.5C43.2566 241.493 43.5133 241.743 43.5199 242.25L43.5999 253.26C43.6066 254.093 43.2633 254.283 42.57 253.83C39.84 252.04 37.7399 249 35.2399 246.79C34.9066 246.49 34.7366 246.567 34.7299 247.02L34.6899 253.29C34.6899 253.77 34.4466 254.017 33.96 254.03L32.7799 254.06C32.4199 254.073 32.2366 253.897 32.2299 253.53L32.1499 241.96C32.1488 241.868 32.1747 241.778 32.2244 241.7C32.2741 241.623 32.3454 241.562 32.4295 241.524C32.5136 241.487 32.6068 241.475 32.6976 241.491C32.7883 241.506 32.8726 241.547 32.9399 241.61L40.7399 248.86C41.0266 249.12 41.1666 249.057 41.1599 248.67Z" fill="#07BFC1"/>
<path d="M66.01 252.11L67.02 252.02C67.5916 251.969 68.1245 251.709 68.5172 251.291C68.9099 250.872 69.1351 250.324 69.15 249.75L69.34 242.35C69.3446 242.14 69.429 241.938 69.5768 241.785C69.7246 241.632 69.9253 241.537 70.14 241.52L70.54 241.48C71.0467 241.44 71.31 241.673 71.33 242.18C71.48 246.37 72.29 252.7 68.57 253.85C59.64 256.6 61.1 247.54 60.94 242.45C60.9267 241.897 61.1967 241.603 61.75 241.57L62.18 241.55C62.7933 241.517 63.1033 241.81 63.11 242.43L63.15 249.51C63.1633 251.41 64.1167 252.277 66.01 252.11Z" fill="#07BFC1"/>
<path d="M78.66 252.18L83.85 252.12C83.9587 252.12 84.063 252.163 84.1399 252.24C84.2168 252.317 84.26 252.421 84.26 252.53V253.63C84.26 253.739 84.2168 253.843 84.1399 253.92C84.063 253.997 83.9587 254.04 83.85 254.04L76.27 254.02C76.1613 254.02 76.057 253.977 75.9801 253.9C75.9032 253.823 75.86 253.719 75.86 253.61L75.89 241.94C75.89 241.833 75.9318 241.73 76.0065 241.654C76.0813 241.577 76.183 241.533 76.29 241.53L77.83 241.52C77.8847 241.519 77.9391 241.528 77.99 241.548C78.0409 241.568 78.0873 241.598 78.1264 241.637C78.1655 241.675 78.1966 241.72 78.2178 241.771C78.2391 241.821 78.25 241.875 78.25 241.93V251.77C78.25 251.824 78.2606 251.877 78.2812 251.927C78.3018 251.977 78.332 252.022 78.3701 252.06C78.4081 252.098 78.4533 252.128 78.5031 252.149C78.5528 252.169 78.6061 252.18 78.66 252.18Z" fill="#07BFC1"/>
<path d="M92.57 244.21L92.54 253.55C92.5383 253.659 92.4967 253.764 92.4231 253.845C92.3494 253.926 92.2488 253.978 92.14 253.99L90.56 254.16C90.4969 254.167 90.4329 254.161 90.3724 254.141C90.3119 254.122 90.2562 254.09 90.209 254.047C90.1617 254.005 90.1241 253.953 90.0984 253.895C90.0727 253.836 90.0596 253.774 90.06 253.71L90.14 244.19C90.14 244.13 90.1281 244.071 90.1048 244.015C90.0816 243.96 90.0476 243.91 90.0047 243.868C89.9619 243.826 89.9111 243.793 89.8553 243.771C89.7996 243.749 89.7399 243.739 89.68 243.74L86.99 243.76C86.9292 243.761 86.8688 243.75 86.8124 243.728C86.756 243.705 86.7047 243.671 86.6617 243.628C86.6187 243.585 86.5849 243.534 86.5622 243.478C86.5396 243.421 86.5287 243.361 86.53 243.3L86.56 241.98C86.5626 241.862 86.6112 241.75 86.6953 241.668C86.7794 241.586 86.8924 241.54 87.01 241.54L95.49 241.6C95.6026 241.602 95.7103 241.647 95.7917 241.724C95.8732 241.802 95.9225 241.908 95.93 242.02L96 243.25C96.0041 243.312 95.9955 243.373 95.9748 243.431C95.954 243.49 95.9215 243.543 95.8793 243.588C95.8371 243.633 95.7861 243.669 95.7295 243.693C95.6728 243.718 95.6117 243.73 95.55 243.73L93.01 243.76C92.8924 243.763 92.7805 243.811 92.6983 243.895C92.616 243.979 92.57 244.092 92.57 244.21Z" fill="#07BFC1"/>
<path d="M112.08 247.9C112.08 249.616 111.398 251.262 110.185 252.475C108.972 253.688 107.326 254.37 105.61 254.37C103.894 254.37 102.248 253.688 101.035 252.475C99.8217 251.262 99.14 249.616 99.14 247.9C99.14 246.184 99.8217 244.538 101.035 243.325C102.248 242.112 103.894 241.43 105.61 241.43C107.326 241.43 108.972 242.112 110.185 243.325C111.398 244.538 112.08 246.184 112.08 247.9ZM109.9 247.91C109.9 246.796 109.458 245.728 108.67 244.94C107.882 244.153 106.814 243.71 105.7 243.71C104.586 243.71 103.518 244.153 102.73 244.94C101.943 245.728 101.5 246.796 101.5 247.91C101.5 249.024 101.943 250.092 102.73 250.88C103.518 251.668 104.586 252.11 105.7 252.11C106.814 252.11 107.882 251.668 108.67 250.88C109.458 250.092 109.9 249.024 109.9 247.91Z" fill="#07BFC1"/>
<path d="M118.43 252.3L118.37 253.21C118.33 253.723 118.053 254.003 117.54 254.05L117.05 254.1C116.463 254.153 116.17 253.887 116.17 253.3L116.24 242C116.24 241.907 116.275 241.817 116.338 241.748C116.401 241.68 116.487 241.638 116.58 241.63C118.08 241.523 119.583 241.533 121.09 241.66C125.21 242 127.05 244.91 125.48 248.76C125.28 249.25 124.78 249.6 124.52 250.14C124.373 250.46 124.373 250.783 124.52 251.11L125.47 253.19C125.797 253.897 125.573 254.213 124.8 254.14L124.25 254.08C123.49 254.007 122.99 253.607 122.75 252.88C122.21 251.247 120.953 250.807 118.98 251.56C118.647 251.693 118.463 251.94 118.43 252.3ZM118.36 244.3L118.32 248.62C118.32 248.779 118.383 248.932 118.496 249.044C118.608 249.157 118.761 249.22 118.92 249.22L120.81 249.24C121.214 249.243 121.614 249.178 121.988 249.049C122.361 248.921 122.702 248.73 122.989 248.488C123.276 248.247 123.504 247.959 123.66 247.642C123.817 247.325 123.898 246.984 123.9 246.64V246.36C123.904 245.666 123.585 244.998 123.013 244.503C122.441 244.008 121.663 243.726 120.85 243.72L118.96 243.7C118.801 243.7 118.648 243.763 118.536 243.876C118.423 243.988 118.36 244.141 118.36 244.3Z" fill="#07BFC1"/>
<path d="M132.551 241.561L131.031 241.559C130.771 241.558 130.561 241.768 130.56 242.028L130.54 253.568C130.539 253.827 130.75 254.038 131.009 254.039L132.529 254.041C132.789 254.042 132.999 253.832 133 253.572L133.02 242.032C133.021 241.773 132.81 241.562 132.551 241.561Z" fill="#07BFC1"/>
<path d="M149.84 247.89C149.84 249.614 149.155 251.267 147.936 252.486C146.717 253.705 145.064 254.39 143.34 254.39C141.616 254.39 139.963 253.705 138.744 252.486C137.525 251.267 136.84 249.614 136.84 247.89C136.84 246.166 137.525 244.513 138.744 243.294C139.963 242.075 141.616 241.39 143.34 241.39C145.064 241.39 146.717 242.075 147.936 243.294C149.155 244.513 149.84 246.166 149.84 247.89ZM147.6 247.92C147.6 246.809 147.159 245.743 146.373 244.957C145.587 244.171 144.521 243.73 143.41 243.73C142.299 243.73 141.233 244.171 140.447 244.957C139.661 245.743 139.22 246.809 139.22 247.92C139.22 249.031 139.661 250.097 140.447 250.883C141.233 251.669 142.299 252.11 143.41 252.11C144.521 252.11 145.587 251.669 146.373 250.883C147.159 250.097 147.6 249.031 147.6 247.92Z" fill="#07BFC1"/>
<path d="M160.87 242.24C160.87 242.06 160.942 241.887 161.069 241.759C161.197 241.632 161.37 241.56 161.55 241.56H166.01C167.713 241.56 169.346 242.201 170.55 243.341C171.754 244.481 172.43 246.027 172.43 247.64V247.98C172.43 249.593 171.754 251.139 170.55 252.279C169.346 253.419 167.713 254.06 166.01 254.06H161.55C161.37 254.06 161.197 253.988 161.069 253.861C160.942 253.733 160.87 253.56 160.87 253.38V242.24ZM163.4 244.38L163.36 251.46C163.36 251.615 163.421 251.763 163.529 251.874C163.638 251.984 163.785 252.047 163.94 252.05L165.52 252.06C166.107 252.064 166.69 251.965 167.234 251.766C167.778 251.568 168.273 251.275 168.691 250.905C169.109 250.534 169.441 250.093 169.669 249.607C169.897 249.12 170.016 248.598 170.02 248.07V247.85C170.027 246.784 169.563 245.759 168.731 245C167.898 244.24 166.765 243.809 165.58 243.8L164 243.79C163.922 243.789 163.844 243.803 163.771 243.832C163.698 243.861 163.632 243.904 163.576 243.959C163.52 244.014 163.476 244.08 163.446 244.152C163.416 244.224 163.4 244.302 163.4 244.38Z" fill="#07BFC1"/>
<path d="M179.08 247.24L184 247.15C184.061 247.15 184.121 247.162 184.177 247.187C184.233 247.211 184.283 247.248 184.323 247.293C184.364 247.338 184.394 247.392 184.413 247.45C184.431 247.508 184.437 247.569 184.43 247.63L184.27 249.03C184.258 249.135 184.207 249.232 184.128 249.302C184.048 249.372 183.946 249.411 183.84 249.41L179.23 249.37C179.124 249.369 179.022 249.408 178.942 249.478C178.863 249.548 178.812 249.645 178.8 249.75L178.59 251.53C178.583 251.591 178.589 251.652 178.607 251.71C178.626 251.768 178.656 251.822 178.697 251.867C178.737 251.912 178.787 251.949 178.843 251.973C178.899 251.998 178.959 252.01 179.02 252.01L185.59 252C185.648 252 185.706 252.012 185.759 252.035C185.813 252.057 185.861 252.091 185.901 252.133C185.942 252.175 185.973 252.225 185.993 252.279C186.014 252.334 186.023 252.392 186.02 252.45L185.97 253.62C185.965 253.731 185.917 253.835 185.837 253.911C185.757 253.988 185.651 254.03 185.54 254.03L176.65 254.02C176.536 254.02 176.427 253.975 176.346 253.894C176.265 253.813 176.22 253.704 176.22 253.59L176.16 242.02C176.16 241.906 176.205 241.797 176.286 241.716C176.367 241.635 176.476 241.59 176.59 241.59L185.52 241.54C185.581 241.54 185.641 241.552 185.697 241.577C185.753 241.601 185.803 241.638 185.843 241.683C185.884 241.728 185.914 241.782 185.933 241.84C185.951 241.898 185.957 241.959 185.95 242.02L185.78 243.51C185.768 243.615 185.717 243.712 185.638 243.782C185.558 243.852 185.456 243.891 185.35 243.89L179.14 243.87C179.028 243.87 178.92 243.914 178.839 243.992C178.759 244.071 178.713 244.178 178.71 244.29L178.64 246.8C178.639 246.858 178.649 246.916 178.671 246.97C178.692 247.024 178.725 247.073 178.766 247.114C178.807 247.155 178.856 247.188 178.91 247.209C178.964 247.231 179.022 247.241 179.08 247.24Z" fill="#07BFC1"/>
<path d="M192.38 246.91L192.3 253.74C192.3 253.816 192.271 253.89 192.219 253.945C192.167 254.001 192.096 254.035 192.02 254.04L190.28 254.17C190.239 254.173 190.198 254.167 190.159 254.153C190.12 254.139 190.085 254.118 190.055 254.09C190.025 254.061 190.001 254.027 189.985 253.99C189.968 253.952 189.96 253.911 189.96 253.87V241.65C189.961 241.592 189.978 241.536 190.01 241.488C190.041 241.44 190.086 241.402 190.139 241.379C190.192 241.356 190.25 241.348 190.307 241.357C190.364 241.366 190.417 241.392 190.46 241.43L198.43 248.75C198.474 248.789 198.528 248.814 198.585 248.823C198.643 248.832 198.702 248.823 198.755 248.799C198.809 248.775 198.853 248.735 198.884 248.686C198.915 248.636 198.931 248.578 198.93 248.52L198.73 241.89C198.73 241.814 198.759 241.74 198.811 241.685C198.863 241.629 198.934 241.595 199.01 241.59L200.95 241.49C200.991 241.487 201.032 241.493 201.071 241.507C201.11 241.521 201.145 241.542 201.175 241.57C201.205 241.599 201.229 241.633 201.245 241.67C201.262 241.708 201.27 241.749 201.27 241.79V254.4C201.269 254.459 201.251 254.516 201.218 254.564C201.185 254.613 201.139 254.651 201.084 254.673C201.03 254.696 200.97 254.701 200.913 254.69C200.855 254.679 200.802 254.651 200.76 254.61L192.89 246.7C192.848 246.659 192.795 246.631 192.737 246.62C192.68 246.609 192.62 246.614 192.566 246.637C192.511 246.659 192.465 246.697 192.432 246.746C192.399 246.794 192.381 246.851 192.38 246.91Z" fill="#07BFC1"/>
<path d="M210.93 244.19L210.95 253.58C210.95 253.698 210.904 253.811 210.822 253.895C210.74 253.979 210.628 254.027 210.51 254.03L208.94 254.06C208.88 254.061 208.82 254.051 208.765 254.029C208.709 254.007 208.658 253.974 208.615 253.932C208.572 253.89 208.538 253.84 208.515 253.785C208.492 253.729 208.48 253.67 208.48 253.61L208.51 244.17C208.51 244.051 208.463 243.936 208.378 243.852C208.294 243.767 208.179 243.72 208.06 243.72L205.4 243.71C205.339 243.709 205.279 243.695 205.224 243.67C205.168 243.645 205.118 243.609 205.077 243.564C205.036 243.519 205.005 243.467 204.984 243.409C204.964 243.352 204.956 243.291 204.96 243.23L205.05 241.96C205.058 241.846 205.108 241.739 205.192 241.661C205.276 241.583 205.386 241.54 205.5 241.54L213.96 241.61C214.025 241.611 214.088 241.625 214.147 241.653C214.205 241.68 214.257 241.72 214.299 241.769C214.341 241.819 214.371 241.876 214.389 241.939C214.406 242.001 214.41 242.066 214.4 242.13L214.18 243.42C214.163 243.527 214.108 243.624 214.026 243.694C213.943 243.764 213.838 243.801 213.73 243.8L211.39 243.74C211.33 243.739 211.27 243.749 211.215 243.771C211.159 243.793 211.108 243.826 211.065 243.868C211.022 243.91 210.988 243.96 210.965 244.015C210.942 244.071 210.93 244.13 210.93 244.19Z" fill="#07BFC1"/>
<path d="M220.12 253.12C219.607 253.967 218.833 254.26 217.8 254C217.407 253.9 217.293 253.663 217.46 253.29L222.44 241.86C222.486 241.76 222.559 241.675 222.652 241.615C222.744 241.555 222.852 241.523 222.962 241.521C223.072 241.52 223.18 241.551 223.274 241.609C223.367 241.667 223.442 241.751 223.49 241.85L228.88 253.39C229.02 253.683 228.933 253.877 228.62 253.97C227.553 254.297 226.713 254.047 226.1 253.22C225.88 252.913 225.583 252.76 225.21 252.76L220.81 252.73C220.503 252.73 220.273 252.86 220.12 253.12ZM221.29 250.07C221.272 250.127 221.266 250.187 221.275 250.246C221.283 250.306 221.306 250.362 221.339 250.411C221.373 250.461 221.418 250.501 221.47 250.531C221.522 250.56 221.58 250.577 221.64 250.58L224.63 250.75C224.697 250.754 224.764 250.741 224.825 250.712C224.885 250.682 224.937 250.638 224.976 250.582C225.014 250.527 225.037 250.463 225.043 250.396C225.049 250.329 225.038 250.261 225.01 250.2L223.25 246.26C223.218 246.187 223.165 246.126 223.097 246.084C223.029 246.042 222.951 246.022 222.871 246.026C222.792 246.031 222.715 246.059 222.653 246.108C222.59 246.157 222.544 246.224 222.52 246.3L221.29 250.07Z" fill="#07BFC1"/>
<path d="M240.95 252.51L241 253.61C241.003 253.665 240.994 253.721 240.975 253.773C240.955 253.825 240.926 253.873 240.887 253.913C240.849 253.953 240.803 253.985 240.752 254.007C240.701 254.029 240.646 254.04 240.59 254.04L232.92 254.02C232.866 254.02 232.813 254.009 232.763 253.989C232.713 253.968 232.668 253.938 232.63 253.9C232.592 253.862 232.562 253.817 232.541 253.767C232.521 253.717 232.51 253.664 232.51 253.61L232.6 241.88C232.601 241.823 232.614 241.768 232.638 241.716C232.661 241.665 232.695 241.619 232.738 241.582C232.78 241.544 232.829 241.516 232.883 241.498C232.937 241.481 232.994 241.474 233.05 241.48L234.59 241.64C234.692 241.65 234.786 241.698 234.854 241.773C234.923 241.849 234.96 241.948 234.96 242.05V251.79C234.96 251.845 234.971 251.899 234.992 251.949C235.013 252 235.044 252.045 235.084 252.084C235.123 252.122 235.169 252.152 235.22 252.172C235.271 252.192 235.325 252.201 235.38 252.2L240.53 252.12C240.637 252.117 240.741 252.157 240.819 252.229C240.898 252.302 240.945 252.403 240.95 252.51Z" fill="#07BFC1"/>
</svg>
