<svg width="411" height="241" viewBox="0 0 411 241" fill="none" xmlns="http://www.w3.org/2000/svg">
<mask id="mask0_51_446" style="mask-type:alpha" maskUnits="userSpaceOnUse" x="0" y="0" width="411" height="241">
<rect width="411" height="241" fill="#D9D9D9"/>
</mask>
<g mask="url(#mask0_51_446)">
<g clip-path="url(#clip0_51_446)">
<path d="M47.9877 172.907C47.6515 173.162 47.6286 173.402 47.9192 173.626C49.55 174.889 51.7513 176.194 54.523 177.541C56.1313 178.317 56.0598 180.568 54.7494 181.396C53.2085 182.374 49.3854 181.323 47.5956 180.992C42.9707 180.131 38.4137 182.683 35.2106 177.585C32.7666 173.694 34.3019 168.242 39.4358 167.677C39.7655 167.641 39.9215 167.459 39.9037 167.13L39.8972 166.984C39.8948 166.939 39.8834 166.894 39.8637 166.853C39.844 166.811 39.8165 166.774 39.7826 166.744C39.7487 166.714 39.7093 166.69 39.6665 166.676C39.6237 166.661 39.5785 166.655 39.5335 166.658C38.5336 166.724 37.5863 166.979 36.6915 167.423C36.6645 167.437 36.6342 167.442 36.6042 167.439C36.5741 167.436 36.5456 167.425 36.5218 167.406C36.4981 167.387 36.48 167.363 36.4698 167.334C36.4596 167.306 36.4577 167.275 36.4642 167.246C37.3387 163.733 39.8248 160.521 43.6958 160.493C49.1467 160.457 49.8195 164.933 53.3771 167.502C55.2249 168.843 56.7075 170.061 57.825 171.157C59.6723 172.97 58.0716 176.012 55.4907 175.06C52.5821 173.988 50.226 173.24 48.4223 172.816C48.264 172.778 48.1191 172.809 47.9877 172.907Z" fill="#07BFC1"/>
</g>
<g clip-path="url(#clip1_51_446)">
<path d="M265.932 228.562C265.528 228.687 265.425 228.904 265.621 229.214C266.722 230.958 268.344 232.937 270.488 235.151C271.734 236.431 270.897 238.521 269.382 238.852C267.6 239.243 264.367 236.948 262.798 236.025C258.746 233.634 253.591 234.474 252.325 228.587C251.359 224.096 254.667 219.497 259.684 220.722C260.006 220.801 260.215 220.683 260.311 220.368L260.355 220.229C260.368 220.185 260.373 220.139 260.368 220.094C260.364 220.048 260.351 220.004 260.329 219.964C260.308 219.924 260.279 219.889 260.244 219.86C260.208 219.832 260.168 219.811 260.124 219.798C259.162 219.518 258.185 219.434 257.192 219.545C257.162 219.549 257.132 219.543 257.105 219.53C257.078 219.517 257.055 219.497 257.039 219.471C257.023 219.445 257.014 219.416 257.014 219.386C257.015 219.355 257.023 219.326 257.039 219.3C259.063 216.298 262.497 214.131 266.144 215.429C271.279 217.259 270.38 221.695 272.845 225.326C274.122 227.218 275.099 228.87 275.774 230.282C276.89 232.617 274.345 234.928 272.246 233.151C269.879 231.148 267.921 229.64 266.371 228.625C266.235 228.535 266.089 228.514 265.932 228.562Z" fill="#07BFC1"/>
</g>
<g clip-path="url(#clip2_51_446)">
<path d="M277.867 162.994C277.48 162.823 277.26 162.92 277.204 163.283C276.891 165.321 276.817 167.879 276.982 170.956C277.083 172.739 275.08 173.768 273.72 173.023C272.118 172.15 271.183 168.296 270.606 166.57C269.116 162.108 264.675 159.36 267.581 154.086C269.799 150.063 275.312 148.762 278.295 152.978C278.486 153.249 278.721 153.297 279.001 153.122L279.124 153.046C279.163 153.022 279.197 152.99 279.223 152.953C279.25 152.916 279.269 152.874 279.279 152.829C279.289 152.785 279.29 152.739 279.283 152.695C279.275 152.65 279.258 152.608 279.233 152.57C278.691 151.727 278.009 151.022 277.186 150.455C277.161 150.438 277.142 150.414 277.13 150.387C277.118 150.359 277.114 150.328 277.119 150.299C277.124 150.269 277.137 150.241 277.157 150.218C277.177 150.195 277.203 150.179 277.232 150.17C280.728 149.232 284.742 149.849 286.643 153.222C289.317 157.972 285.729 160.73 285.207 165.087C284.93 167.353 284.583 169.24 284.167 170.749C283.476 173.244 280.04 173.319 279.621 170.6C279.149 167.536 278.661 165.113 278.157 163.33C278.113 163.173 278.016 163.061 277.867 162.994Z" fill="#07BFC1"/>
</g>
<g clip-path="url(#clip3_51_446)">
<path d="M213.801 162.32C213.405 162.466 213.313 162.688 213.526 162.988C214.716 164.672 216.44 166.563 218.696 168.662C220.007 169.874 219.281 172.006 217.786 172.415C216.026 172.9 212.677 170.777 211.063 169.936C206.891 167.761 201.787 168.87 200.215 163.057C199.015 158.622 202.077 153.857 207.152 154.817C207.478 154.88 207.681 154.751 207.76 154.431L207.796 154.29C207.807 154.246 207.809 154.2 207.803 154.155C207.796 154.109 207.78 154.066 207.757 154.027C207.733 153.988 207.702 153.954 207.666 153.928C207.629 153.901 207.587 153.882 207.543 153.872C206.568 153.643 205.588 153.61 204.602 153.773C204.572 153.778 204.542 153.774 204.514 153.763C204.486 153.751 204.462 153.732 204.445 153.707C204.428 153.682 204.418 153.653 204.416 153.623C204.415 153.593 204.422 153.563 204.437 153.537C206.3 150.433 209.616 148.088 213.326 149.194C218.55 150.753 217.885 155.23 220.536 158.727C221.911 160.549 222.972 162.148 223.72 163.522C224.957 165.796 222.537 168.237 220.347 166.572C217.879 164.696 215.845 163.292 214.244 162.36C214.103 162.277 213.956 162.264 213.801 162.32Z" fill="#07BFC1"/>
</g>
<g clip-path="url(#clip4_51_446)">
<path d="M148.241 162.848C147.823 162.783 147.635 162.934 147.676 163.298C147.9 165.348 148.491 167.838 149.447 170.768C150.006 172.464 148.338 173.976 146.831 173.609C145.057 173.18 143.158 169.7 142.153 168.182C139.559 164.257 134.558 162.752 136 156.906C137.101 152.446 142.089 149.763 146.063 153.063C146.317 153.275 146.557 153.261 146.781 153.019L146.881 152.914C146.912 152.88 146.937 152.841 146.953 152.798C146.969 152.755 146.976 152.71 146.974 152.664C146.973 152.619 146.962 152.574 146.943 152.533C146.924 152.492 146.897 152.456 146.863 152.426C146.121 151.752 145.28 151.248 144.338 150.913C144.31 150.903 144.285 150.885 144.266 150.861C144.248 150.837 144.236 150.809 144.233 150.779C144.23 150.749 144.235 150.718 144.249 150.691C144.262 150.664 144.283 150.642 144.308 150.626C147.443 148.815 151.48 148.372 154.189 151.137C158.002 155.033 155.249 158.626 155.873 162.97C156.192 165.231 156.345 167.143 156.333 168.709C156.312 171.297 153.012 172.259 151.904 169.741C150.655 166.903 149.556 164.689 148.608 163.097C148.525 162.957 148.403 162.874 148.241 162.848Z" fill="#07BFC1"/>
</g>
<g clip-path="url(#clip5_51_446)">
<path d="M164.976 231.937C164.576 231.801 164.365 231.916 164.341 232.282C164.207 234.34 164.356 236.895 164.789 239.946C165.045 241.713 163.139 242.913 161.719 242.29C160.047 241.559 158.78 237.802 158.054 236.132C156.182 231.817 151.518 229.466 153.953 223.96C155.812 219.758 161.19 217.982 164.53 221.922C164.744 222.175 164.983 222.203 165.245 222.004L165.362 221.918C165.399 221.89 165.429 221.855 165.453 221.816C165.476 221.777 165.491 221.733 165.497 221.688C165.503 221.643 165.501 221.597 165.489 221.554C165.477 221.51 165.457 221.469 165.429 221.434C164.816 220.641 164.074 219.999 163.205 219.505C163.179 219.49 163.158 219.468 163.144 219.442C163.129 219.415 163.123 219.385 163.125 219.355C163.127 219.325 163.138 219.296 163.156 219.272C163.173 219.247 163.198 219.229 163.226 219.217C166.627 217.978 170.68 218.243 172.868 221.437C175.946 225.936 172.611 228.996 172.471 233.382C172.393 235.664 172.212 237.574 171.928 239.114C171.458 241.659 168.041 242.033 167.387 239.361C166.649 236.35 165.952 233.978 165.295 232.246C165.237 232.094 165.131 231.991 164.976 231.937Z" fill="#07BFC1"/>
</g>
<g clip-path="url(#clip6_51_446)">
<path d="M220.077 214.44C219.842 214.791 219.898 215.025 220.246 215.143C222.199 215.805 224.705 216.322 227.764 216.694C229.538 216.904 230.203 219.055 229.234 220.266C228.095 221.692 224.138 221.943 222.338 222.212C217.685 222.904 214.207 226.801 209.518 223.023C205.941 220.14 205.618 214.485 210.288 212.279C210.588 212.138 210.676 211.915 210.552 211.609L210.499 211.474C210.481 211.432 210.456 211.393 210.424 211.36C210.392 211.328 210.354 211.302 210.312 211.284C210.27 211.267 210.225 211.257 210.18 211.257C210.135 211.257 210.09 211.267 210.048 211.284C209.125 211.672 208.312 212.221 207.61 212.933C207.589 212.954 207.562 212.97 207.533 212.976C207.504 212.983 207.473 212.982 207.444 212.972C207.416 212.962 207.391 212.944 207.372 212.921C207.353 212.897 207.341 212.869 207.338 212.839C207.021 209.233 208.326 205.387 211.977 204.1C217.119 202.291 219.212 206.304 223.413 207.575C225.596 208.241 227.395 208.91 228.808 209.583C231.145 210.696 230.622 214.093 227.872 214.033C224.772 213.966 222.301 214.026 220.458 214.213C220.296 214.229 220.169 214.304 220.077 214.44Z" fill="#07BFC1"/>
</g>
<g clip-path="url(#clip7_51_446)">
<path d="M61.8754 231.618C61.4661 231.722 61.3514 231.934 61.5313 232.254C62.5392 234.053 64.0556 236.114 66.0806 238.437C67.2578 239.78 66.3126 241.824 64.7826 242.075C62.9821 242.373 59.8736 239.911 58.3556 238.907C54.4346 236.308 49.2427 236.876 48.2864 230.931C47.5568 226.395 51.1002 221.977 56.0471 223.462C56.3645 223.558 56.5793 223.451 56.6915 223.141L56.7423 223.005C56.7579 222.962 56.7649 222.916 56.7629 222.871C56.7609 222.825 56.75 222.78 56.7307 222.739C56.7114 222.698 56.6841 222.661 56.6505 222.631C56.6169 222.601 56.5776 222.577 56.5349 222.563C55.5889 222.233 54.6172 222.097 53.6198 222.157C53.5897 222.159 53.5597 222.152 53.5333 222.137C53.5068 222.123 53.485 222.101 53.4704 222.075C53.4558 222.048 53.449 222.018 53.4507 221.988C53.4524 221.958 53.4626 221.929 53.4801 221.904C55.6577 219.012 59.201 217.027 62.7752 218.514C67.8069 220.611 66.6774 224.994 68.9484 228.749C70.1253 230.705 71.0141 232.406 71.6145 233.851C72.6065 236.242 69.9445 238.416 67.9408 236.532C65.6824 234.408 63.8058 232.799 62.3111 231.704C62.18 231.608 62.0348 231.579 61.8754 231.618Z" fill="#07BFC1"/>
</g>
<g clip-path="url(#clip8_51_446)">
<path d="M112.876 206.039C112.868 205.617 112.687 205.457 112.335 205.561C110.355 206.138 108.005 207.152 105.286 208.602C103.713 209.447 101.934 208.067 102.034 206.519C102.149 204.698 105.246 202.223 106.567 200.97C109.981 197.734 110.595 192.547 116.603 192.953C121.186 193.262 124.695 197.709 122.135 202.195C121.97 202.482 122.026 202.716 122.302 202.895L122.424 202.975C122.462 203 122.505 203.017 122.55 203.025C122.595 203.034 122.641 203.033 122.685 203.023C122.73 203.014 122.772 202.996 122.809 202.97C122.846 202.944 122.877 202.911 122.901 202.872C123.436 202.025 123.786 201.108 123.953 200.123C123.958 200.093 123.971 200.066 123.991 200.043C124.011 200.021 124.037 200.004 124.066 199.996C124.095 199.988 124.126 199.988 124.155 199.996C124.184 200.005 124.21 200.021 124.23 200.044C126.558 202.816 127.695 206.715 125.442 209.863C122.267 214.294 118.251 212.208 114.082 213.576C111.911 214.283 110.054 214.766 108.51 215.026C105.957 215.455 104.437 212.372 106.725 210.843C109.302 209.121 111.292 207.654 112.695 206.444C112.818 206.338 112.879 206.203 112.876 206.039Z" fill="#07BFC1"/>
</g>
<g clip-path="url(#clip9_51_446)">
<path d="M104.762 129.369C104.345 129.305 104.157 129.455 104.197 129.82C104.422 131.87 105.012 134.36 105.969 137.289C106.527 138.986 104.859 140.497 103.353 140.13C101.579 139.701 99.679 136.221 98.6742 134.703C96.0805 130.779 91.0791 129.273 92.5217 123.428C93.6225 118.967 98.6107 116.284 102.584 119.584C102.839 119.797 103.078 119.782 103.303 119.541L103.402 119.435C103.434 119.402 103.458 119.362 103.474 119.32C103.49 119.277 103.497 119.231 103.496 119.186C103.494 119.14 103.483 119.096 103.464 119.055C103.445 119.014 103.418 118.977 103.384 118.947C102.643 118.273 101.801 117.769 100.86 117.434C100.831 117.424 100.806 117.406 100.788 117.382C100.769 117.359 100.757 117.33 100.754 117.3C100.751 117.27 100.757 117.24 100.77 117.213C100.783 117.186 100.804 117.163 100.83 117.147C103.964 115.336 108.001 114.893 110.711 117.659C114.523 121.555 111.771 125.148 112.394 129.491C112.713 131.752 112.867 133.665 112.855 135.23C112.834 137.818 109.533 138.78 108.425 136.262C107.176 133.425 106.078 131.21 105.13 129.619C105.047 129.479 104.924 129.396 104.762 129.369Z" fill="#07BFC1"/>
</g>
<g clip-path="url(#clip10_51_446)">
<path d="M364.932 104.562C364.528 104.687 364.425 104.904 364.621 105.214C365.722 106.958 367.344 108.937 369.488 111.151C370.734 112.431 369.897 114.521 368.382 114.852C366.6 115.243 363.367 112.948 361.798 112.025C357.746 109.634 352.591 110.474 351.325 104.587C350.359 100.096 353.667 95.4975 358.684 96.7218C359.006 96.801 359.215 96.683 359.311 96.3678L359.355 96.2292C359.368 96.1853 359.373 96.1393 359.368 96.0938C359.364 96.0483 359.351 96.0042 359.329 95.9641C359.308 95.924 359.279 95.8887 359.244 95.8602C359.208 95.8317 359.168 95.8107 359.124 95.7982C358.162 95.518 357.185 95.4337 356.192 95.5453C356.162 95.5487 356.132 95.5435 356.105 95.5303C356.078 95.5172 356.055 95.4966 356.039 95.471C356.023 95.4454 356.014 95.4158 356.014 95.3856C356.015 95.3555 356.023 95.3259 356.039 95.3005C358.063 92.2984 361.497 90.1309 365.144 91.4287C370.279 93.2591 369.38 97.6949 371.845 101.326C373.122 103.218 374.099 104.87 374.774 106.282C375.89 108.617 373.345 110.928 371.246 109.151C368.879 107.148 366.921 105.64 365.371 104.625C365.235 104.535 365.089 104.514 364.932 104.562Z" fill="#07BFC1"/>
</g>
<g clip-path="url(#clip11_51_446)">
<path d="M376.867 38.9937C376.48 38.8234 376.259 38.9197 376.204 39.2826C375.891 41.321 375.817 43.8788 375.982 46.9561C376.083 48.7391 374.08 49.7676 372.72 49.0233C371.118 48.1496 370.183 44.2964 369.606 42.5702C368.116 38.108 363.675 35.3597 366.581 30.0863C368.799 26.0627 374.312 24.7623 377.295 28.9783C377.486 29.2493 377.721 29.2973 378.001 29.1223L378.124 29.0463C378.163 29.0219 378.197 28.9903 378.223 28.953C378.25 28.9158 378.269 28.8738 378.279 28.8295C378.289 28.7851 378.29 28.7394 378.282 28.6948C378.275 28.6502 378.258 28.6078 378.233 28.57C377.691 27.7273 377.009 27.0225 376.186 26.4553C376.161 26.4382 376.142 26.4144 376.13 26.3866C376.118 26.3589 376.114 26.3283 376.119 26.2985C376.124 26.2687 376.137 26.2409 376.157 26.2182C376.177 26.1955 376.203 26.1789 376.232 26.1703C379.728 25.232 383.742 25.8495 385.643 29.2216C388.317 33.9716 384.729 36.7299 384.207 41.0869C383.93 43.353 383.583 45.2404 383.166 46.7492C382.476 49.2438 379.04 49.3186 378.621 46.5998C378.149 43.5359 377.661 41.1126 377.157 39.3297C377.113 39.1729 377.016 39.0609 376.867 38.9937Z" fill="#07BFC1"/>
</g>
<g clip-path="url(#clip12_51_446)">
<path d="M313.936 32.4545C313.54 32.6003 313.448 32.8229 313.66 33.1223C314.851 34.8064 316.574 36.6978 318.831 38.7965C320.142 40.0091 319.416 42.1403 317.92 42.5496C316.161 43.0342 312.812 40.9115 311.197 40.071C307.026 37.8959 301.922 39.0042 300.35 33.1919C299.15 28.7569 302.212 23.9921 307.287 24.9521C307.613 25.0144 307.815 24.8857 307.894 24.5659L307.931 24.4251C307.942 24.3806 307.944 24.3345 307.937 24.2892C307.93 24.244 307.915 24.2007 307.891 24.1618C307.868 24.1228 307.837 24.0891 307.8 24.0625C307.764 24.0359 307.722 24.017 307.678 24.0068C306.703 23.7773 305.722 23.7443 304.737 23.9077C304.707 23.9126 304.676 23.909 304.648 23.8973C304.621 23.8856 304.597 23.8663 304.579 23.8415C304.562 23.8168 304.552 23.7877 304.551 23.7576C304.549 23.7274 304.556 23.6975 304.571 23.6712C306.435 20.5673 309.751 18.2231 313.461 19.3282C318.684 20.8874 318.019 25.3641 320.67 28.8611C322.045 30.6836 323.107 32.2822 323.855 33.657C325.092 35.9309 322.671 38.372 320.482 36.7069C318.014 34.831 315.979 33.4268 314.378 32.4944C314.238 32.4121 314.09 32.3988 313.936 32.4545Z" fill="#07BFC1"/>
</g>
<g clip-path="url(#clip13_51_446)">
<path d="M247.241 38.848C246.823 38.7834 246.635 38.9336 246.676 39.2984C246.9 41.3485 247.491 43.8383 248.447 46.7679C249.006 48.4641 247.338 49.9759 245.831 49.609C244.057 49.1798 242.158 45.6997 241.153 44.1818C238.559 40.2572 233.558 38.752 235 32.9061C236.101 28.4456 241.089 25.7627 245.063 29.0628C245.317 29.2752 245.557 29.2607 245.781 29.0194L245.881 28.9139C245.912 28.8804 245.937 28.841 245.953 28.7982C245.969 28.7554 245.976 28.7099 245.974 28.6645C245.973 28.619 245.962 28.5745 245.943 28.5335C245.924 28.4925 245.897 28.4558 245.863 28.4256C245.121 27.752 244.28 27.2478 243.338 26.9129C243.31 26.9027 243.285 26.8848 243.266 26.8611C243.248 26.8373 243.236 26.8088 243.233 26.7788C243.23 26.7488 243.235 26.7185 243.249 26.6914C243.262 26.6644 243.283 26.6416 243.308 26.6258C246.443 24.8145 250.48 24.372 253.189 27.1372C257.002 31.0333 254.249 34.6262 254.873 38.97C255.192 41.2306 255.345 43.1434 255.333 44.7086C255.312 47.2969 252.012 48.2586 250.904 45.7407C249.655 42.9035 248.556 40.689 247.608 39.0973C247.525 38.9572 247.403 38.8741 247.241 38.848Z" fill="#07BFC1"/>
</g>
<g clip-path="url(#clip14_51_446)">
<path d="M263.976 107.937C263.576 107.801 263.365 107.916 263.341 108.282C263.207 110.34 263.356 112.895 263.789 115.946C264.045 117.713 262.139 118.913 260.719 118.29C259.047 117.559 257.78 113.802 257.054 112.132C255.182 107.817 250.518 105.466 252.953 99.9597C254.812 95.7581 260.19 93.9822 263.53 97.9221C263.744 98.1754 263.983 98.2028 264.245 98.0041L264.362 97.9176C264.399 97.89 264.429 97.8554 264.453 97.8161C264.476 97.7767 264.491 97.7332 264.497 97.6881C264.503 97.6431 264.501 97.5974 264.489 97.5537C264.477 97.5099 264.457 97.4691 264.429 97.4336C263.816 96.6414 263.074 95.9987 262.205 95.5054C262.179 95.4905 262.158 95.4685 262.144 95.4419C262.129 95.4152 262.123 95.3852 262.125 95.3551C262.127 95.325 262.138 95.2961 262.156 95.2717C262.173 95.2474 262.198 95.2286 262.226 95.2175C265.627 93.978 269.68 94.2433 271.868 97.4369C274.946 101.936 271.611 104.996 271.471 109.382C271.393 111.664 271.212 113.574 270.928 115.114C270.458 117.659 267.041 118.033 266.387 115.361C265.649 112.35 264.952 109.978 264.295 108.246C264.237 108.094 264.131 107.991 263.976 107.937Z" fill="#07BFC1"/>
</g>
<g clip-path="url(#clip15_51_446)">
<path d="M319.077 90.4403C318.842 90.7911 318.898 91.0253 319.246 91.1427C321.199 91.8054 323.705 92.3225 326.764 92.6939C328.538 92.9042 329.203 95.0554 328.234 96.2655C327.095 97.6917 323.138 97.9428 321.338 98.2119C316.685 98.904 313.207 102.801 308.518 99.0227C304.941 96.1399 304.618 90.4852 309.288 88.2789C309.588 88.1378 309.676 87.9147 309.552 87.6094L309.499 87.4742C309.481 87.4317 309.456 87.3931 309.424 87.3605C309.392 87.3279 309.354 87.302 309.312 87.2843C309.27 87.2666 309.225 87.2575 309.18 87.2575C309.135 87.2575 309.09 87.2666 309.048 87.2842C308.125 87.6718 307.312 88.2214 306.61 88.933C306.589 88.9545 306.562 88.9696 306.533 88.9764C306.504 88.9833 306.473 88.9817 306.444 88.9719C306.416 88.962 306.391 88.9443 306.372 88.9208C306.353 88.8973 306.341 88.8689 306.338 88.8389C306.021 85.2325 307.326 81.3867 310.977 80.1C316.119 78.2913 318.212 82.304 322.413 83.5749C324.596 84.2411 326.395 84.9104 327.808 85.5828C330.145 86.6957 329.622 90.093 326.872 90.0331C323.772 89.9661 321.301 90.0259 319.458 90.2126C319.296 90.2286 319.169 90.3044 319.077 90.4403Z" fill="#07BFC1"/>
</g>
<g clip-path="url(#clip16_51_446)">
<path d="M160.875 107.618C160.466 107.722 160.351 107.934 160.531 108.254C161.539 110.053 163.056 112.114 165.081 114.437C166.258 115.78 165.313 117.824 163.783 118.075C161.982 118.373 158.874 115.911 157.356 114.907C153.435 112.308 148.243 112.876 147.286 106.931C146.557 102.395 150.1 97.9768 155.047 99.462C155.364 99.558 155.579 99.4511 155.692 99.1414L155.742 99.0052C155.758 98.9621 155.765 98.9164 155.763 98.8707C155.761 98.8251 155.75 98.7803 155.731 98.7392C155.711 98.698 155.684 98.6612 155.65 98.6309C155.617 98.6006 155.578 98.5775 155.535 98.5628C154.589 98.2326 153.617 98.0973 152.62 98.1568C152.59 98.1585 152.56 98.1518 152.533 98.1372C152.507 98.1227 152.485 98.1009 152.47 98.0745C152.456 98.0481 152.449 98.0181 152.451 97.988C152.452 97.9579 152.463 97.9288 152.48 97.9042C154.658 95.0122 158.201 93.0274 161.775 94.5143C166.807 96.6109 165.677 100.994 167.948 104.749C169.125 106.705 170.014 108.406 170.615 109.851C171.606 112.242 168.944 114.416 166.941 112.532C164.682 110.408 162.806 108.799 161.311 107.704C161.18 107.608 161.035 107.579 160.875 107.618Z" fill="#07BFC1"/>
</g>
<g clip-path="url(#clip17_51_446)">
<path d="M211.876 82.0388C211.868 81.6167 211.687 81.4573 211.335 81.5606C209.355 82.1379 207.005 83.1518 204.286 84.6023C202.713 85.4472 200.934 84.0665 201.034 82.5194C201.149 80.698 204.246 78.2227 205.567 76.9697C208.981 73.7339 209.595 68.5471 215.603 68.9526C220.186 69.2621 223.695 73.7087 221.135 78.1947C220.97 78.4823 221.026 78.7157 221.302 78.8947L221.424 78.9748C221.462 78.9997 221.505 79.0168 221.55 79.0252C221.595 79.0335 221.641 79.0329 221.685 79.0233C221.73 79.0138 221.772 78.9955 221.809 78.9696C221.846 78.9436 221.877 78.9105 221.901 78.8722C222.436 78.0247 222.786 77.1084 222.953 76.1232C222.958 76.0935 222.971 76.0658 222.991 76.0433C223.011 76.0208 223.037 76.0045 223.066 75.9962C223.095 75.9879 223.126 75.9879 223.155 75.9964C223.184 76.0048 223.21 76.0213 223.23 76.0439C225.558 78.8162 226.695 82.7152 224.442 85.8633C221.267 90.2944 217.251 88.208 213.082 89.5761C210.911 90.2828 209.054 90.7662 207.51 91.0261C204.957 91.4548 203.437 88.3719 205.725 86.8435C208.302 85.1207 210.292 83.6542 211.695 82.444C211.818 82.338 211.879 82.203 211.876 82.0388Z" fill="#07BFC1"/>
</g>
<g clip-path="url(#clip18_51_446)">
<path d="M367.762 203.369C367.345 203.305 367.157 203.455 367.197 203.82C367.422 205.87 368.012 208.36 368.969 211.289C369.527 212.986 367.859 214.497 366.353 214.13C364.579 213.701 362.679 210.221 361.674 208.703C359.081 204.779 354.079 203.273 355.522 197.428C356.622 192.967 361.611 190.284 365.584 193.584C365.839 193.797 366.078 193.782 366.303 193.541L366.402 193.435C366.434 193.402 366.458 193.362 366.474 193.32C366.49 193.277 366.497 193.231 366.496 193.186C366.494 193.14 366.483 193.096 366.464 193.055C366.445 193.014 366.418 192.977 366.384 192.947C365.643 192.273 364.801 191.769 363.86 191.434C363.831 191.424 363.806 191.406 363.788 191.382C363.769 191.359 363.757 191.33 363.754 191.3C363.751 191.27 363.757 191.24 363.77 191.213C363.783 191.186 363.804 191.163 363.83 191.147C366.964 189.336 371.001 188.893 373.711 191.659C377.523 195.555 374.771 199.148 375.394 203.491C375.713 205.752 375.867 207.665 375.855 209.23C375.834 211.818 372.533 212.78 371.425 210.262C370.176 207.425 369.078 205.21 368.13 203.619C368.047 203.479 367.924 203.396 367.762 203.369Z" fill="#07BFC1"/>
</g>
<g clip-path="url(#clip19_51_446)">
<path d="M339.988 167.907C339.651 168.162 339.629 168.402 339.919 168.626C341.55 169.889 343.751 171.194 346.523 172.541C348.131 173.317 348.06 175.568 346.749 176.396C345.208 177.374 341.385 176.323 339.596 175.992C334.971 175.131 330.414 177.683 327.211 172.585C324.767 168.694 326.302 163.242 331.436 162.677C331.765 162.641 331.921 162.459 331.904 162.13L331.897 161.984C331.895 161.939 331.883 161.894 331.864 161.853C331.844 161.811 331.816 161.774 331.783 161.744C331.749 161.714 331.709 161.69 331.666 161.676C331.624 161.661 331.578 161.655 331.533 161.658C330.534 161.724 329.586 161.979 328.691 162.423C328.664 162.437 328.634 162.442 328.604 162.439C328.574 162.436 328.546 162.425 328.522 162.406C328.498 162.388 328.48 162.363 328.47 162.334C328.46 162.306 328.458 162.275 328.464 162.246C329.339 158.733 331.825 155.521 335.696 155.493C341.147 155.457 341.82 159.933 345.377 162.502C347.225 163.843 348.707 165.061 349.825 166.157C351.672 167.97 350.072 171.012 347.491 170.06C344.582 168.988 342.226 168.24 340.422 167.816C340.264 167.778 340.119 167.809 339.988 167.907Z" fill="#07BFC1"/>
</g>
<g clip-path="url(#clip20_51_446)">
<path d="M346.976 60.9368C346.576 60.8008 346.365 60.916 346.341 61.2823C346.207 63.3402 346.356 65.8948 346.789 68.946C347.045 70.7134 345.139 71.9125 343.719 71.2896C342.047 70.5589 340.78 66.8018 340.054 65.1325C338.182 60.8171 333.518 58.4663 335.953 52.9597C337.812 48.7581 343.19 46.9822 346.53 50.9221C346.744 51.1754 346.983 51.2028 347.245 51.0041L347.362 50.9176C347.399 50.89 347.429 50.8554 347.453 50.8161C347.476 50.7767 347.491 50.7332 347.497 50.6881C347.503 50.6431 347.501 50.5974 347.489 50.5537C347.477 50.5099 347.457 50.4691 347.429 50.4336C346.816 49.6414 346.074 48.9987 345.205 48.5054C345.179 48.4905 345.158 48.4685 345.144 48.4419C345.129 48.4152 345.123 48.3852 345.125 48.3551C345.127 48.325 345.138 48.2961 345.156 48.2717C345.173 48.2474 345.198 48.2286 345.226 48.2175C348.627 46.978 352.68 47.2433 354.868 50.4369C357.946 54.9358 354.611 57.9963 354.471 62.3823C354.393 64.6639 354.212 66.5743 353.928 68.1137C353.458 70.659 350.041 71.033 349.387 68.361C348.649 65.3499 347.952 62.9783 347.295 61.2462C347.237 61.0938 347.131 60.9907 346.976 60.9368Z" fill="#07BFC1"/>
</g>
<g clip-path="url(#clip21_51_446)">
<path d="M323.875 224.618C323.466 224.722 323.351 224.934 323.531 225.254C324.539 227.053 326.056 229.114 328.081 231.437C329.258 232.78 328.313 234.824 326.783 235.075C324.982 235.373 321.874 232.911 320.356 231.907C316.435 229.308 311.243 229.876 310.286 223.931C309.557 219.395 313.1 214.977 318.047 216.462C318.364 216.558 318.579 216.451 318.692 216.141L318.742 216.005C318.758 215.962 318.765 215.916 318.763 215.871C318.761 215.825 318.75 215.78 318.731 215.739C318.711 215.698 318.684 215.661 318.65 215.631C318.617 215.601 318.578 215.577 318.535 215.563C317.589 215.233 316.617 215.097 315.62 215.157C315.59 215.159 315.56 215.152 315.533 215.137C315.507 215.123 315.485 215.101 315.47 215.075C315.456 215.048 315.449 215.018 315.451 214.988C315.452 214.958 315.463 214.929 315.48 214.904C317.658 212.012 321.201 210.027 324.775 211.514C329.807 213.611 328.677 217.994 330.948 221.749C332.125 223.705 333.014 225.406 333.615 226.851C334.606 229.242 331.944 231.416 329.941 229.532C327.682 227.408 325.806 225.799 324.311 224.704C324.18 224.608 324.035 224.579 323.875 224.618Z" fill="#07BFC1"/>
</g>
<g clip-path="url(#clip22_51_446)">
<path d="M400.876 227.039C400.868 226.617 400.687 226.457 400.335 226.561C398.355 227.138 396.005 228.152 393.286 229.602C391.713 230.447 389.934 229.067 390.034 227.519C390.149 225.698 393.246 223.223 394.567 221.97C397.981 218.734 398.595 213.547 404.603 213.953C409.186 214.262 412.695 218.709 410.135 223.195C409.97 223.482 410.026 223.716 410.302 223.895L410.424 223.975C410.462 224 410.505 224.017 410.55 224.025C410.595 224.034 410.641 224.033 410.685 224.023C410.73 224.014 410.772 223.996 410.809 223.97C410.846 223.944 410.877 223.911 410.901 223.872C411.436 223.025 411.786 222.109 411.953 221.123C411.958 221.094 411.971 221.066 411.991 221.043C412.011 221.021 412.037 221.005 412.066 220.996C412.095 220.988 412.126 220.988 412.155 220.996C412.184 221.005 412.21 221.021 412.23 221.044C414.558 223.816 415.695 227.715 413.442 230.863C410.267 235.295 406.251 233.208 402.082 234.576C399.911 235.283 398.054 235.766 396.51 236.026C393.957 236.455 392.437 233.372 394.725 231.844C397.302 230.121 399.292 228.654 400.695 227.444C400.818 227.338 400.879 227.203 400.876 227.039Z" fill="#07BFC1"/>
</g>
<g clip-path="url(#clip23_51_446)">
<path d="M132.257 72.3111C131.921 72.5664 131.898 72.8062 132.188 73.0304C133.819 74.2929 136.02 75.5977 138.792 76.9449C140.4 77.7211 140.329 79.9716 139.019 80.8003C137.478 81.7781 133.654 80.7272 131.865 80.3955C127.24 79.5351 122.683 82.0872 119.48 76.9886C117.036 73.0982 118.571 67.6463 123.705 67.0805C124.035 67.0449 124.191 66.8626 124.173 66.5336L124.166 66.3884C124.164 66.3426 124.152 66.2978 124.133 66.2566C124.113 66.2153 124.086 66.1784 124.052 66.148C124.018 66.1177 123.978 66.0944 123.936 66.0797C123.893 66.065 123.848 66.059 123.803 66.0622C122.803 66.1279 121.855 66.383 120.961 66.8274C120.934 66.8409 120.903 66.8463 120.873 66.8433C120.843 66.8402 120.815 66.8287 120.791 66.8101C120.767 66.7915 120.749 66.7666 120.739 66.7382C120.729 66.7098 120.727 66.6791 120.733 66.6496C121.608 63.1366 124.094 59.9251 127.965 59.8972C133.416 59.8612 134.089 64.3368 137.646 66.9059C139.494 68.2467 140.977 69.4651 142.094 70.561C143.941 72.3741 142.341 75.416 139.76 74.464C136.851 73.3916 134.495 72.6436 132.691 72.22C132.533 72.1823 132.388 72.2127 132.257 72.3111Z" fill="#07BFC1"/>
</g>
<g clip-path="url(#clip24_51_446)">
<path d="M392.762 150.369C392.345 150.305 392.157 150.455 392.197 150.82C392.422 152.87 393.012 155.36 393.969 158.289C394.527 159.986 392.859 161.497 391.353 161.131C389.579 160.701 387.679 157.221 386.674 155.703C384.081 151.779 379.079 150.274 380.522 144.428C381.622 139.967 386.611 137.284 390.584 140.584C390.839 140.797 391.078 140.782 391.303 140.541L391.402 140.435C391.434 140.402 391.458 140.363 391.474 140.32C391.49 140.277 391.497 140.231 391.496 140.186C391.494 140.141 391.483 140.096 391.464 140.055C391.445 140.014 391.418 139.977 391.384 139.947C390.643 139.274 389.801 138.769 388.86 138.434C388.831 138.424 388.806 138.406 388.788 138.383C388.769 138.359 388.757 138.33 388.754 138.3C388.751 138.27 388.757 138.24 388.77 138.213C388.783 138.186 388.804 138.163 388.83 138.147C391.964 136.336 396.001 135.894 398.711 138.659C402.523 142.555 399.771 146.148 400.394 150.492C400.713 152.752 400.867 154.665 400.855 156.23C400.834 158.818 397.533 159.78 396.425 157.262C395.176 154.425 394.078 152.211 393.13 150.619C393.047 150.479 392.924 150.396 392.762 150.369Z" fill="#07BFC1"/>
</g>
<g clip-path="url(#clip25_51_446)">
<path d="M23.9316 207.562C23.5283 207.687 23.4249 207.904 23.6212 208.214C24.7219 209.958 26.3442 211.937 28.4879 214.151C29.7338 215.431 28.8968 217.521 27.3821 217.852C25.5997 218.243 22.3665 215.948 20.7981 215.025C16.7465 212.634 11.5914 213.474 10.3253 207.587C9.35929 203.096 12.6666 198.497 17.6844 199.722C18.0064 199.801 18.2153 199.683 18.3112 199.368L18.3548 199.229C18.3681 199.185 18.3727 199.139 18.3684 199.094C18.364 199.048 18.3507 199.004 18.3292 198.964C18.3078 198.924 18.2787 198.889 18.2435 198.86C18.2083 198.832 18.1679 198.811 18.1245 198.798C17.1625 198.518 16.1851 198.434 15.1922 198.545C15.1622 198.549 15.1319 198.544 15.1047 198.53C15.0775 198.517 15.0546 198.497 15.0387 198.471C15.0227 198.445 15.0143 198.416 15.0144 198.386C15.0145 198.355 15.0232 198.326 15.0394 198.3C17.0627 195.298 20.4973 193.131 24.1444 194.429C29.2789 196.259 28.3804 200.695 30.8447 204.326C32.1225 206.218 33.099 207.87 33.7742 209.282C34.89 211.617 32.3454 213.928 30.2458 212.151C27.8794 210.149 25.9212 208.64 24.3712 207.625C24.2353 207.535 24.0887 207.514 23.9316 207.562Z" fill="#07BFC1"/>
</g>
<g clip-path="url(#clip26_51_446)">
<path d="M17.8666 139.994C17.4803 139.823 17.2595 139.92 17.2042 140.283C16.8907 142.321 16.8167 144.879 16.9822 147.956C17.083 149.739 15.08 150.768 13.7199 150.023C12.1177 149.15 11.1833 145.296 10.6057 143.57C9.1161 139.108 4.67466 136.36 7.58112 131.086C9.79888 127.063 15.3115 125.762 18.2953 129.978C18.4863 130.249 18.7214 130.297 19.0006 130.122L19.1244 130.046C19.1632 130.022 19.1969 129.99 19.2234 129.953C19.25 129.916 19.2689 129.874 19.279 129.83C19.2892 129.785 19.2903 129.739 19.2825 129.695C19.2746 129.65 19.2579 129.608 19.2333 129.57C18.6911 128.727 18.0088 128.022 17.1862 127.455C17.1614 127.438 17.1419 127.414 17.13 127.387C17.1181 127.359 17.1144 127.328 17.1191 127.299C17.1238 127.269 17.1369 127.241 17.1568 127.218C17.1767 127.196 17.2026 127.179 17.2315 127.17C20.7281 126.232 24.7422 126.85 26.6433 130.222C29.3175 134.972 25.7292 137.73 25.207 142.087C24.9301 144.353 24.5833 146.24 24.1665 147.749C23.4763 150.244 20.0397 150.319 19.6212 147.6C19.149 144.536 18.661 142.113 18.157 140.33C18.1131 140.173 18.0164 140.061 17.8666 139.994Z" fill="#07BFC1"/>
</g>
<g clip-path="url(#clip27_51_446)">
<path d="M174.874 25.2131C174.646 25.568 174.706 25.8011 175.056 25.9125C177.02 26.541 179.535 27.0143 182.6 27.3322C184.377 27.5116 185.08 29.6508 184.132 30.8776C183.018 32.3235 179.066 32.6436 177.271 32.9441C172.631 33.7173 169.221 37.6741 164.467 33.9785C160.84 31.1586 160.418 25.5104 165.049 23.2229C165.347 23.0766 165.431 22.8519 165.302 22.5489L165.246 22.4146C165.228 22.3725 165.202 22.3343 165.169 22.3022C165.137 22.2702 165.098 22.245 165.056 22.228C165.014 22.2111 164.969 22.2027 164.924 22.2035C164.878 22.2043 164.834 22.2142 164.793 22.2326C163.875 22.6362 163.073 23.1999 162.384 23.9237C162.363 23.9455 162.336 23.961 162.307 23.9684C162.278 23.9758 162.247 23.9747 162.218 23.9654C162.19 23.9561 162.164 23.9388 162.145 23.9156C162.126 23.8924 162.113 23.8642 162.109 23.8343C161.73 20.234 162.967 16.366 166.595 15.0157C171.705 13.1176 173.868 17.0931 178.09 18.2905C180.285 18.9185 182.095 19.5563 183.52 20.204C185.876 21.2759 185.412 24.6819 182.661 24.6699C179.561 24.657 177.091 24.76 175.251 24.9788C175.09 24.9976 174.964 25.0757 174.874 25.2131Z" fill="#07BFC1"/>
</g>
<g clip-path="url(#clip28_51_446)">
<path d="M34.5092 29.6318C34.1481 29.8506 34.1003 30.0866 34.3659 30.34C35.8558 31.7661 37.9086 33.2938 40.5243 34.9233C42.0427 35.8634 41.7363 38.0941 40.3465 38.7813C38.7118 39.5926 35.0195 38.1479 33.2741 37.631C28.7646 36.2918 23.9657 38.3536 21.3131 32.9481C19.2892 28.8235 21.3859 23.562 26.5509 23.536C26.8825 23.535 27.0567 23.3699 27.0734 23.0409L27.0821 22.8958C27.0845 22.8501 27.0778 22.8043 27.0626 22.7612C27.0473 22.7181 27.0237 22.6786 26.9932 22.6448C26.9627 22.6111 26.9259 22.5839 26.8849 22.5647C26.8439 22.5456 26.7995 22.535 26.7544 22.5334C25.7532 22.4942 24.7844 22.6489 23.8481 22.9974C23.8198 23.0079 23.7891 23.0102 23.7595 23.004C23.73 22.9978 23.7028 22.9834 23.6811 22.9624C23.6594 22.9415 23.6441 22.9148 23.6369 22.8855C23.6298 22.8562 23.631 22.8254 23.6406 22.7968C24.8775 19.3944 27.6857 16.4604 31.5384 16.8373C36.9632 17.3712 37.1645 21.8926 40.4341 24.8195C42.1315 26.3461 43.4787 27.7128 44.4755 28.9196C46.1231 30.9158 44.2133 33.7738 41.746 32.5572C38.9655 31.1866 36.7004 30.1964 34.9509 29.5866C34.7974 29.5326 34.6501 29.5477 34.5092 29.6318Z" fill="#07BFC1"/>
</g>
<g clip-path="url(#clip29_51_446)">
<path d="M66.4916 66.9106C66.098 67.0633 66.0099 67.2875 66.2275 67.5832C67.4471 69.2462 69.2035 71.1073 71.4965 73.1662C72.8285 74.3557 72.1394 76.4993 70.6514 76.9347C68.9007 77.4498 65.5153 75.3859 63.8863 74.5738C59.6778 72.4718 54.5938 73.669 52.9201 67.885C51.6432 63.4717 54.6217 58.6541 59.7127 59.5254C60.0395 59.582 60.2396 59.4497 60.3133 59.1286L60.3471 58.9872C60.3573 58.9426 60.3587 58.8964 60.3512 58.8513C60.3436 58.8062 60.3273 58.7631 60.3031 58.7246C60.2789 58.6861 60.2474 58.6529 60.2103 58.6269C60.1733 58.601 60.1314 58.5828 60.0873 58.5734C59.1081 58.361 58.1271 58.3451 57.1445 58.5257C57.1148 58.5311 57.0842 58.5281 57.0562 58.5168C57.0282 58.5056 57.0039 58.4867 56.9862 58.4623C56.9684 58.4378 56.958 58.4089 56.956 58.3788C56.954 58.3487 56.9606 58.3186 56.975 58.2921C58.7839 55.1562 62.0589 52.7544 65.7877 53.7946C71.0374 55.2624 70.4505 59.7501 73.1621 63.2003C74.5687 64.9984 75.6581 66.5783 76.4302 67.9398C77.7061 70.1918 75.329 72.6747 73.1105 71.0482C70.6102 69.2156 68.5515 67.8471 66.9345 66.9428C66.7926 66.8629 66.645 66.8522 66.4916 66.9106Z" fill="#07BFC1"/>
</g>
<g clip-path="url(#clip30_51_446)">
<path d="M97.4544 18.0895C97.5001 18.5092 97.6939 18.6523 98.0357 18.5187C99.9578 17.771 102.21 16.5562 104.792 14.8742C106.286 13.8955 108.178 15.1159 108.214 16.6658C108.258 18.4903 105.388 21.2261 104.182 22.5894C101.063 26.1105 100.903 31.3311 94.8831 31.4507C90.2897 31.5419 86.4072 27.418 88.5664 22.726C88.7056 22.425 88.6297 22.1974 88.3386 22.0432L88.2108 21.974C88.1703 21.9525 88.126 21.9392 88.0805 21.9348C88.035 21.9304 87.9892 21.9351 87.9457 21.9484C87.9023 21.9618 87.862 21.9837 87.8273 22.0128C87.7927 22.0419 87.7643 22.0776 87.7438 22.1178C87.2852 23.0087 87.0159 23.952 86.936 24.948C86.9336 24.978 86.9227 25.0068 86.9046 25.031C86.8865 25.0551 86.862 25.0737 86.8338 25.0845C86.8056 25.0953 86.775 25.0979 86.7454 25.092C86.7158 25.0861 86.6884 25.072 86.6665 25.0512C84.1057 22.4923 82.6334 18.7072 84.6032 15.3747C87.3797 10.6838 91.5626 12.4122 95.597 10.686C97.698 9.79272 99.5059 9.14937 101.021 8.75593C103.526 8.10634 105.309 11.0451 103.164 12.767C100.747 14.7078 98.8922 16.3422 97.6002 17.6701C97.4863 17.7864 97.4378 17.9262 97.4544 18.0895Z" fill="#07BFC1"/>
</g>
<g clip-path="url(#clip31_51_446)">
<path d="M9.93406 80.5606C9.65591 80.2429 9.41513 80.2369 9.2117 80.5424C8.06607 82.2573 6.91799 84.5443 5.76747 87.4032C5.10528 89.0617 2.85531 89.1473 1.93724 87.898C0.854348 86.429 1.63595 82.5419 1.84196 80.7333C2.37773 76.0597 -0.486067 71.6918 4.3767 68.1408C8.08712 65.4315 13.6328 66.5827 14.5553 71.6646C14.6139 71.991 14.8067 72.1339 15.1336 72.0933L15.278 72.0767C15.3235 72.071 15.3674 72.0565 15.4072 72.034C15.447 72.0115 15.4818 71.9814 15.5098 71.9455C15.5377 71.9096 15.5581 71.8686 15.5698 71.8249C15.5815 71.7812 15.5843 71.7357 15.578 71.691C15.4427 70.6982 15.1222 69.771 14.6164 68.9094C14.6011 68.8833 14.5935 68.8535 14.5945 68.8233C14.5955 68.7932 14.6049 68.7639 14.6218 68.7389C14.6387 68.7139 14.6623 68.6942 14.69 68.682C14.7176 68.6699 14.7481 68.6658 14.7779 68.6702C18.3434 69.2975 21.7204 71.5536 22.0183 75.4132C22.4345 80.8483 18.0168 81.8317 15.7021 85.5598C14.4934 87.4966 13.3814 89.0606 12.3661 90.2518C10.6863 92.2211 7.54011 90.8365 8.30981 88.1955C9.17672 85.2192 9.75853 82.8166 10.0552 80.9878C10.0818 80.8272 10.0414 80.6848 9.93406 80.5606Z" fill="#07BFC1"/>
</g>
</g>
<defs>
<clipPath id="clip0_51_446">
<rect width="25" height="25" fill="white" transform="translate(30 178.839) rotate(-66)"/>
</clipPath>
<clipPath id="clip1_51_446">
<rect width="25" height="25" fill="white" transform="translate(247 227.983) rotate(-46)"/>
</clipPath>
<clipPath id="clip2_51_446">
<rect width="25" height="25" fill="white" transform="translate(263.958 150.137) rotate(-5)"/>
</clipPath>
<clipPath id="clip3_51_446">
<rect width="25" height="25" fill="white" transform="translate(194.865 162.733) rotate(-49)"/>
</clipPath>
<clipPath id="clip4_51_446">
<rect width="25" height="25" fill="white" transform="translate(131.479 154.029) rotate(-20)"/>
</clipPath>
<clipPath id="clip5_51_446">
<rect width="25" height="25" fill="white" transform="translate(150 220.341) rotate(-10)"/>
</clipPath>
<clipPath id="clip6_51_446">
<rect width="25" height="25" fill="white" transform="translate(205 225.905) rotate(-85)"/>
</clipPath>
<clipPath id="clip7_51_446">
<rect width="25" height="25" fill="white" transform="translate(43 230.05) rotate(-43)"/>
</clipPath>
<clipPath id="clip8_51_446">
<rect width="25" height="25" fill="white" transform="translate(118.651 188) rotate(60)"/>
</clipPath>
<clipPath id="clip9_51_446">
<rect width="25" height="25" fill="white" transform="translate(88 120.551) rotate(-20)"/>
</clipPath>
<clipPath id="clip10_51_446">
<rect width="25" height="25" fill="white" transform="translate(346 103.983) rotate(-46)"/>
</clipPath>
<clipPath id="clip11_51_446">
<rect width="25" height="25" fill="white" transform="translate(362.958 26.137) rotate(-5)"/>
</clipPath>
<clipPath id="clip12_51_446">
<rect width="25" height="25" fill="white" transform="translate(295 32.8677) rotate(-49)"/>
</clipPath>
<clipPath id="clip13_51_446">
<rect width="25" height="25" fill="white" transform="translate(230.479 30.0291) rotate(-20)"/>
</clipPath>
<clipPath id="clip14_51_446">
<rect width="25" height="25" fill="white" transform="translate(249 96.3412) rotate(-10)"/>
</clipPath>
<clipPath id="clip15_51_446">
<rect width="25" height="25" fill="white" transform="translate(304 101.905) rotate(-85)"/>
</clipPath>
<clipPath id="clip16_51_446">
<rect width="25" height="25" fill="white" transform="translate(142 106.05) rotate(-43)"/>
</clipPath>
<clipPath id="clip17_51_446">
<rect width="25" height="25" fill="white" transform="translate(217.651 64) rotate(60)"/>
</clipPath>
<clipPath id="clip18_51_446">
<rect width="25" height="25" fill="white" transform="translate(351 194.551) rotate(-20)"/>
</clipPath>
<clipPath id="clip19_51_446">
<rect width="25" height="25" fill="white" transform="translate(322 173.839) rotate(-66)"/>
</clipPath>
<clipPath id="clip20_51_446">
<rect width="25" height="25" fill="white" transform="translate(332 49.3412) rotate(-10)"/>
</clipPath>
<clipPath id="clip21_51_446">
<rect width="25" height="25" fill="white" transform="translate(305 223.05) rotate(-43)"/>
</clipPath>
<clipPath id="clip22_51_446">
<rect width="25" height="25" fill="white" transform="translate(406.651 209) rotate(60)"/>
</clipPath>
<clipPath id="clip23_51_446">
<rect width="25" height="25" fill="white" transform="translate(114 78.8386) rotate(-66)"/>
</clipPath>
<clipPath id="clip24_51_446">
<rect width="25" height="25" fill="white" transform="translate(376 141.551) rotate(-20)"/>
</clipPath>
<clipPath id="clip25_51_446">
<rect width="25" height="25" fill="white" transform="translate(5 206.984) rotate(-46)"/>
</clipPath>
<clipPath id="clip26_51_446">
<rect width="25" height="25" fill="white" transform="translate(3.95813 127.137) rotate(-5)"/>
</clipPath>
<clipPath id="clip27_51_446">
<rect width="25" height="25" fill="white" transform="translate(160 36.9391) rotate(-86)"/>
</clipPath>
<clipPath id="clip28_51_446">
<rect width="25" height="25" fill="white" transform="translate(16 33.6506) rotate(-60)"/>
</clipPath>
<clipPath id="clip29_51_446">
<rect width="25" height="25" fill="white" transform="translate(47.5657 67.6543) rotate(-50)"/>
</clipPath>
<clipPath id="clip30_51_446">
<rect width="25" height="25" fill="white" transform="translate(93.2744 36.563) rotate(-125)"/>
</clipPath>
<clipPath id="clip31_51_446">
<rect width="25" height="25" fill="white" transform="translate(2.76219 63.0304) rotate(20)"/>
</clipPath>
</defs>
</svg>
