<svg width="74" height="47" viewBox="0 0 74 47" fill="none" xmlns="http://www.w3.org/2000/svg">
<path d="M31.9011 33.9856C31.6929 33.9849 31.4869 34.0278 31.2964 34.1116C31.1049 34.1958 30.9333 34.3194 30.7928 34.4743C30.6522 34.6292 30.5459 34.8119 30.4806 35.0106C30.4154 35.2093 30.3926 35.4195 30.414 35.6276L31.4088 35.5256L30.4134 35.622C30.5525 37.0576 30.6469 38.5419 30.4763 39.9216C30.3067 41.294 29.8836 42.4863 29.0494 43.4022L29.0491 43.4026C28.3096 44.2154 27.6002 44.6623 26.9369 44.8786C26.2766 45.0939 25.5974 45.1018 24.8815 44.9363C23.4025 44.5943 21.8365 43.5309 20.2167 42.1539C14.815 37.559 9.40321 32.9876 3.98146 28.4394C2.51476 27.2077 1.64024 25.9873 1.24901 24.794C0.864326 23.6207 0.917282 22.3856 1.46474 21.0432L1.46477 21.0431C1.9984 19.7343 3.5465 17.9085 6.34314 15.5503C11.5759 11.1508 16.8119 6.75467 22.0513 2.36186L22.0521 2.36116C23.9154 0.795422 26.0256 0.68956 27.6501 1.49109C29.2833 2.29692 30.5205 4.06778 30.4988 6.47657L30.4988 6.47762C30.4855 8.15851 30.4788 9.46494 30.4788 10.3956C30.4788 10.8093 30.6431 11.2061 30.9357 11.4986C31.227 11.7899 31.6216 11.9541 32.0335 11.9555C43.3025 12.0156 54.5716 12.0256 65.8407 11.9856C68.3161 11.9807 69.9382 12.4357 70.9477 13.3074C71.9248 14.1512 72.5294 15.5656 72.5388 17.9894L72.5388 17.9909C72.5588 21.7421 72.5688 25.4899 72.5688 29.2344C72.5643 31.0785 71.7874 32.1927 70.6186 32.9C69.3796 33.6497 67.6306 33.9756 65.7188 33.9756L65.7176 33.9756C54.4921 33.9889 43.2199 33.9922 31.9011 33.9856ZM31.9011 33.9856C31.9021 33.9856 31.903 33.9856 31.904 33.9856L31.8988 34.9856L31.8994 33.9856C31.8999 33.9856 31.9005 33.9856 31.9011 33.9856Z" fill="#07BFC1" stroke="#08177E" stroke-width="2"/>
</svg>
