<svg width="150" height="150" viewBox="0 0 150 150" fill="none" xmlns="http://www.w3.org/2000/svg">
<path d="M145 75C145 113.66 113.66 145 75 145C36.3401 145 5 113.66 5 75C5 36.3401 36.3401 5 75 5C113.66 5 145 36.3401 145 75Z" fill="white" stroke="#C8FFFA" stroke-width="10"/>
<path d="M84.8945 46.5625C80.6875 38.0664 69.4844 37.7383 65.582 46.5508C65.5086 46.7217 65.3873 46.8672 65.2331 46.9693C65.0789 47.0714 64.8987 47.1256 64.7148 47.125H52.7031C52.2734 47.125 52.0312 46.9102 51.9765 46.4805C50.8164 37.0938 55.3281 28.1055 64.5742 25.586C68.4531 24.5313 74.0781 24.8594 78.8242 24.8477C92.3242 24.836 99.6133 33.1094 98.582 46.6563C98.5586 46.9688 98.3906 47.125 98.0781 47.125H85.7969C85.6101 47.1246 85.4268 47.0718 85.2675 46.9725C85.1082 46.8732 84.979 46.7313 84.8945 46.5625Z" fill="#07BFC1"/>
<path d="M75.25 54.0859C77.1657 54.0859 78.7187 52.5329 78.7187 50.6172C78.7187 48.7014 77.1657 47.1484 75.25 47.1484C73.3343 47.1484 71.7812 48.7014 71.7812 50.6172C71.7812 52.5329 73.3343 54.0859 75.25 54.0859Z" fill="#07BFC1"/>
<path d="M65.6641 54.8008C69.4727 63.6836 80.6992 62.9219 84.9297 54.6953C85.1172 54.3359 85.418 54.1563 85.832 54.1563H98.0781C98.2429 54.1563 98.4008 54.2217 98.5173 54.3382C98.6338 54.4546 98.6992 54.6126 98.6992 54.7773C98.6914 58.3477 98.6563 61.9492 98.5938 65.582C98.1133 93.4141 58 96.5195 52.3047 70.1523C51.3789 65.8516 51.8594 60.1328 51.8242 55.3047C51.8227 55.1498 51.8518 54.9962 51.91 54.8526C51.9682 54.7091 52.0543 54.5785 52.1633 54.4685C52.2723 54.3584 52.402 54.271 52.5449 54.2114C52.6879 54.1518 52.8412 54.1211 52.9961 54.1211L64.6797 54.1445C65.1484 54.1445 65.4766 54.3633 65.6641 54.8008Z" fill="#07BFC1"/>
<path d="M66.8242 108.309C66.3767 108.87 66.1329 109.568 66.1328 110.289V125.031C66.1328 125.414 65.9414 125.609 65.5586 125.617C57.7227 125.672 49.9219 125.676 42.1563 125.629C37.7734 125.594 36.5781 121.75 36.5898 117.813C36.5898 112.75 36.1211 106.398 37.0586 102.109C39.3086 91.8086 47.793 87.625 58.0234 88.2227C58.4453 88.2461 58.7852 88.4219 59.043 88.75L70.4102 102.941C70.5071 103.065 70.5598 103.218 70.5598 103.375C70.5598 103.532 70.5071 103.685 70.4102 103.809L66.8242 108.309Z" fill="#07BFC1"/>
<path d="M92.418 88.2461C101.219 87.4375 109.293 90.8008 112.586 99.1679C114.766 104.723 113.934 113.441 113.922 120.074C113.91 124.633 109.75 125.641 105.73 125.641C94.957 125.641 84.1953 125.641 73.4453 125.641C73.3676 125.641 73.2931 125.609 73.2382 125.551C73.1832 125.494 73.1523 125.417 73.1523 125.336L73.1641 112.094C73.1638 111.783 73.2714 111.481 73.4688 111.238L91.4453 88.7617C91.6953 88.4492 92.0195 88.2773 92.418 88.2461Z" fill="#07BFC1"/>
<path d="M82.4687 91.0703L75.5429 99.7305C75.5089 99.7721 75.466 99.8057 75.4173 99.8288C75.3687 99.8519 75.3155 99.8638 75.2617 99.8638C75.2079 99.8638 75.1547 99.8519 75.1061 99.8288C75.0574 99.8057 75.0145 99.7721 74.9804 99.7305L68.0547 91.0703C68.0133 91.017 67.9876 90.9532 67.9804 90.8861C67.9733 90.819 67.985 90.7512 68.0142 90.6904C68.0434 90.6296 68.0889 90.5781 68.1458 90.5417C68.2026 90.5053 68.2684 90.4854 68.3359 90.4844H82.1875C82.2549 90.4854 82.3208 90.5053 82.3776 90.5417C82.4344 90.5781 82.48 90.6296 82.5092 90.6904C82.5384 90.7512 82.5501 90.819 82.5429 90.8861C82.5358 90.9532 82.5101 91.017 82.4687 91.0703Z" fill="#07BFC1"/>
</svg>
