<svg width="150" height="150" viewBox="0 0 150 150" fill="none" xmlns="http://www.w3.org/2000/svg">
<path d="M145 75C145 113.66 113.66 145 75 145C36.3401 145 5 113.66 5 75C5 36.3401 36.3401 5 75 5C113.66 5 145 36.3401 145 75Z" fill="white" stroke="#C8FFFA" stroke-width="10"/>
<path d="M130.152 75C130.152 89.6272 124.341 103.655 113.998 113.998C103.655 124.341 89.6272 130.152 75 130.152C60.3728 130.152 46.3446 124.341 36.0016 113.998C25.6586 103.655 19.848 89.6272 19.848 75C19.848 60.3728 25.6586 46.3447 36.0016 36.0017C46.3446 25.6587 60.3728 19.848 75 19.848C89.6272 19.848 103.655 25.6587 113.998 36.0017C124.341 46.3447 130.152 60.3728 130.152 75ZM42.552 67.5C50.256 61.02 57.108 62.184 64.488 67.548C64.68 67.6874 64.8977 67.7874 65.1285 67.8423C65.3593 67.8972 65.5986 67.9059 65.8328 67.868C66.067 67.8301 66.2914 67.7463 66.4931 67.6213C66.6948 67.4964 66.8698 67.3328 67.008 67.14L67.248 66.804C68.192 65.476 68.016 64.316 66.72 63.324C57.728 56.46 48.8 56.508 39.936 63.468C38.664 64.468 38.544 65.592 39.576 66.84L39.924 67.26C40.0819 67.4484 40.2751 67.6041 40.4927 67.7181C40.7102 67.8322 40.9478 67.9023 41.1918 67.9246C41.4358 67.9469 41.6815 67.9209 41.9149 67.848C42.1483 67.7752 42.3648 67.6569 42.552 67.5ZM85.764 67.5C93.48 60.984 100.308 62.208 107.712 67.56C107.902 67.6982 108.118 67.7967 108.348 67.8499C108.578 67.903 108.816 67.9096 109.049 67.8694C109.283 67.8293 109.506 67.743 109.707 67.6158C109.908 67.4885 110.082 67.3227 110.22 67.128L110.448 66.804C111.384 65.468 111.204 64.308 109.908 63.324C100.916 56.46 91.992 56.508 83.136 63.468C81.864 64.468 81.744 65.592 82.776 66.84L83.124 67.26C83.2814 67.4494 83.4746 67.6059 83.6926 67.7205C83.9105 67.835 84.149 67.9055 84.3942 67.9278C84.6394 67.9501 84.8867 67.9238 85.1217 67.8504C85.3568 67.777 85.575 67.6579 85.764 67.5ZM74.868 110.928C92.22 110.952 102.264 95.616 105.984 80.484C105.996 80.4294 105.992 80.3725 105.974 80.3197C105.955 80.267 105.922 80.2205 105.878 80.1856C105.835 80.1506 105.782 80.1286 105.727 80.122C105.671 80.1153 105.615 80.1244 105.564 80.148C86.484 89.34 63.54 89.124 44.46 80.172C44.06 79.98 43.908 80.1 44.004 80.532C47.556 95.52 57.984 110.904 74.868 110.928Z" fill="#07BFC1"/>
</svg>
