<svg width="100" height="100" viewBox="0 0 100 100" fill="none" xmlns="http://www.w3.org/2000/svg">
<g clip-path="url(#clip0_51_586)">
<mask id="mask0_51_586" style="mask-type:luminance" maskUnits="userSpaceOnUse" x="0" y="0" width="100" height="100">
<path d="M100 0H0V100H100V0Z" fill="white"/>
</mask>
<g mask="url(#mask0_51_586)">
<path d="M50 100C77.6142 100 100 77.6142 100 50C100 22.3858 77.6142 0 50 0C22.3858 0 0 22.3858 0 50C0 77.6142 22.3858 100 50 100Z" fill="url(#paint0_radial_51_586)"/>
<mask id="mask1_51_586" style="mask-type:luminance" maskUnits="userSpaceOnUse" x="16" y="16" width="68" height="68">
<path d="M83.3333 16.6667H16.6666V83.3334H83.3333V16.6667Z" fill="white"/>
</mask>
<g mask="url(#mask1_51_586)">
<path d="M81.3958 25.3402L82.5902 26.5764" stroke="white" stroke-width="2"/>
<path d="M82.5903 73.4514L81.4028 74.6459" stroke="white" stroke-width="2"/>
<path d="M18.5901 74.6459L17.4166 73.4305" stroke="white" stroke-width="2"/>
<path d="M17.4097 26.5624L18.611 25.361" stroke="white" stroke-width="2"/>
<path d="M81.9442 29.2639C81.9442 28.8417 81.8611 28.4235 81.6994 28.0335C81.5379 27.6434 81.3011 27.2889 81.0024 26.9904C80.7039 26.6919 80.3494 26.4549 79.9594 26.2934C79.5693 26.1317 79.1512 26.0487 78.7289 26.0487H21.2706C20.8484 26.0487 20.4303 26.1317 20.0403 26.2934C19.6501 26.4549 19.2956 26.6919 18.9971 26.9904C18.6986 27.2889 18.4618 27.6434 18.3001 28.0335C18.1386 28.4235 18.0554 28.8417 18.0554 29.2639V70.7639C18.0554 71.6167 18.3941 72.4345 18.9971 73.0374C19.6001 73.6404 20.4179 73.9792 21.2706 73.9792H78.7289C79.5817 73.9792 80.3996 73.6404 81.0024 73.0374C81.6054 72.4345 81.9442 71.6167 81.9442 70.7639V29.2639Z" stroke="white" stroke-width="2"/>
<path d="M28.2638 33.1736C28.2638 32.7572 28.0984 32.3581 27.8041 32.0637C27.5098 31.7694 27.1106 31.6041 26.6943 31.6041H23.0971C22.6808 31.6041 22.2816 31.7694 21.9873 32.0637C21.6929 32.3581 21.5276 32.7572 21.5276 33.1736V45.9374C21.5276 46.3536 21.6929 46.7529 21.9873 47.0472C22.2816 47.3416 22.6808 47.5069 23.0971 47.5069H26.6943C27.1106 47.5069 27.5098 47.3416 27.8041 47.0472C28.0984 46.7529 28.2638 46.3536 28.2638 45.9374V33.1736Z" stroke="white" stroke-width="2"/>
<path d="M36.5623 35.3612C32.7359 39.3125 32.5344 43.9445 35.3123 48.5209C36.1873 49.9515 38.1248 52.3404 37.7081 54.007C36.5553 58.6227 37.4003 62.7107 40.2428 66.2709C41.1664 67.4167 42.6248 67.882 43.5831 66.5557C44.2776 65.5974 43.8053 64.3195 43.6039 63.2154C42.9719 59.757 46.1664 56.1042 48.8053 54.3057C49.6109 53.757 50.3956 53.6182 51.1734 54.2224C54.0553 56.4445 57.4373 60.0834 56.2636 64.1875C55.8956 65.4724 55.7984 66.3125 56.9443 67.0279C60.0206 68.9445 62.4859 61.4445 62.7219 59.3195C63.0276 56.5487 61.3956 52.8542 63.1594 50.7362C63.3169 50.5464 63.4789 50.5394 63.6456 50.7154C66.8818 54.0349 68.1594 56.2849 73.4859 55.3125C73.6896 55.2755 73.7868 55.1529 73.7776 54.9445L73.7568 54.4792C73.7474 54.2339 73.6201 54.1089 73.3748 54.1042L69.2984 54.007C69.0353 54.0024 68.7819 53.8955 68.5901 53.7084L64.3956 49.5279C64.1966 49.3334 64.1826 49.125 64.3539 48.9029C69.6803 41.9375 64.8539 33.25 56.5414 32.7084C55.7868 32.6575 54.8008 32.8495 53.5831 33.2849C51.1896 34.1505 48.7914 34.1875 46.3886 33.3959C43.3123 32.382 41.0136 32.6737 38.2844 34.0765C38.0531 34.1969 37.8539 34.1552 37.6873 33.9515C35.6456 31.4099 33.4859 31.8542 30.5693 31.9792C30.4809 31.9832 30.3949 32.008 30.3183 32.0519C30.2416 32.0955 30.1764 32.157 30.1283 32.231C30.0801 32.305 30.0501 32.3895 30.0411 32.4774C30.0321 32.5652 30.0441 32.6539 30.0761 32.7362L30.1943 33.0417C30.2683 33.2315 30.4073 33.3265 30.6109 33.3265C32.9303 33.3474 34.9789 32.7292 36.5969 34.8195C36.7406 35.0094 36.7289 35.1899 36.5623 35.3612Z" stroke="white" stroke-width="2"/>
<path d="M72.9028 43.489C72.9029 43.4079 72.8871 43.3275 72.8561 43.2525C72.8253 43.1775 72.7798 43.1092 72.7224 43.0517C72.6653 42.9942 72.5971 42.9487 72.5223 42.9174C72.4473 42.8862 72.3669 42.8702 72.2858 42.87L70.1469 42.8662C70.0658 42.866 69.9853 42.882 69.9103 42.9129C69.8353 42.9439 69.7671 42.9892 69.7096 43.0465C69.6521 43.1039 69.6064 43.1719 69.5753 43.2469C69.5441 43.3217 69.5279 43.402 69.5278 43.4832L69.5276 43.636C69.5274 43.7172 69.5433 43.7975 69.5741 43.8727C69.6051 43.9477 69.6506 44.0159 69.7078 44.0734C69.7651 44.1309 69.8331 44.1765 69.9081 44.2077C69.9831 44.2389 70.0634 44.255 70.1446 44.2552L72.2834 44.2589C72.3646 44.259 72.4449 44.2432 72.5201 44.2122C72.5951 44.1814 72.6633 44.1359 72.7208 44.0785C72.7783 44.0214 72.8239 43.9532 72.8551 43.8784C72.8863 43.8034 72.9024 43.723 72.9026 43.6419L72.9028 43.489Z" stroke="white" stroke-width="2"/>
<path d="M77.0555 43.5224C77.0551 43.4367 77.038 43.3519 77.0048 43.2729C76.9718 43.1937 76.9235 43.1219 76.8626 43.0616C76.8018 43.0011 76.7296 42.9534 76.6503 42.9207C76.571 42.8882 76.4861 42.8717 76.4003 42.8719L74.6365 42.8781C74.5508 42.8784 74.466 42.8956 74.3868 42.9286C74.3078 42.9617 74.236 43.0101 74.1756 43.0709C74.1151 43.1317 74.0673 43.2039 74.0348 43.2832C74.0023 43.3624 73.9856 43.4474 73.986 43.5332L73.9863 43.6026C73.9865 43.6884 74.0038 43.7732 74.0368 43.8522C74.07 43.9314 74.1183 44.0031 74.1791 44.0636C74.24 44.1239 74.312 44.1717 74.3913 44.2042C74.4706 44.2367 74.5556 44.2534 74.6413 44.2531L76.4051 44.2469C76.4908 44.2467 76.5756 44.2296 76.6548 44.1964C76.734 44.1634 76.8056 44.1151 76.8661 44.0542C76.9265 43.9934 76.9743 43.9212 77.0068 43.8419C77.0395 43.7626 77.056 43.6776 77.0556 43.5919L77.0555 43.5224Z" stroke="white" stroke-width="2"/>
<path d="M78.2569 46.1592C78.2568 46.0707 78.2391 45.983 78.2051 45.9014C78.1711 45.8197 78.1214 45.7455 78.0588 45.6832C77.9961 45.6207 77.9217 45.5712 77.8399 45.5375C77.7581 45.5039 77.6706 45.4865 77.5821 45.4867L70.1933 45.4995C70.1048 45.4997 70.0172 45.5174 69.9356 45.5514C69.8539 45.5854 69.7797 45.635 69.7172 45.6977C69.6547 45.7604 69.6053 45.8347 69.5716 45.9165C69.5379 45.9984 69.5206 46.0859 69.5208 46.1744L69.5209 46.216C69.5211 46.3045 69.5386 46.392 69.5726 46.4737C69.6066 46.5554 69.6563 46.6295 69.7189 46.692C69.7816 46.7545 69.8559 46.804 69.9378 46.8377C70.0196 46.8714 70.1073 46.8887 70.1956 46.8885L77.5844 46.8755C77.6729 46.8754 77.7604 46.8579 77.8421 46.8239C77.9237 46.7899 77.9981 46.74 78.0604 46.6774C78.1229 46.6149 78.1724 46.5404 78.2061 46.4587C78.2397 46.3769 78.2571 46.2892 78.2569 46.2009V46.1592Z" stroke="white" stroke-width="2"/>
<path d="M71.9653 48.8379C71.9651 48.7402 71.9328 48.6437 71.8701 48.5537C71.8075 48.4637 71.7158 48.3819 71.6003 48.3131C71.4846 48.2442 71.3476 48.1897 71.1966 48.1527C71.0458 48.1155 70.8841 48.0967 70.7208 48.0971C70.3911 48.0976 70.0751 48.1764 69.8423 48.3162C69.6095 48.4559 69.4788 48.645 69.4791 48.8422C69.4793 48.9397 69.5116 49.0364 69.5743 49.1264C69.6368 49.2164 69.7286 49.2982 69.8441 49.367C69.9596 49.4357 70.0968 49.4902 70.2476 49.5274C70.3986 49.5644 70.5603 49.5834 70.7235 49.583C71.0531 49.5825 71.3691 49.5037 71.6021 49.3639C71.835 49.2242 71.9656 49.0349 71.9653 48.8379Z" stroke="white" stroke-width="2"/>
<path d="M78.9784 48.7149C78.9779 48.6355 78.9618 48.557 78.9308 48.4839C78.8999 48.4109 78.8549 48.3445 78.7984 48.2889C78.7419 48.2332 78.6751 48.189 78.6016 48.1592C78.5281 48.1294 78.4494 48.1144 78.3701 48.1149L73.4951 48.1489C73.4158 48.1495 73.3374 48.1657 73.2643 48.1965C73.1913 48.2274 73.1249 48.2724 73.0693 48.3289C73.0134 48.3854 72.9694 48.4522 72.9396 48.5257C72.9098 48.5994 72.8948 48.678 72.8953 48.7574L72.8964 48.9379C72.8971 49.0172 72.9133 49.0957 72.9441 49.1687C72.9749 49.2419 73.0199 49.3082 73.0764 49.3639C73.1329 49.4195 73.1999 49.4635 73.2734 49.4934C73.3469 49.5232 73.4256 49.5384 73.5049 49.5379L78.3798 49.5037C78.4591 49.5032 78.5376 49.487 78.6106 49.4562C78.6838 49.4252 78.7501 49.3804 78.8058 49.3239C78.8614 49.2674 78.9054 49.2004 78.9353 49.1269C78.9651 49.0534 78.9803 48.9747 78.9798 48.8954L78.9784 48.7149Z" stroke="white" stroke-width="2"/>
<path d="M74.9446 51.4447C74.9451 51.3625 74.9293 51.2812 74.8983 51.2052C74.8673 51.1292 74.8216 51.06 74.764 51.0017C74.7061 50.9433 74.6375 50.897 74.5618 50.8652C74.4861 50.8333 74.405 50.8168 74.323 50.8163L70.1841 50.7947C70.102 50.7943 70.0206 50.81 69.9446 50.841C69.8686 50.872 69.7996 50.9177 69.7413 50.9755C69.6828 51.0332 69.6365 51.1018 69.6046 51.1775C69.5728 51.2532 69.5563 51.3343 69.5558 51.4165L69.5553 51.5415C69.5548 51.6235 69.5705 51.7048 69.6016 51.7808C69.6326 51.8568 69.6783 51.926 69.736 51.9843C69.7936 52.0427 69.8623 52.089 69.938 52.1208C70.0136 52.1527 70.095 52.1693 70.177 52.1697L74.3158 52.1913C74.3978 52.1918 74.4793 52.176 74.5551 52.145C74.6311 52.114 74.7003 52.0683 74.7586 52.0107C74.817 51.9528 74.8635 51.8842 74.8953 51.8085C74.927 51.7328 74.9436 51.6517 74.9441 51.5697L74.9446 51.4447Z" stroke="white" stroke-width="2"/>
<path d="M24.9443 61.3234C24.944 61.1577 24.8778 60.9989 24.7605 60.8819C24.643 60.7649 24.484 60.6992 24.3181 60.6995L22.1793 60.7032C22.0973 60.7034 22.016 60.7197 21.9401 60.7512C21.8645 60.7827 21.7956 60.8289 21.7376 60.887C21.6796 60.9452 21.6338 61.0142 21.6025 61.09C21.5713 61.166 21.5551 61.2472 21.5553 61.3294L21.5556 61.4544C21.556 61.62 21.622 61.779 21.7395 61.896C21.8568 62.013 22.016 62.0785 22.1816 62.0782L24.3206 62.0745C24.4026 62.0744 24.484 62.058 24.5596 62.0265C24.6355 61.995 24.7043 61.9489 24.7623 61.8907C24.8201 61.8325 24.8661 61.7635 24.8973 61.6877C24.9286 61.6117 24.9446 61.5305 24.9445 61.4484L24.9443 61.3234Z" stroke="white" stroke-width="2"/>
<path d="M29.0699 61.3162C29.0704 61.2369 29.0554 61.1582 29.0256 61.0847C28.9958 61.0112 28.9518 60.9442 28.8959 60.8877C28.8403 60.8312 28.7739 60.7864 28.7009 60.7554C28.6278 60.7245 28.5494 60.7084 28.4701 60.7079L26.6368 60.695C26.4764 60.6939 26.3224 60.7565 26.2083 60.869C26.0943 60.9815 26.0294 61.1347 26.0284 61.295L26.0271 61.4617C26.0266 61.541 26.0418 61.6197 26.0716 61.6932C26.1014 61.7667 26.1454 61.8335 26.2011 61.89C26.2568 61.9465 26.3231 61.9915 26.3963 62.0224C26.4693 62.0534 26.5478 62.0695 26.6271 62.07L28.4604 62.0829C28.6206 62.0839 28.7748 62.0214 28.8888 61.9089C29.0029 61.7964 29.0676 61.643 29.0688 61.4829L29.0699 61.3162Z" stroke="white" stroke-width="2"/>
<path d="M30.2291 63.9935C30.2291 63.9097 30.2128 63.8265 30.1808 63.749C30.1489 63.6715 30.1019 63.6009 30.0428 63.5415C29.9834 63.482 29.9131 63.4349 29.8356 63.4027C29.7583 63.3704 29.6751 63.3537 29.5913 63.3535L22.2024 63.3407C22.1186 63.3405 22.0354 63.3569 21.9578 63.3889C21.8803 63.4209 21.8098 63.4679 21.7503 63.527C21.6909 63.5862 21.6436 63.6565 21.6114 63.734C21.5793 63.8115 21.5624 63.8945 21.5624 63.9785L21.5623 64.0895C21.5621 64.1735 21.5784 64.2565 21.6104 64.3342C21.6424 64.4117 21.6893 64.4822 21.7486 64.5417C21.8078 64.601 21.8781 64.6482 21.9556 64.6805C22.0331 64.7127 22.1161 64.7294 22.1999 64.7295L29.5888 64.7425C29.6728 64.7427 29.7558 64.7262 29.8334 64.6944C29.9109 64.6624 29.9816 64.6154 30.0409 64.5562C30.1004 64.497 30.1476 64.4265 30.1798 64.3492C30.2121 64.2717 30.2288 64.1887 30.2289 64.1047L30.2291 63.9935Z" stroke="white" stroke-width="2"/>
<path d="M26.917 66.4282C26.9171 66.369 26.9055 66.3102 26.883 66.2555C26.8603 66.2007 26.8271 66.1508 26.7853 66.1088C26.7435 66.0668 26.6938 66.0335 26.639 66.0107C26.5843 65.988 26.5256 65.9762 26.4663 65.976L22.0915 65.9685C22.0321 65.9683 21.9735 65.9798 21.9186 66.0025C21.8638 66.025 21.814 66.0582 21.772 66.1C21.73 66.1418 21.6966 66.1917 21.6738 66.2463C21.6511 66.3012 21.6393 66.3598 21.6391 66.419L21.6383 66.9052C21.6383 66.9645 21.6498 67.0232 21.6725 67.078C21.695 67.1328 21.7281 67.1825 21.77 67.2245C21.8118 67.2665 21.8616 67.2998 21.9163 67.3227C21.971 67.3455 22.0296 67.3572 22.089 67.3573L26.464 67.365C26.5231 67.365 26.582 67.3535 26.6368 67.3308C26.6915 67.3083 26.7413 67.2752 26.7833 67.2333C26.8253 67.1915 26.8586 67.1418 26.8815 67.087C26.9043 67.0323 26.916 66.9737 26.9161 66.9143L26.917 66.4282Z" stroke="white" stroke-width="2"/>
<path d="M30.4023 66.4771C30.4021 66.4104 30.389 66.3445 30.3635 66.283C30.3378 66.2215 30.3005 66.1659 30.2533 66.1189C30.2061 66.0719 30.1501 66.0346 30.0886 66.0092C30.027 65.9839 29.9611 65.9709 29.8945 65.9709L28.3251 65.9737C28.2585 65.9739 28.1926 65.987 28.1311 66.0125C28.0696 66.0382 28.0138 66.0756 27.9668 66.1227C27.9198 66.1699 27.8826 66.2259 27.8573 66.2874C27.8318 66.3489 27.8188 66.4149 27.819 66.4816L27.8196 66.8566C27.8198 66.9231 27.833 66.9889 27.8586 67.0504C27.8841 67.1119 27.9216 67.1677 27.9688 67.2147C28.016 67.2617 28.0718 67.2989 28.1335 67.3244C28.195 67.3497 28.2608 67.3627 28.3275 67.3626L29.897 67.3599C29.9635 67.3597 30.0293 67.3466 30.0908 67.3209C30.1523 67.2954 30.2081 67.2579 30.2551 67.2107C30.3021 67.1636 30.3393 67.1077 30.3648 67.0461C30.3901 66.9846 30.4031 66.9185 30.403 66.852L30.4023 66.4771Z" stroke="white" stroke-width="2"/>
<path d="M32.2638 69.2707C32.2638 69.1822 32.2464 69.0945 32.2126 69.0129C32.1788 68.9312 32.1291 68.8569 32.0666 68.7944C32.0039 68.7319 31.9298 68.6822 31.8481 68.6484C31.7663 68.6145 31.6788 68.597 31.5903 68.597H22.2291C22.0504 68.597 21.8791 68.668 21.7528 68.7944C21.6264 68.9207 21.5554 69.092 21.5554 69.2707V69.3124C21.5554 69.491 21.6264 69.6624 21.7528 69.7887C21.8791 69.915 22.0504 69.9859 22.2291 69.9859H31.5903C31.6788 69.9859 31.7663 69.9685 31.8481 69.9347C31.9298 69.9009 32.0039 69.8512 32.0666 69.7887C32.1291 69.726 32.1788 69.6519 32.2126 69.57C32.2464 69.4884 32.2638 69.4007 32.2638 69.3124V69.2707Z" stroke="white" stroke-width="2"/>
<path d="M71.451 69.3197C71.4537 69.2231 71.4303 69.1266 71.3822 69.0359C71.3342 68.9452 71.2622 68.8621 71.1707 68.7911C71.0792 68.7202 70.9697 68.6629 70.8485 68.6224C70.7275 68.5821 70.5972 68.5594 70.465 68.5557C70.198 68.5482 69.9398 68.6186 69.7472 68.7514C69.5547 68.8841 69.4433 69.0682 69.4378 69.2634C69.4352 69.3601 69.4585 69.4564 69.5067 69.5471C69.5547 69.6379 69.6265 69.7211 69.7182 69.7919C69.8097 69.8629 69.9192 69.9202 70.0402 69.9606C70.1613 70.0009 70.2917 70.0237 70.4238 70.0274C70.6908 70.0349 70.949 69.9644 71.1417 69.8317C71.3342 69.699 71.4455 69.5147 71.451 69.3197Z" stroke="white" stroke-width="2"/>
<path d="M74.9087 69.342C74.913 69.2454 74.8913 69.1487 74.845 69.0572C74.7987 68.9659 74.7287 68.8815 74.6388 68.8092C74.549 68.7369 74.4413 68.6779 74.3217 68.6355C74.202 68.5934 74.073 68.5687 73.9418 68.5629C73.6768 68.5514 73.4193 68.6177 73.226 68.7475C73.0327 68.8772 72.9192 69.0597 72.9107 69.2547C72.9065 69.3514 72.9282 69.448 72.9745 69.5395C73.0207 69.6309 73.0908 69.7152 73.1805 69.7875C73.2703 69.8599 73.3782 69.9189 73.4977 69.961C73.6173 70.0034 73.7463 70.028 73.8777 70.0337C74.1425 70.0454 74.4 69.9789 74.5935 69.8492C74.7868 69.7195 74.9002 69.537 74.9087 69.342Z" stroke="white" stroke-width="2"/>
<path d="M78.3745 69.3344C78.3803 69.1392 78.2828 68.949 78.1033 68.8055C77.9238 68.6622 77.6771 68.5772 77.4176 68.5695C77.158 68.5619 76.9068 68.632 76.7192 68.7645C76.5315 68.897 76.4228 69.0812 76.417 69.2762C76.4113 69.4714 76.5088 69.6615 76.6883 69.805C76.8678 69.9485 77.1145 70.0334 77.374 70.041C77.6336 70.0487 77.8848 69.9787 78.0725 69.846C78.2601 69.7135 78.3688 69.5295 78.3745 69.3344Z" stroke="white" stroke-width="2"/>
<path d="M81.3958 25.3402L82.5903 26.5764L83.3333 28.5625V71.5209L82.5903 73.4514L81.4028 74.6459C80.6041 74.9652 79.625 75.3334 78.7361 75.3334C59.6065 75.3519 40.4791 75.3564 21.3541 75.3472C20.5346 75.3472 19.6135 75.1134 18.5903 74.6459L17.4166 73.4305L16.6666 71.4375V28.4792L17.4096 26.5625L18.6111 25.361C19.6573 24.9074 20.3403 24.6805 20.6596 24.6805C40.1041 24.6712 59.5486 24.6689 78.993 24.6735C79.5948 24.6735 80.3958 24.8959 81.3958 25.3402ZM81.9445 29.2639C81.9445 28.8415 81.8613 28.4235 81.6996 28.0334C81.5381 27.6434 81.3013 27.2889 81.0026 26.9904C80.7041 26.6917 80.3496 26.4549 79.9596 26.2934C79.5695 26.1317 79.1513 26.0485 78.7291 26.0485H21.2708C20.8486 26.0485 20.4305 26.1317 20.0403 26.2934C19.6503 26.4549 19.2958 26.6917 18.9973 26.9904C18.6986 27.2889 18.4618 27.6434 18.3003 28.0334C18.1386 28.4235 18.0555 28.8415 18.0555 29.2639V70.7639C18.0555 71.6165 18.3943 72.4344 18.9973 73.0374C19.6003 73.6404 20.4181 73.9792 21.2708 73.9792H78.7291C79.5818 73.9792 80.3996 73.6404 81.0026 73.0374C81.6056 72.4344 81.9445 71.6165 81.9445 70.7639V29.2639Z" fill="white"/>
<path d="M18.6112 25.3614L17.4098 26.5627C17.3403 26.2525 17.3518 25.9562 17.4445 25.6739C17.5232 25.4562 17.6783 25.3312 17.9098 25.2989C18.1458 25.271 18.3797 25.2919 18.6112 25.3614Z" fill="#08177E"/>
<path d="M81.3958 25.3402L82.0624 25.3055C82.3077 25.2917 82.4699 25.4027 82.5486 25.6389C82.6411 25.9352 82.6551 26.2477 82.5902 26.5764L81.3958 25.3402Z" fill="#08177E"/>
<path d="M81.9445 70.7639C81.9445 71.6167 81.6058 72.4345 81.0028 73.0374C80.3998 73.6404 79.582 73.9792 78.7292 73.9792H21.2708C20.4182 73.9792 19.6003 73.6404 18.9973 73.0374C18.3943 72.4345 18.0557 71.6167 18.0557 70.7639V29.2639C18.0557 28.8417 18.1388 28.4235 18.3003 28.0335C18.462 27.6434 18.6988 27.2889 18.9973 26.9904C19.296 26.6919 19.6503 26.4549 20.0405 26.2934C20.4305 26.1317 20.8487 26.0487 21.2708 26.0487H78.7292C79.1515 26.0487 79.5695 26.1317 79.9597 26.2934C80.3498 26.4549 80.7042 26.6919 81.0028 26.9904C81.3013 27.2889 81.5382 27.6434 81.6998 28.0335C81.8613 28.4235 81.9445 28.8417 81.9445 29.2639V70.7639ZM28.264 33.1737C28.264 32.7574 28.0987 32.3582 27.8043 32.0639C27.51 31.7695 27.1108 31.6042 26.6945 31.6042H23.0973C22.681 31.6042 22.2818 31.7695 21.9875 32.0639C21.6932 32.3582 21.5278 32.7574 21.5278 33.1737V45.9375C21.5278 46.3537 21.6932 46.7529 21.9875 47.0472C22.2818 47.3415 22.681 47.507 23.0973 47.507H26.6945C27.1108 47.507 27.51 47.3415 27.8043 47.0472C28.0987 46.7529 28.264 46.3537 28.264 45.9375V33.1737ZM36.5625 35.3612C32.7362 39.3125 32.5348 43.9445 35.3125 48.5209C36.1875 49.9514 38.125 52.3404 37.7083 54.007C36.5557 58.6227 37.4005 62.7107 40.2432 66.2709C41.1667 67.4167 42.625 67.8819 43.5833 66.5555C44.2778 65.5972 43.8057 64.3195 43.6042 63.2154C42.9723 59.7569 46.1667 56.1042 48.8057 54.3055C49.6112 53.757 50.3958 53.618 51.1737 54.2222C54.0557 56.4445 57.4375 60.0834 56.264 64.1875C55.8958 65.4722 55.7987 66.3125 56.9445 67.0277C60.0208 68.9444 62.4862 61.4444 62.7223 59.3194C63.0278 56.5485 61.3958 52.8542 63.1598 50.7362C63.3172 50.5464 63.4792 50.5394 63.6458 50.7152C66.882 54.0347 68.1598 56.2847 73.4862 55.3125C73.6898 55.2755 73.7872 55.1529 73.7778 54.9445L73.757 54.4792C73.7478 54.2339 73.6205 54.1089 73.375 54.1042L69.2987 54.007C69.0355 54.0024 68.7822 53.8955 68.5903 53.7084L64.3958 49.5279C64.1968 49.3334 64.183 49.125 64.3542 48.9027C69.6807 41.9375 64.8542 33.25 56.5417 32.7084C55.7872 32.6574 54.801 32.8495 53.5833 33.2847C51.1898 34.1505 48.7917 34.1875 46.389 33.3959C43.3125 32.382 41.014 32.6737 38.2848 34.0764C38.0533 34.1967 37.8542 34.155 37.6875 33.9514C35.6458 31.4097 33.4862 31.8542 30.5695 31.9792C30.4813 31.983 30.3953 32.0079 30.3185 32.0517C30.2418 32.0955 30.1767 32.157 30.1285 32.231C30.0803 32.305 30.0505 32.3894 30.0413 32.4772C30.0323 32.565 30.0443 32.6539 30.0765 32.7362L30.1945 33.0417C30.2687 33.2315 30.4075 33.3264 30.6112 33.3264C32.9307 33.3472 34.9792 32.7292 36.5973 34.8195C36.7408 35.0092 36.7292 35.1899 36.5625 35.3612ZM72.903 43.489C72.9032 43.4079 72.8873 43.3275 72.8563 43.2524C72.8253 43.1774 72.78 43.1092 72.7227 43.0517C72.6653 42.9942 72.5973 42.9485 72.5223 42.9174C72.4475 42.8862 72.3672 42.87 72.286 42.8699L70.147 42.8662C70.066 42.866 69.9855 42.8819 69.9105 42.9129C69.8355 42.9437 69.7672 42.9892 69.7097 43.0465C69.6523 43.1037 69.6067 43.1719 69.5755 43.2467C69.5442 43.3217 69.5282 43.402 69.528 43.4832L69.5277 43.636C69.5275 43.7172 69.5435 43.7975 69.5743 43.8725C69.6053 43.9475 69.6507 44.0159 69.708 44.0734C69.7653 44.1309 69.8333 44.1764 69.9083 44.2077C69.9832 44.2389 70.0635 44.2549 70.1447 44.255L72.2837 44.2589C72.3648 44.259 72.4452 44.243 72.5202 44.2122C72.5952 44.1812 72.6635 44.1359 72.721 44.0785C72.7785 44.0212 72.824 43.9532 72.8553 43.8782C72.8865 43.8034 72.9025 43.723 72.9027 43.6419L72.903 43.489ZM77.0555 43.5224C77.0552 43.4367 77.038 43.3519 77.005 43.2729C76.9718 43.1937 76.9235 43.1219 76.8627 43.0615C76.8018 43.0012 76.7297 42.9534 76.6503 42.9207C76.571 42.8882 76.4862 42.8717 76.4003 42.872L74.6367 42.878C74.5508 42.8784 74.466 42.8955 74.387 42.9285C74.3078 42.9617 74.236 43.01 74.1757 43.0709C74.1152 43.1317 74.0673 43.2039 74.0348 43.2832C74.0023 43.3625 73.9857 43.4474 73.986 43.5332L73.9863 43.6025C73.9867 43.6884 74.0038 43.7732 74.0368 43.8522C74.07 43.9314 74.1183 44.003 74.1792 44.0635C74.24 44.1239 74.3122 44.1717 74.3913 44.2042C74.4707 44.2367 74.5557 44.2534 74.6413 44.253L76.4052 44.247C76.491 44.2467 76.5758 44.2295 76.6548 44.1964C76.734 44.1634 76.8058 44.115 76.8662 44.0542C76.9265 43.9934 76.9743 43.9212 77.007 43.8419C77.0395 43.7625 77.056 43.6775 77.0558 43.5919L77.0555 43.5224ZM78.257 46.159C78.2568 46.0705 78.2392 45.983 78.2052 45.9014C78.1712 45.8197 78.1215 45.7455 78.0588 45.683C77.9962 45.6207 77.9218 45.5712 77.84 45.5374C77.7582 45.5037 77.6707 45.4865 77.5822 45.4865L70.1933 45.4995C70.1048 45.4997 70.0173 45.5172 69.9357 45.5512C69.854 45.5852 69.7798 45.635 69.7173 45.6977C69.655 45.7604 69.6055 45.8347 69.5717 45.9164C69.538 45.9982 69.5207 46.0859 69.5208 46.1744L69.521 46.216C69.5212 46.3044 69.5387 46.392 69.5727 46.4737C69.6067 46.5554 69.6565 46.6295 69.7192 46.6919C69.7818 46.7544 69.8562 46.8039 69.9378 46.8375C70.0197 46.8714 70.1073 46.8885 70.1958 46.8884L77.5845 46.8755C77.673 46.8754 77.7607 46.8577 77.8423 46.8237C77.924 46.7897 77.9982 46.74 78.0605 46.6774C78.123 46.6147 78.1725 46.5404 78.2062 46.4585C78.2398 46.3769 78.2572 46.2892 78.257 46.2007V46.159ZM71.9653 48.8382C71.9652 48.7405 71.9328 48.644 71.8702 48.5539C71.8077 48.4639 71.7158 48.3822 71.6003 48.3134C71.4848 48.2445 71.3477 48.19 71.1968 48.153C71.0458 48.1159 70.8842 48.0969 70.721 48.0972C70.3913 48.0979 70.0753 48.1767 69.8423 48.3164C69.6095 48.4562 69.4788 48.6454 69.4792 48.8424C69.4793 48.94 69.5117 49.0365 69.5743 49.1267C69.637 49.2167 69.7287 49.2984 69.8442 49.3672C69.9598 49.436 70.097 49.4905 70.2478 49.5275C70.3987 49.5647 70.5603 49.5837 70.7237 49.5834C71.0533 49.5827 71.3693 49.5039 71.6022 49.3642C71.835 49.2244 71.9657 49.0352 71.9653 48.8382ZM78.9785 48.7149C78.978 48.6355 78.9618 48.557 78.931 48.484C78.9 48.4109 78.8552 48.3445 78.7987 48.2889C78.7422 48.2332 78.6752 48.1892 78.6017 48.1594C78.5282 48.1295 78.4495 48.1144 78.3702 48.1149L73.4953 48.149C73.416 48.1495 73.3375 48.1657 73.2643 48.1965C73.1913 48.2274 73.125 48.2724 73.0693 48.3289C73.0137 48.3854 72.9695 48.4524 72.9397 48.5259C72.9098 48.5994 72.8948 48.678 72.8953 48.7574L72.8967 48.9379C72.8972 49.0172 72.9133 49.0957 72.9442 49.1689C72.975 49.2419 73.02 49.3082 73.0765 49.3639C73.133 49.4195 73.2 49.4637 73.2735 49.4935C73.347 49.5234 73.4257 49.5384 73.505 49.5379L78.3798 49.5039C78.4592 49.5032 78.5377 49.487 78.6107 49.4562C78.6838 49.4254 78.7502 49.3804 78.8058 49.3239C78.8615 49.2674 78.9055 49.2005 78.9355 49.127C78.9653 49.0534 78.9803 48.9747 78.9798 48.8954L78.9785 48.7149ZM74.9448 51.4447C74.9452 51.3625 74.9295 51.2812 74.8985 51.2052C74.8675 51.1292 74.8218 51.06 74.764 51.0017C74.7063 50.9434 74.6377 50.897 74.562 50.8652C74.4863 50.8334 74.4052 50.8169 74.323 50.8164L70.1842 50.7947C70.1022 50.7944 70.0208 50.81 69.9448 50.841C69.8688 50.872 69.7997 50.9177 69.7413 50.9755C69.683 51.0332 69.6367 51.1019 69.6048 51.1775C69.573 51.2532 69.5563 51.3344 69.556 51.4165L69.5553 51.5415C69.5548 51.6235 69.5707 51.7049 69.6017 51.7809C69.6327 51.8569 69.6783 51.926 69.7362 51.9844C69.7938 52.0427 69.8625 52.089 69.9382 52.1209C70.0138 52.1527 70.095 52.1694 70.177 52.1697L74.3158 52.1914C74.398 52.1919 74.4793 52.176 74.5553 52.145C74.6313 52.114 74.7005 52.0684 74.7588 52.0107C74.8172 51.9529 74.8635 51.8842 74.8953 51.8085C74.9272 51.7329 74.9437 51.6517 74.9442 51.5697L74.9448 51.4447ZM24.9443 61.3234C24.944 61.1577 24.878 60.9989 24.7605 60.8819C24.6432 60.7649 24.484 60.6992 24.3183 60.6995L22.1795 60.7032C22.0973 60.7034 22.0162 60.7197 21.9403 60.7512C21.8645 60.7829 21.7957 60.8289 21.7378 60.887C21.6798 60.9452 21.634 61.0142 21.6027 61.09C21.5713 61.166 21.5553 61.2474 21.5555 61.3294L21.5558 61.4544C21.556 61.6202 21.6222 61.779 21.7395 61.896C21.857 62.013 22.016 62.0785 22.1818 62.0782L24.3207 62.0745C24.4028 62.0744 24.484 62.058 24.5598 62.0265C24.6357 61.995 24.7043 61.9489 24.7623 61.8907C24.8203 61.8325 24.8662 61.7635 24.8975 61.6877C24.9288 61.6119 24.9448 61.5305 24.9447 61.4484L24.9443 61.3234ZM29.07 61.3162C29.0707 61.2369 29.0555 61.1582 29.0257 61.0847C28.9958 61.0112 28.9518 60.9442 28.8962 60.8877C28.8403 60.8312 28.7742 60.7862 28.701 60.7554C28.628 60.7245 28.5495 60.7084 28.4702 60.7079L26.6368 60.695C26.4765 60.6939 26.3225 60.7565 26.2083 60.869C26.0943 60.9815 26.0297 61.1347 26.0285 61.2949L26.0273 61.4615C26.0267 61.5409 26.0418 61.6197 26.0717 61.6932C26.1015 61.7667 26.1455 61.8335 26.2012 61.89C26.257 61.9465 26.3232 61.9915 26.3963 62.0224C26.4695 62.0532 26.5478 62.0695 26.6272 62.07L28.4605 62.0829C28.6208 62.0839 28.7748 62.0214 28.889 61.9089C29.003 61.7964 29.0678 61.643 29.0688 61.4829L29.07 61.3162ZM30.2293 63.9937C30.2295 63.9099 30.213 63.8267 30.1812 63.749C30.1492 63.6715 30.1022 63.601 30.043 63.5415C29.9837 63.4822 29.9133 63.435 29.836 63.4027C29.7585 63.3705 29.6755 63.3539 29.5915 63.3537L22.2027 63.3407C22.1188 63.3405 22.0357 63.357 21.9582 63.389C21.8805 63.4209 21.81 63.4679 21.7505 63.527C21.6912 63.5864 21.644 63.6567 21.6117 63.7342C21.5795 63.8115 21.5628 63.8947 21.5627 63.9785L21.5625 64.0897C21.5623 64.1735 21.5787 64.2567 21.6107 64.3342C21.6427 64.4119 21.6897 64.4824 21.7488 64.5417C21.808 64.6012 21.8783 64.6484 21.9558 64.6805C22.0333 64.7129 22.1163 64.7295 22.2003 64.7297L29.5892 64.7425C29.673 64.7427 29.7562 64.7264 29.8337 64.6944C29.9113 64.6624 29.9818 64.6155 30.0412 64.5562C30.1007 64.497 30.1478 64.4267 30.1802 64.3492C30.2123 64.2717 30.229 64.1887 30.2292 64.1049L30.2293 63.9937ZM26.9172 66.4282C26.9173 66.3689 26.9057 66.3102 26.8832 66.2554C26.8605 66.2005 26.8273 66.1507 26.7855 66.1089C26.7437 66.0669 26.694 66.0335 26.6392 66.0107C26.5845 65.9879 26.5258 65.9762 26.4665 65.976L22.0917 65.9684C22.0323 65.9684 21.9737 65.9799 21.9188 66.0025C21.864 66.025 21.8142 66.0582 21.7722 66.1C21.7302 66.1419 21.6968 66.1915 21.674 66.2464C21.6513 66.301 21.6395 66.3597 21.6393 66.419L21.6385 66.9052C21.6385 66.9644 21.65 67.0232 21.6727 67.0779C21.6952 67.1327 21.7283 67.1825 21.7702 67.2245C21.812 67.2665 21.8618 67.2999 21.9165 67.3227C21.9712 67.3454 22.0298 67.3572 22.0892 67.3574L26.4642 67.3649C26.5233 67.365 26.5822 67.3535 26.6368 67.3309C26.6917 67.3084 26.7415 67.2752 26.7835 67.2334C26.8255 67.1914 26.8588 67.1417 26.8817 67.087C26.9045 67.0322 26.9162 66.9735 26.9163 66.9144L26.9172 66.4282ZM30.4025 66.477C30.4023 66.4104 30.3892 66.3445 30.3637 66.283C30.338 66.2215 30.3005 66.1657 30.2535 66.1187C30.2063 66.0717 30.1503 66.0345 30.0888 66.009C30.0272 65.9837 29.9613 65.9707 29.8947 65.9709L28.3253 65.9737C28.2587 65.9737 28.1928 65.9869 28.1313 66.0125C28.0698 66.038 28.014 66.0755 27.967 66.1227C27.92 66.1699 27.8828 66.2259 27.8575 66.2874C27.832 66.3489 27.819 66.4149 27.8192 66.4814L27.8198 66.8564C27.82 66.923 27.8332 66.9889 27.8588 67.0504C27.8843 67.1119 27.9218 67.1677 27.969 67.2147C28.016 67.2615 28.072 67.2989 28.1335 67.3242C28.1952 67.3495 28.261 67.3625 28.3277 67.3625L29.897 67.3597C29.9637 67.3597 30.0295 67.3464 30.091 67.3209C30.1525 67.2952 30.2083 67.2579 30.2553 67.2107C30.3023 67.1635 30.3395 67.1075 30.365 67.046C30.3903 66.9845 30.4033 66.9185 30.4032 66.852L30.4025 66.477ZM32.264 69.2709C32.264 69.1824 32.2465 69.0949 32.2127 69.013C32.1788 68.9314 32.1292 68.857 32.0667 68.7945C32.0042 68.732 31.9298 68.6824 31.8482 68.6485C31.7663 68.6147 31.6788 68.5972 31.5903 68.5972H22.2292C22.0505 68.5972 21.8792 68.6682 21.753 68.7945C21.6267 68.9209 21.5557 69.0922 21.5557 69.2709V69.3125C21.5557 69.4912 21.6267 69.6625 21.753 69.7889C21.8792 69.9152 22.0505 69.9862 22.2292 69.9862H31.5903C31.6788 69.9862 31.7663 69.9687 31.8482 69.9349C31.9298 69.901 32.0042 69.8514 32.0667 69.7889C32.1292 69.7262 32.1788 69.652 32.2127 69.5704C32.2465 69.4885 32.264 69.401 32.264 69.3125V69.2709ZM71.451 69.3199C71.4537 69.2232 71.4303 69.1267 71.3823 69.036C71.3342 68.9454 71.2623 68.8622 71.1708 68.7912C71.0792 68.7204 70.9698 68.663 70.8487 68.6227C70.7277 68.5822 70.5972 68.5595 70.465 68.5559C70.1982 68.5484 69.94 68.6187 69.7473 68.7515C69.5547 68.8842 69.4435 69.0684 69.438 69.2635C69.4353 69.3602 69.4587 69.4565 69.5067 69.5472C69.5548 69.638 69.6267 69.7212 69.7182 69.792C69.8098 69.863 69.9192 69.9204 70.0403 69.9607C70.1613 70.0012 70.2918 70.0239 70.424 70.0275C70.6908 70.035 70.9492 69.9645 71.1417 69.8319C71.3343 69.6992 71.4457 69.515 71.451 69.3199ZM74.9088 69.3422C74.913 69.2457 74.8913 69.1489 74.845 69.0575C74.7987 68.966 74.7287 68.8817 74.6388 68.8094C74.5492 68.737 74.4413 68.6782 74.3217 68.6359C74.2022 68.5937 74.073 68.5689 73.9418 68.5632C73.6768 68.5517 73.4195 68.618 73.226 68.7477C73.0327 68.8775 72.9193 69.06 72.9108 69.255C72.9065 69.3515 72.9282 69.4484 72.9745 69.5397C73.0208 69.6312 73.0908 69.7155 73.1807 69.7879C73.2705 69.8602 73.3782 69.919 73.4978 69.9614C73.6175 70.0035 73.7465 70.0284 73.8777 70.034C74.1427 70.0455 74.4002 69.9792 74.5935 69.8495C74.7868 69.7197 74.9003 69.5372 74.9088 69.3422ZM78.3747 69.3345C78.3805 69.1394 78.2828 68.9492 78.1033 68.8059C77.924 68.6624 77.6773 68.5775 77.4177 68.5699C77.1582 68.562 76.9068 68.6322 76.7192 68.7647C76.5317 68.8974 76.423 69.0814 76.4172 69.2765C76.4113 69.4717 76.509 69.6619 76.6883 69.8054C76.8678 69.9487 77.1145 70.0337 77.3742 70.0414C77.6337 70.049 77.8848 69.9789 78.0725 69.8464C78.2602 69.7139 78.3688 69.5297 78.3747 69.3345Z" fill="#08177E"/>
<path d="M26.6943 31.6041H23.0971C22.2303 31.6041 21.5276 32.3067 21.5276 33.1736V45.9374C21.5276 46.8042 22.2303 47.5069 23.0971 47.5069H26.6943C27.5611 47.5069 28.2638 46.8042 28.2638 45.9374V33.1736C28.2638 32.3067 27.5611 31.6041 26.6943 31.6041Z" fill="white"/>
<path d="M36.5972 34.8195C34.9791 32.7292 32.9306 33.3474 30.6111 33.3265C30.4074 33.3265 30.2684 33.2315 30.1944 33.0417L30.0764 32.7362C30.0442 32.6539 30.0322 32.5652 30.0412 32.4774C30.0504 32.3895 30.0802 32.305 30.1284 32.231C30.1766 32.157 30.2417 32.0955 30.3184 32.0519C30.3951 32.008 30.4812 31.9832 30.5694 31.9792C33.4861 31.8542 35.6457 31.4099 37.6874 33.9515C37.8541 34.1552 38.0532 34.1969 38.2847 34.0765C41.0139 32.6737 43.3124 32.382 46.3889 33.3959C48.7916 34.1875 51.1897 34.1505 53.5832 33.2849C54.8009 32.8495 55.7871 32.6575 56.5416 32.7084C64.8541 33.25 69.6806 41.9375 64.3541 48.9029C64.1829 49.125 64.1967 49.3334 64.3957 49.5279L68.5902 53.7084C68.7821 53.8955 69.0354 54.0024 69.2986 54.007L73.3749 54.1042C73.6204 54.1089 73.7476 54.2339 73.7569 54.4792L73.7777 54.9445C73.7871 55.1529 73.6897 55.2755 73.4861 55.3125C68.1597 56.2849 66.8819 54.0349 63.6457 50.7154C63.4791 50.5394 63.3171 50.5464 63.1597 50.7362C61.3957 52.8542 63.0277 56.5487 62.7222 59.3195C62.4861 61.4445 60.0207 68.9445 56.9444 67.0279C55.7986 66.3125 55.8957 65.4724 56.2639 64.1875C57.4374 60.0834 54.0556 56.4445 51.1736 54.2224C50.3957 53.6182 49.6111 53.757 48.8056 54.3057C46.1666 56.1042 42.9722 59.757 43.6041 63.2154C43.8056 64.3195 44.2777 65.5974 43.5832 66.5557C42.6249 67.882 41.1666 67.4167 40.2431 66.2709C37.4004 62.7107 36.5556 58.6227 37.7082 54.007C38.1249 52.3404 36.1874 49.9515 35.3124 48.5209C32.5347 43.9445 32.7361 39.3125 36.5624 35.3612C36.7291 35.1899 36.7407 35.0094 36.5972 34.8195Z" fill="white"/>
<path d="M72.2859 42.8699L70.1469 42.866C69.8056 42.8655 69.5284 43.1417 69.5279 43.483L69.5276 43.6359C69.5269 43.9772 69.8033 44.2544 70.1446 44.255L72.2834 44.2587C72.6248 44.2594 72.9019 43.983 72.9026 43.6417L72.9029 43.489C72.9034 43.1477 72.6273 42.8704 72.2859 42.8699Z" fill="white"/>
<path d="M76.4003 42.872L74.6365 42.8782C74.276 42.8795 73.9848 43.1727 73.986 43.5332L73.9863 43.6027C73.9875 43.9632 74.2808 44.2545 74.6413 44.2532L76.4051 44.247C76.7656 44.2457 77.057 43.9525 77.0556 43.592L77.0555 43.5225C77.0541 43.162 76.761 42.8708 76.4003 42.872Z" fill="white"/>
<path d="M77.5821 45.4864L70.1933 45.4994C69.8211 45.5001 69.5201 45.8021 69.5208 46.1742V46.2159C69.5214 46.5879 69.8236 46.8889 70.1956 46.8882L77.5844 46.8754C77.9566 46.8747 78.2576 46.5726 78.2569 46.2006V46.1589C78.2563 45.7869 77.9541 45.4859 77.5821 45.4864Z" fill="white"/>
<path d="M70.7236 49.5834C71.4101 49.5822 71.966 49.2486 71.9653 48.8381C71.9646 48.4277 71.4075 48.0961 70.721 48.0972C70.0345 48.0984 69.4785 48.4321 69.4791 48.8426C69.48 49.2529 70.037 49.5846 70.7236 49.5834Z" fill="white"/>
<path d="M78.37 48.1149L73.4952 48.1489C73.1615 48.1512 72.893 48.4235 72.8952 48.7572L72.8965 48.9379C72.8988 49.2715 73.1712 49.5401 73.5048 49.5377L78.3798 49.5037C78.7135 49.5014 78.982 49.229 78.9797 48.8954L78.9785 48.7149C78.9762 48.3812 78.7037 48.1125 78.37 48.1149Z" fill="white"/>
<path d="M74.323 50.8164L70.1842 50.7947C69.839 50.7929 69.5577 51.0712 69.5559 51.4164L69.5552 51.5414C69.5534 51.8867 69.8317 52.1679 70.1768 52.1697L74.3157 52.1914C74.661 52.1932 74.9422 51.9149 74.944 51.5697L74.9447 51.4447C74.9465 51.0995 74.6682 50.8182 74.323 50.8164Z" fill="white"/>
<path d="M24.3181 60.6995L22.1793 60.7034C21.8341 60.7039 21.5548 60.9842 21.5554 61.3294L21.5556 61.4544C21.5563 61.7995 21.8366 62.0789 22.1818 62.0784L24.3206 62.0745C24.6658 62.074 24.9451 61.7937 24.9444 61.4485L24.9443 61.3235C24.9436 60.9784 24.6634 60.699 24.3181 60.6995Z" fill="white"/>
<path d="M28.4701 60.708L26.6367 60.6952C26.3031 60.6929 26.0307 60.9614 26.0284 61.295L26.0272 61.4617C26.0249 61.7954 26.2936 62.0679 26.6272 62.0702L28.4604 62.0829C28.7941 62.0852 29.0666 61.8167 29.0689 61.483L29.0701 61.3164C29.0724 60.9827 28.8037 60.7104 28.4701 60.708Z" fill="white"/>
<path d="M29.5914 63.3539L22.2026 63.3411C21.8498 63.3404 21.5631 63.6259 21.5626 63.9787L21.5623 64.0899C21.5618 64.4427 21.8473 64.7292 22.2001 64.7299L29.5889 64.7427C29.9418 64.7434 30.2284 64.4579 30.2289 64.1051L30.2293 63.9939C30.2298 63.6411 29.9443 63.3546 29.5914 63.3539Z" fill="white"/>
<path d="M26.4663 65.9761L22.0913 65.9684C21.8421 65.9681 21.6396 66.1697 21.6391 66.419L21.6383 66.9052C21.638 67.1544 21.8396 67.3569 22.089 67.3574L26.464 67.365C26.7133 67.3654 26.9156 67.1637 26.9161 66.9144L26.917 66.4282C26.9175 66.1789 26.7156 65.9766 26.4663 65.9761Z" fill="white"/>
<path d="M29.8945 65.9709L28.3251 65.9737C28.0451 65.9742 27.8186 66.2016 27.819 66.4816L27.8196 66.8566C27.8201 67.1366 28.0476 67.3631 28.3275 67.3626L29.897 67.3599C30.177 67.3594 30.4035 67.1321 30.403 66.8521L30.4023 66.4771C30.402 66.1971 30.1745 65.9704 29.8945 65.9709Z" fill="white"/>
<path d="M31.5903 68.5974H22.2291C21.8571 68.5974 21.5554 68.899 21.5554 69.271V69.3127C21.5554 69.6847 21.8571 69.9863 22.2291 69.9863H31.5903C31.9623 69.9863 32.2638 69.6847 32.2638 69.3127V69.271C32.2638 68.899 31.9623 68.5974 31.5903 68.5974Z" fill="white"/>
<path d="M70.4238 70.0277C70.9798 70.0432 71.4397 69.7264 71.451 69.3199C71.4623 68.9135 71.0208 68.5715 70.465 68.556C69.909 68.5405 69.4492 68.8574 69.4378 69.2637C69.4265 69.67 69.868 70.012 70.4238 70.0277Z" fill="white"/>
<path d="M73.8774 70.0342C74.4292 70.0582 74.8909 69.7486 74.9086 69.3424C74.9264 68.9362 74.4934 68.5874 73.9417 68.5634C73.3899 68.5392 72.9282 68.8491 72.9106 69.2552C72.8927 69.6614 73.3257 70.0101 73.8774 70.0342Z" fill="white"/>
<path d="M77.374 70.0415C77.9146 70.0575 78.3624 69.7412 78.3746 69.3347C78.3866 68.9284 77.9583 68.586 77.4176 68.5699C76.8771 68.5539 76.4291 68.8704 76.4171 69.2767C76.4051 69.683 76.8335 70.0255 77.374 70.0415Z" fill="white"/>
<path d="M17.4166 73.4305L18.5903 74.6459L18 74.7154C17.7453 74.743 17.5695 74.639 17.4721 74.4029C17.3518 74.0974 17.3333 73.7732 17.4166 73.4305Z" fill="#08177E"/>
<path d="M82.5903 73.4514C82.669 73.7709 82.6597 74.0694 82.5625 74.3472C82.4792 74.5879 82.3102 74.7014 82.0555 74.6875L81.4028 74.6459L82.5903 73.4514Z" fill="#08177E"/>
</g>
</g>
</g>
<defs>
<radialGradient id="paint0_radial_51_586" cx="0" cy="0" r="1" gradientUnits="userSpaceOnUse" gradientTransform="translate(50 50) rotate(90) scale(50)">
<stop stop-color="#53F5F0"/>
<stop offset="1" stop-color="#07BFC1"/>
</radialGradient>
<clipPath id="clip0_51_586">
<rect width="100" height="100" fill="white"/>
</clipPath>
</defs>
</svg>
